<svg width="157" height="78" viewBox="0 0 157 78" fill="none" xmlns="http://www.w3.org/2000/svg">
<path d="M0.773724 1.97406C0.235764 1.84909 -0.099032 1.31168 0.0259369 0.773717C0.150906 0.23576 0.688316 -0.0990326 1.22628 0.0259293L0.773724 1.97406ZM85.1679 74.39L85.6245 73.5003L85.1679 74.39ZM156.707 58.9919C157.098 59.3824 157.098 60.0156 156.707 60.4061L150.343 66.7701C149.953 67.1606 149.319 67.1606 148.929 66.7701C148.538 66.3796 148.538 65.7464 148.929 65.3559L154.586 59.699L148.929 54.0422C148.538 53.6516 148.538 53.0185 148.929 52.6279C149.319 52.2374 149.953 52.2374 150.343 52.6279L156.707 58.9919ZM78.6553 37.8398L77.9259 37.1558L78.6553 37.8398ZM85.6245 73.5003C95.5351 78.5862 107.214 75.1295 119.572 70.1082C125.67 67.6309 131.955 64.766 138.045 62.551C144.154 60.329 150.218 58.699 156 58.699V60.699C150.568 60.699 144.763 62.2354 138.728 64.4305C132.674 66.6326 126.541 69.4356 120.325 71.9611C108.058 76.9453 95.5349 80.8341 84.7114 75.2797L85.6245 73.5003ZM1.22628 0.0259293C14.4929 3.10779 23.7225 11.5414 32.5525 20.8816C41.4277 30.2696 49.8759 40.533 61.7171 47.7928L60.6717 49.4978C48.5395 42.0596 39.8486 31.5105 31.0991 22.2555C22.3044 12.9527 13.4235 4.91262 0.773724 1.97406L1.22628 0.0259293ZM61.7171 47.7928C73.541 55.042 84.603 56.7792 92.4555 55.1085C96.3813 54.2732 99.4659 52.5972 101.481 50.3805C103.482 48.1793 104.471 45.4042 104.169 42.2345L106.159 42.0445C106.516 45.7847 105.335 49.115 102.961 51.7259C100.602 54.3211 97.1064 56.1637 92.8717 57.0647C84.4033 58.8665 72.8213 56.9467 60.6717 49.4978L61.7171 47.7928ZM104.169 42.2345C103.859 38.9938 102.646 36.6916 100.948 35.1446C99.2389 33.588 96.961 32.7256 94.4149 32.5183C89.2924 32.1011 83.2905 34.3585 79.3848 38.5238L77.9259 37.1558C82.2357 32.5594 88.829 30.0567 94.5773 30.5249C97.4667 30.7602 100.193 31.7518 102.295 33.666C104.407 35.5898 105.809 38.3753 106.159 42.0445L104.169 42.2345ZM79.3848 38.5238C75.1766 43.0119 72.7036 49.7122 73.3031 56.3069C73.8982 62.8535 77.5234 69.3431 85.6245 73.5003L84.7114 75.2797C75.9978 70.8082 71.9682 63.7137 71.3113 56.488C70.6588 49.3104 73.3368 42.05 77.9259 37.1558L79.3848 38.5238Z" fill="#0070F4"/>
</svg>
