<svg width="100" height="112" viewBox="0 0 100 112" fill="none" xmlns="http://www.w3.org/2000/svg">
<path d="M2.3339 8.62418C2.73425 3.75319 6.80435 0.00390625 11.6918 0.00390625H84.5315C89.419 0.00390625 93.4891 3.75319 93.8894 8.62418L95.9977 34.2753V200.937C95.9977 206.123 91.7939 210.327 86.6083 210.327H9.61501C4.42937 210.327 0.225586 206.123 0.225586 200.937V34.2753L2.3339 8.62418Z" fill="url(#paint0_linear_1405_40969)"/>
<path d="M46.2165 14.5334C43.5547 14.3419 41.2038 13.5295 39.6747 12.2713C38.802 11.5547 38.2729 10.7767 38.0347 9.85963C37.9256 9.44222 37.9256 8.75104 38.0365 8.32915C38.3693 7.0545 39.3693 5.93992 40.9456 5.08866C44.5402 3.14975 50.0474 3.15873 53.6093 5.1111C54.082 5.36992 54.3874 5.57638 54.8165 5.92347C55.3565 6.36181 55.7365 6.79867 56.1365 7.43899C56.1511 7.46292 56.2256 7.49284 56.3002 7.50481C56.5529 7.5482 56.8893 7.70977 57.1602 7.91773C57.3711 8.0793 57.5329 8.25584 57.9347 8.75553C58.3402 9.2597 60.1729 11.5876 60.2838 11.7402C60.3274 11.8 60.242 11.8943 60.1456 11.8943C60.0765 11.8943 60.0293 11.8569 59.9274 11.7252C59.8565 11.6325 59.3893 11.0355 58.8893 10.3982C57.1202 8.14513 57.0256 8.04041 56.5329 7.83694L56.2747 7.73072H55.5147C54.7547 7.73072 54.7547 7.73072 54.7365 7.79655C54.6365 8.1571 54.6165 8.24537 54.6384 8.26182C54.6529 8.2723 55.0838 8.47427 55.5965 8.71065L56.5293 9.14002L56.4711 9.24026C56.4384 9.29561 56.402 9.34049 56.3893 9.34049C56.3765 9.34049 55.5911 8.98293 54.6438 8.54458C53.6965 8.10773 52.8656 7.7367 52.7984 7.72174C52.5293 7.6604 52.1147 7.90576 52.1147 8.12718C52.1147 8.35159 52.1947 8.41592 53.8602 9.53797C54.8984 10.2381 55.4929 10.6585 55.5838 10.7573C55.7493 10.9383 55.9165 11.2046 56.0693 11.5322C56.3402 12.1097 56.7802 12.4314 57.502 12.581L57.7402 12.6304L57.7202 12.7366C57.7093 12.7949 57.6947 12.8488 57.6856 12.8563C57.6547 12.8847 57.1765 12.759 56.9002 12.6498C56.4674 12.4792 56.1693 12.2354 55.8765 11.8105C55.8747 11.8075 55.7038 11.8554 55.5002 11.9167C55.1365 12.0259 55.1184 12.0349 54.7747 12.3117C53.3074 13.4906 51.202 14.2431 48.662 14.4989C48.2456 14.5468 46.6565 14.5663 46.2165 14.5334ZM48.7456 14.1713C49.9111 14.0441 50.8165 13.8541 51.762 13.5355C52.7547 13.2004 53.6929 12.7201 54.3474 12.2085L54.6056 12.0065L53.9547 11.7507C53.2602 11.4769 53.1911 11.432 53.102 11.1881C53.0456 11.034 53.1093 10.8695 53.2874 10.7124L53.4256 10.5882L53.1238 10.3997C52.8856 10.2501 52.8111 10.1858 52.7638 10.087C52.6893 9.92695 52.7165 9.75341 52.8365 9.61427L52.9274 9.50805L51.9747 9.37041C51.4511 9.29411 50.962 9.21781 50.8893 9.19986C50.7456 9.16545 50.602 9.03081 50.5638 8.90065C50.5438 8.83033 51.0111 6.95426 51.1147 6.68646C51.162 6.56678 51.3602 6.42166 51.5111 6.39922C51.6693 6.37528 54.4765 6.78071 54.6165 6.84804C54.8384 6.95426 54.9074 7.12481 54.8384 7.38812L54.8093 7.49733H54.9638C55.0493 7.49733 55.2511 7.48836 55.4129 7.47788L55.7074 7.45843L55.562 7.23552C55.1238 6.56378 54.3256 5.88457 53.342 5.34598C52.882 5.09464 51.902 4.69669 51.3111 4.52314C50.4711 4.27629 49.4547 4.09078 48.4784 4.007C47.942 3.96062 46.5402 3.96212 46.0202 4.0085C44.7747 4.1192 43.6438 4.3511 42.6547 4.69818C40.3638 5.50157 38.8238 6.83308 38.4293 8.35009C38.3256 8.74655 38.3184 9.44073 38.4129 9.80128C38.622 10.5987 39.0765 11.2884 39.8165 11.9302C41.3256 13.2378 43.6311 14.0426 46.3947 14.2237C46.7656 14.2476 48.3693 14.2117 48.7456 14.1713ZM48.242 12.7441C48.1002 12.7096 47.9547 12.5705 47.9238 12.4374C47.9038 12.3506 47.9274 12.2907 48.0784 12.0499C48.6893 11.0774 48.9547 10.1828 48.9547 9.09813C48.9547 8.04938 48.7202 7.23253 48.1365 6.2541C48.0111 6.04465 47.9093 5.84866 47.9093 5.82024C47.9093 5.71551 48.0147 5.56441 48.1293 5.50606C48.2856 5.42527 48.5493 5.44024 48.6765 5.53748C48.7256 5.57488 48.8511 5.74543 48.9565 5.91599C49.3747 6.59071 49.6602 7.33127 49.802 8.10175C49.8893 8.57899 49.9074 9.48262 49.8365 9.91947C49.7074 10.7244 49.4493 11.444 49.0347 12.1471C48.7838 12.572 48.6274 12.747 48.4965 12.747C48.4711 12.747 48.4274 12.753 48.402 12.759C48.3765 12.765 48.3038 12.759 48.242 12.7441ZM46.542 12.0125C46.3238 11.9601 46.1656 11.7387 46.2293 11.5741C46.2438 11.5337 46.3474 11.3497 46.4584 11.1642C46.9256 10.3788 47.1202 9.53797 47.0256 8.71214C46.9474 8.03293 46.8002 7.60505 46.4274 6.97969C46.1784 6.5593 46.1656 6.49497 46.3111 6.32441C46.4493 6.16284 46.7947 6.1374 46.9747 6.27355C47.1002 6.3678 47.4911 7.03954 47.642 7.41954C48.1402 8.67624 48.0638 10.0272 47.4256 11.2614C47.0965 11.8943 46.8656 12.0903 46.542 12.0125ZM44.7893 11.2704C44.6547 11.2211 44.5384 11.1029 44.5056 10.9847C44.4856 10.9129 44.5202 10.8321 44.6802 10.5658C45.2693 9.58435 45.2747 8.64033 44.7002 7.68135C44.4474 7.26095 44.442 7.17717 44.6547 7.01111C44.7602 6.92883 44.8056 6.91536 44.9529 6.91536C45.202 6.91536 45.3311 7.01859 45.5529 7.3941C45.8947 7.97159 46.0347 8.47277 46.0329 9.11459C46.0311 9.77435 45.9002 10.2277 45.5365 10.8366C45.3274 11.1851 45.2238 11.2779 45.0147 11.3003C44.9511 11.3048 44.8493 11.2929 44.7893 11.2704ZM43.1529 10.5792C43.0456 10.5433 42.9238 10.4236 42.8874 10.3189C42.8474 10.2022 42.8802 10.1095 43.0402 9.89254C43.2474 9.61278 43.2947 9.46317 43.2947 9.09813C43.2947 8.73309 43.2474 8.58198 43.0402 8.30371C42.9693 8.20946 42.9002 8.09576 42.8838 8.05088C42.8165 7.86686 43.0038 7.64096 43.2547 7.60206C43.4674 7.56914 43.6129 7.64694 43.8093 7.89828C44.3747 8.62537 44.3747 9.59482 43.8093 10.3159C43.6093 10.5688 43.3874 10.6585 43.1529 10.5792ZM55.3402 11.7073C55.5293 11.6519 55.6929 11.5996 55.7038 11.5906C55.7147 11.5816 55.6784 11.4829 55.622 11.3692C55.5093 11.1373 55.5274 11.1433 55.1238 11.2061C54.6893 11.2749 54.4365 11.2136 53.9602 10.9248C53.8311 10.8455 53.6965 10.7812 53.6638 10.7812C53.6293 10.7812 53.5565 10.8216 53.4984 10.8725C53.3765 10.9802 53.3584 11.1477 53.4565 11.248C53.5438 11.3348 54.7384 11.803 54.8802 11.806C54.9438 11.8075 55.1493 11.7626 55.3402 11.7073ZM55.1511 10.9548C55.3274 10.9248 55.3474 10.9159 55.3165 10.868C55.282 10.8156 53.6293 9.68758 53.4856 9.61727C53.3674 9.56041 53.2711 9.57388 53.1729 9.66065C52.8856 9.91349 52.9202 9.96735 53.6638 10.4356C54.562 11.0026 54.6584 11.0355 55.1511 10.9548ZM52.9329 9.24474C52.9329 9.23726 52.7456 9.10411 52.5165 8.95002C51.9511 8.56702 51.8293 8.4234 51.8293 8.13915C51.8293 7.90277 52.022 7.67387 52.3311 7.54221C52.4838 7.47639 52.7584 7.45694 52.9129 7.49883C53.022 7.52875 53.5165 7.74867 54.2002 8.07182L54.3438 8.14064L54.462 7.67686C54.5838 7.20261 54.5856 7.07694 54.4729 7.04851C54.4384 7.03954 53.7784 6.94079 53.0074 6.82859C51.6365 6.62961 51.4856 6.61764 51.422 6.70292C51.3874 6.7478 50.8656 8.73758 50.8656 8.82136C50.8656 8.86325 50.8911 8.91561 50.9238 8.93805C50.9547 8.96049 51.4002 9.03978 51.9129 9.11459C52.902 9.2612 52.9329 9.26569 52.9329 9.24474Z" fill="#1D344F"/>
<path d="M0.704207 27.4701C1.10456 22.5991 4.93992 18.8498 9.82734 18.8498L85.9448 18.8477C90.8322 18.8477 94.6676 22.5969 95.0679 27.4679L95.7721 34.3512V202.814C95.7721 208 91.5683 212.204 86.3827 212.204H9.38942C4.20379 212.204 0 208 0 202.814V34.3512L0.704207 27.4701Z" fill="#FFB45E"/>
<path fill-rule="evenodd" clip-rule="evenodd" d="M17.0964 26.0579C17.0445 26.0724 16.9853 26.087 16.9187 26.1015C16.852 26.1161 16.7817 26.127 16.7095 26.1379C16.6354 26.1488 16.5613 26.1561 16.4854 26.1633C16.4095 26.1688 16.3373 26.1724 16.267 26.1724C16.1004 26.1724 15.9504 26.1488 15.8208 26.0997C15.6893 26.0524 15.5801 25.9834 15.4894 25.8943C15.3987 25.8052 15.3302 25.6962 15.2839 25.5689C15.2358 25.4417 15.2135 25.2981 15.2135 25.1399C15.2135 24.9781 15.2339 24.8327 15.2746 24.7036C15.3154 24.5746 15.3746 24.4637 15.4524 24.3728C15.5301 24.2819 15.6245 24.2128 15.7356 24.1656C15.8467 24.1183 15.9745 24.0929 16.1189 24.0929C16.1985 24.0929 16.2688 24.1001 16.3318 24.1147C16.3947 24.1292 16.4577 24.151 16.5225 24.1783V23.2767L17.0964 23.1858V26.0579ZM15.7986 25.1108C15.7986 25.2853 15.8375 25.4253 15.9189 25.5307C15.9985 25.6362 16.117 25.6889 16.2725 25.6889C16.3244 25.6889 16.3707 25.6871 16.4151 25.6834C16.4595 25.6798 16.4947 25.6762 16.5225 25.6707V24.6455C16.4873 24.6237 16.4391 24.6037 16.3818 24.5891C16.3244 24.5746 16.2651 24.5673 16.2059 24.5673C15.9356 24.5673 15.7986 24.7491 15.7986 25.1108ZM14.3305 24.1348C14.2175 24.0966 14.0768 24.0785 13.9065 24.0785C13.8615 24.0785 13.8165 24.0801 13.7721 24.0818C13.7507 24.0825 13.7294 24.0833 13.7084 24.0839C13.6436 24.0912 13.5788 24.0985 13.5214 24.1075C13.464 24.1166 13.4085 24.1275 13.3585 24.1384C13.343 24.1424 13.3281 24.146 13.3141 24.1494C13.2829 24.157 13.2556 24.1636 13.2326 24.1712L13.3066 24.6256C13.3751 24.6002 13.4585 24.5802 13.5529 24.5674C13.6473 24.5547 13.7436 24.5474 13.8417 24.5474C13.9879 24.5474 14.0898 24.5765 14.149 24.6347C14.2083 24.6929 14.2379 24.7692 14.2379 24.8656V24.9183C14.2009 24.9074 14.1546 24.9001 14.0972 24.8928C14.0398 24.8874 13.9731 24.8837 13.8991 24.8837C13.788 24.8837 13.6806 24.8947 13.5788 24.9165C13.4751 24.9383 13.3844 24.9728 13.3048 25.0201C13.2252 25.0673 13.1604 25.1328 13.1141 25.2128C13.0678 25.2927 13.0438 25.3909 13.0438 25.5072C13.0438 25.629 13.0641 25.7308 13.1048 25.8145C13.1456 25.8963 13.2048 25.9653 13.2826 26.0162C13.3603 26.0671 13.451 26.1053 13.5584 26.1271C13.6658 26.1507 13.7843 26.1616 13.9158 26.1616C14.1231 26.1616 14.3008 26.1489 14.4471 26.1253C14.5933 26.1017 14.7081 26.0817 14.7896 26.0635V24.891C14.7896 24.7674 14.7748 24.6565 14.747 24.5547C14.7192 24.4529 14.6711 24.3675 14.6026 24.2966C14.5341 24.2275 14.4434 24.173 14.3305 24.1348ZM14.1138 25.7254C14.0639 25.7272 14.0102 25.729 13.9528 25.729C13.8472 25.729 13.7639 25.7108 13.7028 25.6799C13.6417 25.6454 13.6121 25.5854 13.6121 25.4963C13.6121 25.4509 13.6232 25.4145 13.6436 25.3836C13.664 25.3527 13.6936 25.3291 13.7288 25.3109C13.7658 25.2927 13.8084 25.28 13.8546 25.2746C13.9009 25.2691 13.9528 25.2655 14.0065 25.2655C14.0453 25.2655 14.0879 25.2673 14.1342 25.2727C14.1805 25.2764 14.2157 25.2818 14.2379 25.2873V25.7145C14.2064 25.7199 14.1657 25.7236 14.1138 25.7254ZM11.2869 24.1213C11.1332 24.1468 11.0073 24.1722 10.9092 24.1995V26.1209H11.4831V24.5848C11.5201 24.5794 11.5609 24.5758 11.6053 24.5721C11.6516 24.5685 11.696 24.5667 11.7367 24.5667C11.8719 24.5667 11.9626 24.603 12.0107 24.6794C12.0607 24.7539 12.0848 24.883 12.0848 25.0647V26.1209H12.6587V24.9975C12.6587 24.8611 12.6439 24.7375 12.6161 24.6267C12.5884 24.5158 12.5402 24.4194 12.4736 24.3394C12.4069 24.2576 12.3162 24.1958 12.2014 24.1504C12.0867 24.1068 11.9441 24.0849 11.7719 24.0849C11.6034 24.0849 11.4405 24.0977 11.2869 24.1213ZM18.7887 24.1348C18.6757 24.0966 18.535 24.0785 18.3647 24.0785C18.3197 24.0785 18.2747 24.0801 18.2303 24.0818C18.2089 24.0825 18.1876 24.0833 18.1666 24.0839C18.1018 24.0912 18.037 24.0985 17.9796 24.1075C17.9222 24.1166 17.8667 24.1257 17.8167 24.1384C17.8012 24.1424 17.7864 24.146 17.7723 24.1494C17.7412 24.157 17.7138 24.1636 17.6908 24.1712L17.7649 24.6256C17.8334 24.6002 17.9167 24.582 18.0111 24.5674C18.1055 24.5547 18.2018 24.5474 18.2999 24.5474C18.4462 24.5474 18.548 24.5765 18.6072 24.6347C18.6665 24.6929 18.6961 24.7692 18.6961 24.8656V24.9183C18.6591 24.9074 18.6128 24.9001 18.5554 24.8928C18.498 24.8874 18.4314 24.8837 18.3573 24.8837C18.2462 24.8837 18.1388 24.8947 18.037 24.9165C17.9333 24.9383 17.8426 24.9728 17.763 25.0201C17.6834 25.0673 17.6204 25.1328 17.5723 25.2128C17.526 25.2927 17.502 25.3909 17.502 25.5072C17.502 25.629 17.5223 25.7308 17.5631 25.8145C17.6038 25.8963 17.663 25.9653 17.7408 26.0162C17.8185 26.0671 17.9093 26.1053 18.0166 26.1271C18.124 26.1507 18.2425 26.1616 18.374 26.1616C18.5813 26.1616 18.759 26.1489 18.9053 26.1253C19.0516 26.1017 19.1663 26.0817 19.2478 26.0635V24.891C19.2478 24.7674 19.233 24.6565 19.2052 24.5547C19.1774 24.4529 19.1293 24.3675 19.0608 24.2966C18.9923 24.2275 18.9016 24.173 18.7887 24.1348ZM18.5721 25.7254C18.5221 25.7272 18.4684 25.729 18.411 25.729C18.3055 25.729 18.2221 25.7108 18.1611 25.6799C18.0999 25.6454 18.0703 25.5854 18.0703 25.4963C18.0703 25.4509 18.0814 25.4145 18.1018 25.3836C18.1222 25.3527 18.1518 25.3291 18.187 25.3109C18.224 25.2927 18.2666 25.28 18.3129 25.2746C18.3591 25.2691 18.411 25.2655 18.4647 25.2655C18.5035 25.2655 18.5461 25.2673 18.5924 25.2727C18.6387 25.2764 18.6739 25.2818 18.6961 25.2873V25.7145C18.6646 25.7199 18.6239 25.7236 18.5721 25.7254ZM21.6509 25.128C21.6509 25.2825 21.6324 25.4225 21.5935 25.5479C21.5546 25.6733 21.4991 25.7824 21.4232 25.8733C21.3491 25.9642 21.2565 26.0351 21.1455 26.0859C21.0344 26.1368 20.9085 26.1623 20.7641 26.1623C20.6845 26.1623 20.6104 26.155 20.5401 26.1387C20.4697 26.1223 20.4031 26.1023 20.3401 26.075V26.8222H19.7662V24.2009C19.818 24.1864 19.8773 24.1718 19.9439 24.1573C20.0106 24.1427 20.0809 24.1318 20.1531 24.1209C20.2272 24.1118 20.3012 24.1027 20.3771 24.0973C20.453 24.0918 20.5252 24.0882 20.5956 24.0882C20.7622 24.0882 20.9122 24.1136 21.0418 24.1627C21.1732 24.2118 21.2825 24.2809 21.3732 24.3718C21.4639 24.4608 21.5324 24.5699 21.5787 24.699C21.6268 24.8244 21.6509 24.968 21.6509 25.128ZM21.0658 25.1425C21.0658 24.968 21.0251 24.8299 20.9455 24.7244C20.8659 24.619 20.7474 24.5681 20.5919 24.5681C20.5401 24.5681 20.4938 24.5699 20.4493 24.5735C20.4049 24.5772 20.3697 24.5808 20.342 24.5863V25.6042C20.3771 25.6279 20.4253 25.646 20.4827 25.6606C20.5401 25.6751 20.5993 25.6842 20.6585 25.6842C20.9288 25.6842 21.0658 25.5024 21.0658 25.1425ZM23.2466 24.1348C23.1337 24.0966 22.993 24.0785 22.8227 24.0785C22.7777 24.0785 22.7327 24.0801 22.6882 24.0818C22.6669 24.0825 22.6456 24.0833 22.6246 24.0839C22.5598 24.0912 22.495 24.0985 22.4376 24.1075C22.3802 24.1166 22.3247 24.1275 22.2747 24.1384C22.2591 24.1424 22.2443 24.146 22.2302 24.1494C22.1991 24.157 22.1717 24.1637 22.1488 24.1712L22.2228 24.6256C22.2913 24.6002 22.3746 24.582 22.4691 24.5674C22.5635 24.5547 22.6597 24.5474 22.7579 24.5474C22.9041 24.5474 23.006 24.5765 23.0652 24.6347C23.1245 24.6929 23.1541 24.7692 23.1541 24.8656V24.9183C23.117 24.9074 23.0708 24.9001 23.0134 24.8928C22.956 24.8874 22.8893 24.8837 22.8153 24.8837C22.7042 24.8837 22.5968 24.8947 22.495 24.9165C22.3913 24.9383 22.3006 24.9728 22.221 25.0201C22.1414 25.0673 22.0766 25.1328 22.0303 25.2128C21.984 25.2927 21.9599 25.3909 21.9599 25.5072C21.9599 25.629 21.9803 25.7308 22.021 25.8145C22.0618 25.8963 22.121 25.9653 22.1988 26.0162C22.2765 26.0671 22.3672 26.1053 22.4746 26.1271C22.582 26.1507 22.7005 26.1616 22.8319 26.1616C23.0393 26.1616 23.2171 26.1489 23.3633 26.1253C23.5096 26.1017 23.6243 26.0817 23.7058 26.0635V24.891C23.7058 24.7674 23.6909 24.6565 23.6632 24.5547C23.6355 24.4529 23.5873 24.3675 23.5188 24.2966C23.4503 24.2275 23.3595 24.173 23.2466 24.1348ZM23.03 25.7254C22.98 25.7272 22.9264 25.729 22.869 25.729C22.7634 25.729 22.6801 25.7108 22.619 25.6799C22.5579 25.6454 22.5283 25.5854 22.5283 25.4963C22.5283 25.4509 22.5394 25.4145 22.5598 25.3836C22.5801 25.3527 22.6098 25.3291 22.6449 25.3109C22.682 25.2927 22.7245 25.28 22.7708 25.2746C22.8171 25.2691 22.869 25.2655 22.9226 25.2655C22.9615 25.2655 23.0041 25.2673 23.0504 25.2727C23.0967 25.2764 23.1319 25.2818 23.1541 25.2873V25.7145C23.1226 25.7199 23.0819 25.7236 23.03 25.7254ZM25.9775 24.1308C25.8609 24.5143 25.7405 24.8743 25.6146 25.2087C25.4887 25.5432 25.3517 25.8704 25.2017 26.1849C25.1481 26.2976 25.0944 26.3958 25.0389 26.4739C24.9852 26.5539 24.9259 26.6193 24.8611 26.6702C24.7963 26.7211 24.7241 26.7593 24.6427 26.7829C24.5612 26.8066 24.4668 26.8193 24.3594 26.8193C24.2687 26.8193 24.1872 26.812 24.1113 26.7939C24.0355 26.7775 23.9725 26.7593 23.9243 26.7393L24.0243 26.2885C24.0836 26.3085 24.1353 26.323 24.1817 26.3303C24.228 26.3376 24.2761 26.3412 24.328 26.3412C24.4317 26.3412 24.5093 26.314 24.5649 26.2594C24.6205 26.2049 24.6668 26.1304 24.7057 26.034C24.5741 25.7813 24.4427 25.4978 24.3131 25.1851C24.1817 24.8706 24.0595 24.518 23.9428 24.1271H24.5519C24.5779 24.2253 24.6075 24.3326 24.6427 24.4471C24.6778 24.5616 24.7149 24.6779 24.7538 24.7943C24.7927 24.9124 24.8315 25.0251 24.8723 25.136L24.8846 25.1696C24.9205 25.2675 24.9538 25.358 24.987 25.4396C25.0204 25.3487 25.0555 25.2487 25.0907 25.136C25.1277 25.0251 25.1628 24.9106 25.1962 24.7943C25.2314 24.6761 25.2647 24.5616 25.2962 24.4471L25.3126 24.3874C25.3379 24.2953 25.3619 24.2079 25.3832 24.1271H25.9775V24.1308ZM27.3235 24.6794C27.3716 24.7539 27.3956 24.883 27.3956 25.0647H27.3975V26.1172H27.9715V25.032C27.9715 24.9593 27.9695 24.8902 27.964 24.8266C27.9585 24.763 27.9473 24.7012 27.9289 24.643C27.964 24.6212 28.0102 24.6012 28.0658 24.5867C28.1214 24.5721 28.164 24.5649 28.1954 24.5649C28.3102 24.5649 28.3917 24.6012 28.4398 24.6775C28.4879 24.7521 28.512 24.8811 28.512 25.0629V26.1191H29.086V24.9957C29.086 24.8593 29.073 24.7357 29.0507 24.6248C29.0267 24.5139 28.9841 24.4176 28.923 24.3376C28.8619 24.2576 28.7786 24.194 28.6749 24.1504C28.5712 24.1068 28.438 24.0849 28.2769 24.0849C28.188 24.0849 28.0899 24.1013 27.9825 24.134C27.8752 24.1667 27.7807 24.2122 27.6993 24.2704C27.6401 24.2195 27.5641 24.1758 27.4734 24.1395C27.3808 24.1031 27.2624 24.0849 27.1161 24.0849C27.0402 24.0849 26.9662 24.0886 26.8884 24.094C26.8106 24.1013 26.7348 24.1104 26.6625 24.1213C26.5904 24.1322 26.5199 24.1449 26.4551 24.1595C26.3885 24.174 26.3311 24.1867 26.283 24.1995V26.1209H26.8569V24.5848C26.8921 24.5794 26.9291 24.5758 26.968 24.5721C27.005 24.5685 27.0439 24.5667 27.0791 24.5667C27.1938 24.5667 27.2753 24.6048 27.3235 24.6794ZM29.5079 25.1433C29.5079 24.967 29.5357 24.8125 29.5912 24.6798C29.6468 24.5471 29.719 24.438 29.8098 24.3489C29.9004 24.2598 30.0023 24.1944 30.1189 24.149C30.2355 24.1035 30.3559 24.0817 30.48 24.0817C30.7668 24.0817 30.9946 24.169 31.1612 24.3416C31.3278 24.5143 31.4111 24.7688 31.4111 25.1033C31.4111 25.1343 31.4095 25.1687 31.4077 25.2047L31.4075 25.2106C31.4063 25.2354 31.4045 25.2581 31.4028 25.2787C31.4018 25.2913 31.4008 25.3031 31.4001 25.3142H30.0985C30.1115 25.4305 30.1671 25.5214 30.2633 25.5905C30.3614 25.6577 30.4928 25.6923 30.6558 25.6923C30.7613 25.6923 30.865 25.6832 30.9668 25.6632C31.0687 25.645 31.1502 25.6214 31.2149 25.5923L31.2926 26.0504C31.2612 26.0649 31.2205 26.0813 31.1686 26.0958C31.1168 26.1104 31.0594 26.1249 30.9964 26.1358C30.9335 26.1467 30.8668 26.1558 30.7947 26.1649C30.7224 26.1722 30.6503 26.1758 30.5798 26.1758C30.3966 26.1758 30.2392 26.1485 30.1041 26.0958C29.9689 26.0431 29.8579 25.9704 29.769 25.8777C29.6801 25.785 29.6153 25.6759 29.5727 25.5505C29.5283 25.4251 29.5079 25.2887 29.5079 25.1433ZM30.8558 24.927C30.8538 24.8797 30.8446 24.8325 30.8298 24.787C30.8151 24.7416 30.7947 24.7016 30.765 24.6652C30.7354 24.6307 30.6984 24.6016 30.654 24.578C30.6095 24.5561 30.5521 24.5434 30.4855 24.5434C30.4207 24.5434 30.367 24.5543 30.3189 24.5761C30.2726 24.598 30.2337 24.6252 30.204 24.6616C30.1726 24.6961 30.1504 24.7379 30.1337 24.7852C30.117 24.8325 30.1041 24.8797 30.0966 24.927H30.8558ZM32.2315 24.1213C32.0778 24.1468 31.9519 24.1722 31.8539 24.1995H31.852V26.1191H32.4259V24.583C32.4629 24.5776 32.5037 24.5739 32.5499 24.5703C32.5962 24.5667 32.6406 24.5649 32.6814 24.5649C32.8147 24.5649 32.9072 24.6012 32.9553 24.6775C33.0054 24.7521 33.0295 24.8811 33.0295 25.0629V26.1191H33.6033V24.9957C33.6033 24.8593 33.5886 24.7357 33.5608 24.6248C33.533 24.5139 33.4849 24.4176 33.4183 24.3376C33.3515 24.2576 33.2609 24.194 33.146 24.1504C33.0313 24.1068 32.8887 24.0849 32.7166 24.0849C32.5481 24.0849 32.3852 24.0977 32.2315 24.1213ZM34.105 23.637L34.679 23.5461V24.1314H35.3696V24.6004H34.679V25.3003C34.679 25.4184 34.6994 25.513 34.742 25.5839C34.7846 25.6547 34.8697 25.6893 34.9974 25.6893C35.0586 25.6893 35.1233 25.6838 35.1881 25.6729C35.2529 25.662 35.314 25.6457 35.3678 25.6257L35.4492 26.0637C35.3788 26.091 35.303 26.1146 35.2178 26.1365C35.1325 26.1583 35.029 26.1674 34.9049 26.1674C34.7475 26.1674 34.6179 26.1474 34.5161 26.1056C34.4124 26.0637 34.3309 26.0056 34.2698 25.9311C34.2087 25.8565 34.1643 25.7656 34.1403 25.6602C34.1162 25.5548 34.1032 25.4366 34.1032 25.3075V23.637H34.105ZM36.6396 25.6858C36.5951 25.7058 36.5212 25.7167 36.4156 25.7167C36.3156 25.7167 36.2138 25.7058 36.1101 25.6785C36.0083 25.6567 35.9084 25.6276 35.8102 25.5894L35.7139 26.0475C35.7602 26.0693 35.8416 26.093 35.962 26.1239C36.0805 26.1548 36.2305 26.1693 36.4101 26.1693C36.6841 26.1693 36.897 26.1184 37.0469 26.0184C37.1969 25.9184 37.2728 25.7694 37.2728 25.5731C37.2728 25.4913 37.2617 25.4186 37.2431 25.3549C37.2246 25.2913 37.1913 25.2331 37.1432 25.1822C37.095 25.1313 37.0302 25.0823 36.9488 25.0386C36.8654 24.9932 36.7618 24.9477 36.6359 24.9023C36.5748 24.8787 36.5248 24.8587 36.4841 24.8387C36.4434 24.8205 36.4119 24.8023 36.3897 24.786C36.3656 24.7696 36.3508 24.7532 36.3434 24.7351C36.336 24.7187 36.3323 24.6969 36.3323 24.6751C36.3323 24.5769 36.423 24.5278 36.6026 24.5278C36.7007 24.5278 36.7896 24.5369 36.8673 24.5551C36.9469 24.5715 37.0192 24.5915 37.0858 24.6151L37.1858 24.177C37.1191 24.1534 37.0284 24.1297 36.9155 24.1079C36.8025 24.0861 36.6859 24.0752 36.5619 24.0752C36.3156 24.0752 36.1213 24.1279 35.9805 24.237C35.8398 24.3461 35.7695 24.4933 35.7695 24.6805C35.7695 24.7769 35.7843 24.8587 35.8121 24.9259C35.8398 24.995 35.8787 25.0532 35.9306 25.1023C35.9824 25.1513 36.0435 25.195 36.1176 25.2295C36.1897 25.264 36.2712 25.2986 36.3619 25.3313C36.4767 25.3749 36.5619 25.4131 36.6192 25.4476C36.6766 25.4822 36.7045 25.5222 36.7045 25.5676C36.7045 25.6258 36.6841 25.6658 36.6396 25.6858Z" fill="#1D344F"/>
<path d="M99.9974 196.714V100.003C99.9974 97.4105 97.8956 95.3086 95.3027 95.3086V201.409C97.8956 201.409 99.9974 199.307 99.9974 196.714Z" fill="url(#paint1_linear_1405_40969)"/>
<path fill-rule="evenodd" clip-rule="evenodd" d="M98.3543 100.473C98.3543 98.3602 97.4154 97.1865 95.3027 96.9517V95.3086C98.1089 95.3086 100.232 97.6559 99.9797 100.473H98.3543Z" fill="#F4F4F4"/>
<path d="M99.9975 196.712V100.235C99.9975 98.1081 99.0585 96.4795 97.1807 95.6836V201.031C98.8238 200.233 99.9975 199.059 99.9975 196.712Z" fill="url(#paint2_linear_1405_40969)"/>
<path d="M0 38.9686C0 34.8201 3.36303 31.457 7.51154 31.457H88.2606C92.4091 31.457 95.7721 34.8201 95.7721 38.9686V204.692C95.7721 208.84 92.4091 212.203 88.2606 212.203H7.51154C3.36303 212.203 0 208.84 0 204.692V38.9686Z" fill="#FFCB8F"/>
<path d="M3.75586 42.2547C3.75586 39.1434 6.27813 36.6211 9.38951 36.6211H86.3828C89.4942 36.6211 92.0164 39.1434 92.0164 42.2547V201.875C92.0164 204.986 89.4942 207.509 86.3828 207.509H9.38951C6.27813 207.509 3.75586 204.986 3.75586 201.875V42.2547Z" fill="black"/>
<path d="M7.98145 51.6464C7.98145 49.5721 9.66296 47.8906 11.7372 47.8906H84.0358C86.11 47.8906 87.7916 49.5721 87.7916 51.6464V192.488C87.7916 194.562 86.11 196.243 84.0358 196.243H11.7372C9.66296 196.243 7.98145 194.562 7.98145 192.488V51.6464Z" fill="#D9D9D9" fill-opacity="0.2"/>
<path fill-rule="evenodd" clip-rule="evenodd" d="M69.8335 26.7639C69.6391 26.7639 69.4814 26.9741 69.4814 27.2334V31.9281C69.4814 32.1874 69.6391 32.3976 69.8335 32.3976H70.5378C70.7322 32.3976 70.8899 32.1874 70.8899 31.9281V27.2334C70.8899 26.9741 70.7322 26.7639 70.5378 26.7639H69.8335ZM73.5893 26.7639C73.3949 26.7639 73.2372 26.9741 73.2372 27.2334V31.9281C73.2372 32.1874 73.3949 32.3976 73.5893 32.3976H74.2935C74.488 32.3976 74.6456 32.1874 74.6456 31.9281V27.2334C74.6456 26.9741 74.488 26.7639 74.2935 26.7639H73.5893ZM76.993 27.2334C76.993 26.9741 77.1506 26.7639 77.3451 26.7639H78.0493C78.2438 26.7639 78.4014 26.9741 78.4014 27.2334V31.9281C78.4014 32.1874 78.2438 32.3976 78.0493 32.3976H77.3451C77.1506 32.3976 76.993 32.1874 76.993 31.9281V27.2334ZM81.1009 26.7639C80.9064 26.7639 80.7488 26.9741 80.7488 27.2334V31.9281C80.7488 32.1874 80.9064 32.3976 81.1009 32.3976H81.8051C81.9995 32.3976 82.1572 32.1874 82.1572 31.9281V27.2334C82.1572 26.9741 81.9995 26.7639 81.8051 26.7639H81.1009Z" fill="url(#paint3_linear_1405_40969)"/>
<g clip-path="url(#clip0_1405_40969)">
<rect x="7.3125" y="47" width="80.0576" height="149.023" rx="2.38876" fill="white"/>
<rect width="80" height="14" transform="translate(7.3125 47)" fill="#F89D33"/>
<path d="M13.1005 51.8C13.6645 51.8 14.0925 51.944 14.3845 52.232C14.6805 52.516 14.8285 52.94 14.8285 53.504V54.296C14.8285 54.86 14.6805 55.286 14.3845 55.574C14.0925 55.858 13.6645 56 13.1005 56H11.6605V51.8H13.1005ZM13.1125 55.28C13.7285 55.28 14.0365 54.96 14.0365 54.32V53.48C14.0365 52.84 13.7285 52.52 13.1125 52.52H12.4525V55.28H13.1125ZM15.1058 54.512C15.1058 54.2 15.1678 53.926 15.2918 53.69C15.4198 53.45 15.5958 53.266 15.8198 53.138C16.0478 53.006 16.3078 52.94 16.5998 52.94C16.8878 52.94 17.1398 53.004 17.3558 53.132C17.5758 53.26 17.7458 53.442 17.8658 53.678C17.9858 53.91 18.0458 54.176 18.0458 54.476V54.734H15.8798C15.8878 54.938 15.9618 55.106 16.1018 55.238C16.2458 55.37 16.4238 55.436 16.6358 55.436C16.8278 55.436 16.9758 55.394 17.0798 55.31C17.1878 55.226 17.2718 55.116 17.3318 54.98L17.9498 55.304C17.6738 55.824 17.2278 56.084 16.6118 56.084C16.3198 56.084 16.0598 56.02 15.8318 55.892C15.6038 55.76 15.4258 55.576 15.2978 55.34C15.1698 55.1 15.1058 54.824 15.1058 54.512ZM17.2778 54.17C17.2578 53.998 17.1858 53.858 17.0618 53.75C16.9418 53.642 16.7858 53.588 16.5938 53.588C16.3978 53.588 16.2358 53.642 16.1078 53.75C15.9838 53.858 15.9098 53.998 15.8858 54.17H17.2778ZM19.2103 53.408H19.2703C19.4903 53.096 19.8143 52.94 20.2423 52.94C20.4823 52.94 20.7043 53.004 20.9083 53.132C21.1123 53.26 21.2763 53.444 21.4003 53.684C21.5243 53.924 21.5863 54.2 21.5863 54.512C21.5863 54.824 21.5243 55.1 21.4003 55.34C21.2763 55.58 21.1123 55.764 20.9083 55.892C20.7043 56.02 20.4823 56.084 20.2423 56.084C19.8143 56.084 19.4863 55.922 19.2583 55.598H19.1983V56H18.4543V51.8H19.2103V53.408ZM20.0143 53.588C19.7743 53.588 19.5783 53.67 19.4263 53.834C19.2743 53.998 19.1983 54.224 19.1983 54.512C19.1983 54.8 19.2743 55.026 19.4263 55.19C19.5783 55.354 19.7743 55.436 20.0143 55.436C20.2543 55.436 20.4503 55.354 20.6023 55.19C20.7543 55.026 20.8303 54.8 20.8303 54.512C20.8303 54.224 20.7543 53.998 20.6023 53.834C20.4503 53.67 20.2543 53.588 20.0143 53.588ZM22.7714 56H22.0154V53.024H22.7714V56ZM21.8594 52.16C21.8594 52.008 21.9094 51.884 22.0094 51.788C22.1134 51.692 22.2414 51.644 22.3934 51.644C22.5454 51.644 22.6714 51.692 22.7714 51.788C22.8754 51.884 22.9274 52.008 22.9274 52.16C22.9274 52.312 22.8754 52.436 22.7714 52.532C22.6714 52.628 22.5454 52.676 22.3934 52.676C22.2414 52.676 22.1134 52.628 22.0094 52.532C21.9094 52.436 21.8594 52.312 21.8594 52.16ZM23.8171 53.024V52.1H24.5731V53.024H25.3891V53.636H24.5731V55.208C24.5731 55.328 24.6291 55.388 24.7411 55.388H25.3171V56H24.4771C24.2771 56 24.1171 55.94 23.9971 55.82C23.8771 55.696 23.8171 55.532 23.8171 55.328V53.636H23.0731V53.024H23.8171ZM27.3421 53.858C27.3421 53.57 27.4481 53.346 27.6601 53.186C27.8721 53.022 28.1581 52.94 28.5181 52.94C28.8421 52.94 29.1121 53.014 29.3281 53.162C29.5441 53.306 29.6901 53.502 29.7661 53.75L29.0821 53.96C29.0181 53.664 28.8301 53.516 28.5181 53.516C28.3741 53.516 28.2641 53.542 28.1881 53.594C28.1121 53.646 28.0741 53.718 28.0741 53.81C28.0741 53.906 28.1121 53.98 28.1881 54.032C28.2681 54.08 28.3901 54.12 28.5541 54.152L28.7101 54.182C28.9701 54.234 29.1821 54.292 29.3461 54.356C29.5101 54.42 29.6401 54.512 29.7361 54.632C29.8361 54.752 29.8861 54.91 29.8861 55.106C29.8861 55.414 29.7741 55.654 29.5501 55.826C29.3261 55.998 29.0221 56.084 28.6381 56.084C28.2461 56.084 27.9261 56 27.6781 55.832C27.4341 55.664 27.2861 55.424 27.2341 55.112L27.9301 54.932C27.9981 55.316 28.2341 55.508 28.6381 55.508C28.8061 55.508 28.9341 55.476 29.0221 55.412C29.1101 55.348 29.1541 55.266 29.1541 55.166C29.1541 55.074 29.1121 55.002 29.0281 54.95C28.9441 54.894 28.8061 54.848 28.6141 54.812L28.4581 54.782C28.1021 54.714 27.8261 54.612 27.6301 54.476C27.4381 54.336 27.3421 54.13 27.3421 53.858ZM30.3116 53.78C30.3916 53.532 30.5396 53.33 30.7556 53.174C30.9756 53.018 31.2676 52.94 31.6316 52.94C32.0276 52.94 32.3376 53.04 32.5616 53.24C32.7896 53.436 32.9036 53.718 32.9036 54.086V56H32.1836V55.652H32.0996C32.0556 55.756 31.9696 55.854 31.8416 55.946C31.7176 56.038 31.5356 56.084 31.2956 56.084C30.9796 56.084 30.7176 56 30.5096 55.832C30.3056 55.66 30.2036 55.426 30.2036 55.13C30.2036 54.834 30.3076 54.606 30.5156 54.446C30.7276 54.282 31.0076 54.2 31.3556 54.2H32.1716V54.032C32.1716 53.884 32.1256 53.766 32.0336 53.678C31.9416 53.586 31.8036 53.54 31.6196 53.54C31.4396 53.54 31.2996 53.584 31.1996 53.672C31.0996 53.756 31.0356 53.87 31.0076 54.014L30.3116 53.78ZM30.9596 55.112C30.9596 55.22 31.0016 55.308 31.0856 55.376C31.1736 55.44 31.2956 55.472 31.4516 55.472C31.6636 55.472 31.8356 55.412 31.9676 55.292C32.1036 55.168 32.1716 55.008 32.1716 54.812V54.764H31.4096C31.2696 54.764 31.1596 54.796 31.0796 54.86C30.9996 54.924 30.9596 55.008 30.9596 55.112ZM34.237 56H33.481V51.8H34.237V56ZM34.6707 54.512C34.6707 54.2 34.7327 53.926 34.8567 53.69C34.9847 53.45 35.1607 53.266 35.3847 53.138C35.6127 53.006 35.8727 52.94 36.1647 52.94C36.4527 52.94 36.7047 53.004 36.9207 53.132C37.1407 53.26 37.3107 53.442 37.4307 53.678C37.5507 53.91 37.6107 54.176 37.6107 54.476V54.734H35.4447C35.4527 54.938 35.5267 55.106 35.6667 55.238C35.8107 55.37 35.9887 55.436 36.2007 55.436C36.3927 55.436 36.5407 55.394 36.6447 55.31C36.7527 55.226 36.8367 55.116 36.8967 54.98L37.5147 55.304C37.2387 55.824 36.7927 56.084 36.1767 56.084C35.8847 56.084 35.6247 56.02 35.3967 55.892C35.1687 55.76 34.9907 55.576 34.8627 55.34C34.7347 55.1 34.6707 54.824 34.6707 54.512ZM36.8427 54.17C36.8227 53.998 36.7507 53.858 36.6267 53.75C36.5067 53.642 36.3507 53.588 36.1587 53.588C35.9627 53.588 35.8007 53.642 35.6727 53.75C35.5487 53.858 35.4747 53.998 35.4507 54.17H36.8427Z" fill="white"/>
<path d="M12.9285 69.2L13.7125 72H13.1725L13.0045 71.376H12.0285L11.8605 72H11.3205L12.1045 69.2H12.9285ZM12.8765 70.896L12.5365 69.632H12.4965L12.1565 70.896H12.8765ZM14.3988 70.264H14.4388C14.4814 70.1787 14.5454 70.1107 14.6308 70.06C14.7161 70.0093 14.8254 69.984 14.9588 69.984C15.2201 69.984 15.4014 70.088 15.5028 70.296H15.5428C15.5988 70.2 15.6694 70.124 15.7548 70.068C15.8428 70.012 15.9614 69.984 16.1108 69.984C16.3054 69.984 16.4641 70.0453 16.5868 70.168C16.7121 70.2907 16.7748 70.4667 16.7748 70.696V72H16.2708V70.72C16.2708 70.6133 16.2428 70.532 16.1868 70.476C16.1308 70.42 16.0521 70.392 15.9508 70.392C15.8361 70.392 15.7468 70.4293 15.6828 70.504C15.6214 70.576 15.5908 70.68 15.5908 70.816V72H15.0868V70.72C15.0868 70.6133 15.0588 70.532 15.0028 70.476C14.9468 70.42 14.8681 70.392 14.7668 70.392C14.6521 70.392 14.5628 70.4293 14.4988 70.504C14.4374 70.576 14.4068 70.68 14.4068 70.816V72H13.9028V70.016H14.3988V70.264ZM17.0396 71.008C17.0396 70.7973 17.085 70.6133 17.1756 70.456C17.2663 70.296 17.3903 70.1733 17.5476 70.088C17.705 70.0027 17.8823 69.96 18.0796 69.96C18.277 69.96 18.4543 70.0027 18.6116 70.088C18.769 70.1733 18.893 70.296 18.9836 70.456C19.0743 70.6133 19.1196 70.7973 19.1196 71.008C19.1196 71.2187 19.0743 71.404 18.9836 71.564C18.893 71.7213 18.769 71.8427 18.6116 71.928C18.4543 72.0133 18.277 72.056 18.0796 72.056C17.8823 72.056 17.705 72.0133 17.5476 71.928C17.3903 71.8427 17.2663 71.7213 17.1756 71.564C17.085 71.404 17.0396 71.2187 17.0396 71.008ZM17.5436 71.008C17.5436 71.1973 17.593 71.3467 17.6916 71.456C17.7903 71.5627 17.9196 71.616 18.0796 71.616C18.2396 71.616 18.369 71.5627 18.4676 71.456C18.5663 71.3467 18.6156 71.1973 18.6156 71.008C18.6156 70.8187 18.5663 70.6707 18.4676 70.564C18.369 70.4547 18.2396 70.4 18.0796 70.4C17.9196 70.4 17.7903 70.4547 17.6916 70.564C17.593 70.6707 17.5436 70.8187 17.5436 71.008ZM20.8407 71.704H20.8007C20.6967 71.9227 20.4927 72.032 20.1887 72.032C20.0367 72.032 19.902 71.9973 19.7847 71.928C19.6674 71.856 19.5767 71.7573 19.5127 71.632C19.4487 71.5067 19.4167 71.3627 19.4167 71.2V70.016H19.9207V71.176C19.9207 71.3253 19.9567 71.4373 20.0287 71.512C20.1007 71.5867 20.206 71.624 20.3447 71.624C20.4994 71.624 20.6194 71.5733 20.7047 71.472C20.79 71.368 20.8327 71.224 20.8327 71.04V70.016H21.3367V72H20.8407V71.704ZM22.2397 70.312H22.2797C22.3837 70.0933 22.5877 69.984 22.8917 69.984C23.0437 69.984 23.1784 70.02 23.2957 70.092C23.413 70.1613 23.5037 70.2587 23.5677 70.384C23.6317 70.5093 23.6637 70.6533 23.6637 70.816V72H23.1597V70.84C23.1597 70.6907 23.1237 70.5787 23.0517 70.504C22.9797 70.4293 22.8744 70.392 22.7357 70.392C22.581 70.392 22.461 70.444 22.3757 70.548C22.2904 70.6493 22.2477 70.792 22.2477 70.976V72H21.7437V70.016H22.2397V70.312ZM24.2964 70.016V69.4H24.8004V70.016H25.3444V70.424H24.8004V71.472C24.8004 71.552 24.8377 71.592 24.9124 71.592H25.2964V72H24.7364C24.603 72 24.4964 71.96 24.4164 71.88C24.3364 71.7973 24.2964 71.688 24.2964 71.552V70.424H23.8004V70.016H24.2964Z" fill="black"/>
<path d="M72.0663 70.356C72.3357 70.42 72.5357 70.5147 72.6663 70.64C72.7997 70.7627 72.8663 70.9333 72.8663 71.152V71.192C72.8663 71.424 72.793 71.6133 72.6463 71.76C72.5023 71.9067 72.309 71.9987 72.0663 72.036V72.464H71.5863V72.04C71.3063 72.0027 71.0863 71.8973 70.9263 71.724C70.769 71.548 70.6903 71.3173 70.6903 71.032V70.944H71.2183V71.008C71.2183 71.1413 71.249 71.2533 71.3103 71.344C71.3717 71.432 71.4637 71.4933 71.5863 71.528V70.768C71.3197 70.704 71.121 70.6107 70.9903 70.488C70.8597 70.3627 70.7943 70.1893 70.7943 69.968V69.944C70.7943 69.7307 70.8677 69.5547 71.0143 69.416C71.161 69.2747 71.3517 69.188 71.5863 69.156V68.736H72.0663V69.172C72.2983 69.2173 72.4823 69.316 72.6183 69.468C72.757 69.6173 72.8263 69.8053 72.8263 70.032V70.152H72.2983V70.072C72.2983 69.8827 72.221 69.7547 72.0663 69.688V70.356ZM71.3303 69.952C71.3303 70.0293 71.3517 70.0907 71.3943 70.136C71.437 70.1813 71.501 70.2187 71.5863 70.248V69.664C71.5063 69.688 71.4437 69.7253 71.3983 69.776C71.353 69.8267 71.3303 69.8853 71.3303 69.952ZM72.0663 71.528C72.1517 71.4987 72.217 71.4547 72.2623 71.396C72.3077 71.3347 72.3303 71.2667 72.3303 71.192C72.3303 71.1147 72.3077 71.052 72.2623 71.004C72.2197 70.956 72.1543 70.916 72.0663 70.884V71.528ZM75.0097 69.68H73.6337V70.408H73.6817C73.7404 70.3253 73.8137 70.256 73.9017 70.2C73.9924 70.1413 74.1204 70.112 74.2857 70.112C74.4324 70.112 74.5684 70.148 74.6937 70.22C74.8217 70.292 74.9231 70.396 74.9977 70.532C75.0751 70.6653 75.1137 70.8227 75.1137 71.004C75.1137 71.212 75.0697 71.396 74.9817 71.556C74.8964 71.7133 74.7751 71.836 74.6177 71.924C74.4604 72.012 74.2791 72.056 74.0737 72.056C73.8657 72.056 73.6804 72.016 73.5177 71.936C73.3577 71.856 73.2324 71.7427 73.1417 71.596C73.0537 71.4467 73.0097 71.2747 73.0097 71.08V71.008H73.5377V71.048C73.5377 71.2107 73.5831 71.3413 73.6737 71.44C73.7644 71.536 73.8924 71.584 74.0577 71.584C74.2204 71.584 74.3484 71.5347 74.4417 71.436C74.5377 71.3347 74.5857 71.1987 74.5857 71.028C74.5857 70.884 74.5444 70.7707 74.4617 70.688C74.3817 70.6027 74.2777 70.56 74.1497 70.56C74.0564 70.56 73.9804 70.5787 73.9217 70.616C73.8657 70.6533 73.8244 70.6987 73.7977 70.752H73.1057V69.2H75.0097V69.68ZM75.2752 70.272C75.2752 70.0373 75.3192 69.836 75.4072 69.668C75.4978 69.4973 75.6232 69.368 75.7832 69.28C75.9458 69.1893 76.1338 69.144 76.3472 69.144C76.5605 69.144 76.7472 69.1893 76.9072 69.28C77.0698 69.368 77.1952 69.4973 77.2832 69.668C77.3738 69.836 77.4192 70.0373 77.4192 70.272V70.928C77.4192 71.288 77.3218 71.5667 77.1272 71.764C76.9352 71.9587 76.6752 72.056 76.3472 72.056C76.0192 72.056 75.7578 71.9587 75.5632 71.764C75.3712 71.5667 75.2752 71.288 75.2752 70.928V70.272ZM75.8032 70.952C75.8032 71.1547 75.8485 71.3107 75.9392 71.42C76.0325 71.5293 76.1685 71.584 76.3472 71.584C76.5285 71.584 76.6645 71.528 76.7552 71.416C76.8458 71.304 76.8912 71.1493 76.8912 70.952V70.248C76.8912 70.0533 76.8418 69.9 76.7432 69.788C76.6445 69.6733 76.5125 69.616 76.3472 69.616C76.1792 69.616 76.0458 69.6747 75.9472 69.792C75.8512 69.9067 75.8032 70.0587 75.8032 70.248V70.952ZM77.682 71.676C77.682 71.564 77.718 71.4733 77.79 71.404C77.862 71.332 77.9526 71.296 78.062 71.296C78.1713 71.296 78.262 71.332 78.334 71.404C78.406 71.4733 78.442 71.564 78.442 71.676C78.442 71.788 78.406 71.88 78.334 71.952C78.262 72.0213 78.1713 72.056 78.062 72.056C77.9526 72.056 77.862 72.0213 77.79 71.952C77.718 71.88 77.682 71.788 77.682 71.676ZM78.7069 70.272C78.7069 70.0373 78.7509 69.836 78.8389 69.668C78.9295 69.4973 79.0549 69.368 79.2149 69.28C79.3775 69.1893 79.5655 69.144 79.7789 69.144C79.9922 69.144 80.1789 69.1893 80.3389 69.28C80.5015 69.368 80.6269 69.4973 80.7149 69.668C80.8055 69.836 80.8509 70.0373 80.8509 70.272V70.928C80.8509 71.288 80.7535 71.5667 80.5589 71.764C80.3669 71.9587 80.1069 72.056 79.7789 72.056C79.4509 72.056 79.1895 71.9587 78.9949 71.764C78.8029 71.5667 78.7069 71.288 78.7069 70.928V70.272ZM79.2349 70.952C79.2349 71.1547 79.2802 71.3107 79.3709 71.42C79.4642 71.5293 79.6002 71.584 79.7789 71.584C79.9602 71.584 80.0962 71.528 80.1869 71.416C80.2775 71.304 80.3229 71.1493 80.3229 70.952V70.248C80.3229 70.0533 80.2735 69.9 80.1749 69.788C80.0762 69.6733 79.9442 69.616 79.7789 69.616C79.6109 69.616 79.4775 69.6747 79.3789 69.792C79.2829 69.9067 79.2349 70.0587 79.2349 70.248V70.952ZM81.0497 70.272C81.0497 70.0373 81.0937 69.836 81.1817 69.668C81.2724 69.4973 81.3977 69.368 81.5577 69.28C81.7204 69.1893 81.9084 69.144 82.1217 69.144C82.335 69.144 82.5217 69.1893 82.6817 69.28C82.8444 69.368 82.9697 69.4973 83.0577 69.668C83.1484 69.836 83.1937 70.0373 83.1937 70.272V70.928C83.1937 71.288 83.0964 71.5667 82.9017 71.764C82.7097 71.9587 82.4497 72.056 82.1217 72.056C81.7937 72.056 81.5324 71.9587 81.3377 71.764C81.1457 71.5667 81.0497 71.288 81.0497 70.928V70.272ZM81.5777 70.952C81.5777 71.1547 81.623 71.3107 81.7137 71.42C81.807 71.5293 81.943 71.584 82.1217 71.584C82.303 71.584 82.439 71.528 82.5297 71.416C82.6204 71.304 82.6657 71.1493 82.6657 70.952V70.248C82.6657 70.0533 82.6164 69.9 82.5177 69.788C82.419 69.6733 82.287 69.616 82.1217 69.616C81.9537 69.616 81.8204 69.6747 81.7217 69.792C81.6257 69.9067 81.5777 70.0587 81.5777 70.248V70.952Z" fill="black"/>
<path d="M12.4685 75.144C12.7805 75.144 13.0312 75.2227 13.2205 75.38C13.4098 75.5373 13.5045 75.7627 13.5045 76.056V76.12H12.9845V76.056C12.9845 75.7573 12.8125 75.608 12.4685 75.608C12.3112 75.608 12.1938 75.6373 12.1165 75.696C12.0392 75.7547 12.0005 75.8373 12.0005 75.944C12.0005 76.0453 12.0378 76.124 12.1125 76.18C12.1898 76.236 12.3165 76.284 12.4925 76.324L12.5845 76.344C12.9072 76.4133 13.1498 76.512 13.3125 76.64C13.4778 76.7653 13.5605 76.9493 13.5605 77.192C13.5605 77.3627 13.5165 77.5133 13.4285 77.644C13.3432 77.7747 13.2205 77.876 13.0605 77.948C12.9005 78.02 12.7138 78.056 12.5005 78.056C12.2845 78.056 12.0925 78.0173 11.9245 77.94C11.7592 77.8627 11.6298 77.752 11.5365 77.608C11.4458 77.4613 11.4005 77.288 11.4005 77.088V77.048H11.9205V77.088C11.9205 77.2533 11.9712 77.3787 12.0725 77.464C12.1738 77.5493 12.3165 77.592 12.5005 77.592C12.6765 77.592 12.8098 77.5573 12.9005 77.488C12.9938 77.416 13.0405 77.3227 13.0405 77.208C13.0405 77.0987 12.9978 77.0173 12.9125 76.964C12.8298 76.908 12.6898 76.8587 12.4925 76.816L12.4005 76.796C12.0858 76.7267 11.8538 76.6307 11.7045 76.508C11.5552 76.3853 11.4805 76.2027 11.4805 75.96C11.4805 75.7067 11.5698 75.508 11.7485 75.364C11.9272 75.2173 12.1672 75.144 12.4685 75.144ZM15.2723 77.704H15.2323C15.1283 77.9227 14.9243 78.032 14.6203 78.032C14.4683 78.032 14.3336 77.9973 14.2163 77.928C14.0989 77.856 14.0083 77.7573 13.9443 77.632C13.8803 77.5067 13.8483 77.3627 13.8483 77.2V76.016H14.3523V77.176C14.3523 77.3253 14.3883 77.4373 14.4603 77.512C14.5323 77.5867 14.6376 77.624 14.7763 77.624C14.9309 77.624 15.0509 77.5733 15.1363 77.472C15.2216 77.368 15.2643 77.224 15.2643 77.04V76.016H15.7683V78H15.2723V77.704ZM16.7113 76.296C16.7486 76.1947 16.8073 76.1213 16.8873 76.076C16.9699 76.0307 17.0766 76.008 17.2073 76.008H17.4153V76.432H17.1193C16.9859 76.432 16.8793 76.468 16.7993 76.54C16.7193 76.6093 16.6793 76.712 16.6793 76.848V78H16.1753V76.016H16.6713V76.296H16.7113ZM17.4528 77.008C17.4528 76.808 17.4981 76.628 17.5888 76.468C17.6794 76.308 17.8034 76.184 17.9608 76.096C18.1181 76.0053 18.2928 75.96 18.4848 75.96C18.7514 75.96 18.9688 76.0307 19.1368 76.172C19.3074 76.3107 19.4154 76.496 19.4608 76.728L18.9728 76.832C18.9568 76.704 18.9088 76.6 18.8288 76.52C18.7488 76.44 18.6368 76.4 18.4928 76.4C18.3354 76.4 18.2061 76.4547 18.1048 76.564C18.0061 76.6733 17.9568 76.8213 17.9568 77.008C17.9568 77.1947 18.0061 77.3427 18.1048 77.452C18.2061 77.5613 18.3354 77.616 18.4928 77.616C18.6368 77.616 18.7488 77.5773 18.8288 77.5C18.9114 77.4227 18.9648 77.316 18.9888 77.18L19.4768 77.296C19.4181 77.5253 19.3048 77.7093 19.1368 77.848C18.9688 77.9867 18.7514 78.056 18.4848 78.056C18.2928 78.056 18.1181 78.012 17.9608 77.924C17.8034 77.8333 17.6794 77.708 17.5888 77.548C17.4981 77.388 17.4528 77.208 17.4528 77.008ZM20.2516 76.296H20.2916C20.3956 76.088 20.5969 75.984 20.8956 75.984C21.0476 75.984 21.1823 76.02 21.2996 76.092C21.4169 76.1613 21.5076 76.2587 21.5716 76.384C21.6356 76.5093 21.6676 76.6533 21.6676 76.816V78H21.1636V76.84C21.1636 76.6907 21.1276 76.5787 21.0556 76.504C20.9836 76.4293 20.8783 76.392 20.7396 76.392C20.5849 76.392 20.4649 76.444 20.3796 76.548C20.2943 76.6493 20.2516 76.792 20.2516 76.976V78H19.7476V75.2H20.2516V76.296ZM22.0273 76.52C22.0807 76.3547 22.1793 76.22 22.3233 76.116C22.47 76.012 22.6647 75.96 22.9073 75.96C23.1713 75.96 23.378 76.0267 23.5273 76.16C23.6793 76.2907 23.7553 76.4787 23.7553 76.724V78H23.2753V77.768H23.2193C23.19 77.8373 23.1327 77.9027 23.0473 77.964C22.9647 78.0253 22.8433 78.056 22.6833 78.056C22.4727 78.056 22.298 78 22.1593 77.888C22.0233 77.7733 21.9553 77.6173 21.9553 77.42C21.9553 77.2227 22.0247 77.0707 22.1633 76.964C22.3047 76.8547 22.4913 76.8 22.7233 76.8H23.2673V76.688C23.2673 76.5893 23.2367 76.5107 23.1753 76.452C23.114 76.3907 23.022 76.36 22.8993 76.36C22.7793 76.36 22.686 76.3893 22.6193 76.448C22.5527 76.504 22.51 76.58 22.4913 76.676L22.0273 76.52ZM22.4593 77.408C22.4593 77.48 22.4873 77.5387 22.5433 77.584C22.602 77.6267 22.6833 77.648 22.7873 77.648C22.9287 77.648 23.0433 77.608 23.1313 77.528C23.222 77.4453 23.2673 77.3387 23.2673 77.208V77.176H22.7593C22.666 77.176 22.5927 77.1973 22.5393 77.24C22.486 77.2827 22.4593 77.3387 22.4593 77.408ZM26.1083 76.016V77.884C26.1083 78.1987 26.0136 78.4387 25.8243 78.604C25.6376 78.772 25.3829 78.856 25.0603 78.856C24.7776 78.856 24.5509 78.7947 24.3803 78.672C24.2123 78.5493 24.0976 78.4 24.0363 78.224L24.4883 78.028C24.5256 78.1507 24.5896 78.248 24.6803 78.32C24.7736 78.3947 24.8976 78.432 25.0523 78.432C25.2229 78.432 25.3576 78.3853 25.4563 78.292C25.5549 78.1987 25.6043 78.0587 25.6043 77.872V77.68H25.5643C25.4149 77.888 25.1989 77.992 24.9163 77.992C24.7589 77.992 24.6109 77.9493 24.4723 77.864C24.3363 77.7787 24.2269 77.66 24.1443 77.508C24.0616 77.3533 24.0203 77.176 24.0203 76.976C24.0203 76.776 24.0616 76.6 24.1443 76.448C24.2269 76.2933 24.3363 76.1733 24.4723 76.088C24.6109 76.0027 24.7589 75.96 24.9163 75.96C25.2016 75.96 25.4203 76.068 25.5723 76.284H25.6123V76.016H26.1083ZM25.0683 77.56C25.2283 77.56 25.3589 77.5067 25.4603 77.4C25.5616 77.2933 25.6123 77.152 25.6123 76.976C25.6123 76.8 25.5616 76.6587 25.4603 76.552C25.3589 76.4453 25.2283 76.392 25.0683 76.392C24.9083 76.392 24.7776 76.4453 24.6763 76.552C24.5749 76.6587 24.5243 76.8 24.5243 76.976C24.5243 77.152 24.5749 77.2933 24.6763 77.4C24.7776 77.5067 24.9083 77.56 25.0683 77.56ZM26.3943 77.008C26.3943 76.8 26.4356 76.6173 26.5183 76.46C26.6036 76.3 26.721 76.1773 26.8703 76.092C27.0223 76.004 27.1956 75.96 27.3903 75.96C27.5823 75.96 27.7503 76.0027 27.8943 76.088C28.041 76.1733 28.1543 76.2947 28.2343 76.452C28.3143 76.6067 28.3543 76.784 28.3543 76.984V77.156H26.9103C26.9156 77.292 26.965 77.404 27.0583 77.492C27.1543 77.58 27.273 77.624 27.4143 77.624C27.5423 77.624 27.641 77.596 27.7103 77.54C27.7823 77.484 27.8383 77.4107 27.8783 77.32L28.2903 77.536C28.1063 77.8827 27.809 78.056 27.3983 78.056C27.2036 78.056 27.0303 78.0133 26.8783 77.928C26.7263 77.84 26.6076 77.7173 26.5223 77.56C26.437 77.4 26.3943 77.216 26.3943 77.008ZM27.8423 76.78C27.829 76.6653 27.781 76.572 27.6983 76.5C27.6183 76.428 27.5143 76.392 27.3863 76.392C27.2556 76.392 27.1476 76.428 27.0623 76.5C26.9796 76.572 26.9303 76.6653 26.9143 76.78H27.8423Z" fill="black"/>
<path d="M74.2998 76.356C74.5691 76.42 74.7691 76.5147 74.8998 76.64C75.0331 76.7627 75.0998 76.9333 75.0998 77.152V77.192C75.0998 77.424 75.0264 77.6133 74.8798 77.76C74.7358 77.9067 74.5424 77.9987 74.2998 78.036V78.464H73.8198V78.04C73.5398 78.0027 73.3198 77.8973 73.1598 77.724C73.0024 77.548 72.9238 77.3173 72.9238 77.032V76.944H73.4518V77.008C73.4518 77.1413 73.4824 77.2533 73.5438 77.344C73.6051 77.432 73.6971 77.4933 73.8198 77.528V76.768C73.5531 76.704 73.3544 76.6107 73.2238 76.488C73.0931 76.3627 73.0278 76.1893 73.0278 75.968V75.944C73.0278 75.7307 73.1011 75.5547 73.2478 75.416C73.3944 75.2747 73.5851 75.188 73.8198 75.156V74.736H74.2998V75.172C74.5318 75.2173 74.7158 75.316 74.8518 75.468C74.9904 75.6173 75.0598 75.8053 75.0598 76.032V76.152H74.5318V76.072C74.5318 75.8827 74.4544 75.7547 74.2998 75.688V76.356ZM73.5638 75.952C73.5638 76.0293 73.5851 76.0907 73.6278 76.136C73.6704 76.1813 73.7344 76.2187 73.8198 76.248V75.664C73.7398 75.688 73.6771 75.7253 73.6318 75.776C73.5864 75.8267 73.5638 75.8853 73.5638 75.952ZM74.2998 77.528C74.3851 77.4987 74.4504 77.4547 74.4958 77.396C74.5411 77.3347 74.5638 77.2667 74.5638 77.192C74.5638 77.1147 74.5411 77.052 74.4958 77.004C74.4531 76.956 74.3878 76.916 74.2998 76.884V77.528ZM75.2752 76.272C75.2752 76.0373 75.3192 75.836 75.4072 75.668C75.4978 75.4973 75.6232 75.368 75.7832 75.28C75.9458 75.1893 76.1338 75.144 76.3472 75.144C76.5605 75.144 76.7472 75.1893 76.9072 75.28C77.0698 75.368 77.1952 75.4973 77.2832 75.668C77.3738 75.836 77.4192 76.0373 77.4192 76.272V76.928C77.4192 77.288 77.3218 77.5667 77.1272 77.764C76.9352 77.9587 76.6752 78.056 76.3472 78.056C76.0192 78.056 75.7578 77.9587 75.5632 77.764C75.3712 77.5667 75.2752 77.288 75.2752 76.928V76.272ZM75.8032 76.952C75.8032 77.1547 75.8485 77.3107 75.9392 77.42C76.0325 77.5293 76.1685 77.584 76.3472 77.584C76.5285 77.584 76.6645 77.528 76.7552 77.416C76.8458 77.304 76.8912 77.1493 76.8912 76.952V76.248C76.8912 76.0533 76.8418 75.9 76.7432 75.788C76.6445 75.6733 76.5125 75.616 76.3472 75.616C76.1792 75.616 76.0458 75.6747 75.9472 75.792C75.8512 75.9067 75.8032 76.0587 75.8032 76.248V76.952ZM77.682 77.676C77.682 77.564 77.718 77.4733 77.79 77.404C77.862 77.332 77.9526 77.296 78.062 77.296C78.1713 77.296 78.262 77.332 78.334 77.404C78.406 77.4733 78.442 77.564 78.442 77.676C78.442 77.788 78.406 77.88 78.334 77.952C78.262 78.0213 78.1713 78.056 78.062 78.056C77.9526 78.056 77.862 78.0213 77.79 77.952C77.718 77.88 77.682 77.788 77.682 77.676ZM78.7069 76.272C78.7069 76.0373 78.7509 75.836 78.8389 75.668C78.9295 75.4973 79.0549 75.368 79.2149 75.28C79.3775 75.1893 79.5655 75.144 79.7789 75.144C79.9922 75.144 80.1789 75.1893 80.3389 75.28C80.5015 75.368 80.6269 75.4973 80.7149 75.668C80.8055 75.836 80.8509 76.0373 80.8509 76.272V76.928C80.8509 77.288 80.7535 77.5667 80.5589 77.764C80.3669 77.9587 80.1069 78.056 79.7789 78.056C79.4509 78.056 79.1895 77.9587 78.9949 77.764C78.8029 77.5667 78.7069 77.288 78.7069 76.928V76.272ZM79.2349 76.952C79.2349 77.1547 79.2802 77.3107 79.3709 77.42C79.4642 77.5293 79.6002 77.584 79.7789 77.584C79.9602 77.584 80.0962 77.528 80.1869 77.416C80.2775 77.304 80.3229 77.1493 80.3229 76.952V76.248C80.3229 76.0533 80.2735 75.9 80.1749 75.788C80.0762 75.6733 79.9442 75.616 79.7789 75.616C79.6109 75.616 79.4775 75.6747 79.3789 75.792C79.2829 75.9067 79.2349 76.0587 79.2349 76.248V76.952ZM81.0497 76.272C81.0497 76.0373 81.0937 75.836 81.1817 75.668C81.2724 75.4973 81.3977 75.368 81.5577 75.28C81.7204 75.1893 81.9084 75.144 82.1217 75.144C82.335 75.144 82.5217 75.1893 82.6817 75.28C82.8444 75.368 82.9697 75.4973 83.0577 75.668C83.1484 75.836 83.1937 76.0373 83.1937 76.272V76.928C83.1937 77.288 83.0964 77.5667 82.9017 77.764C82.7097 77.9587 82.4497 78.056 82.1217 78.056C81.7937 78.056 81.5324 77.9587 81.3377 77.764C81.1457 77.5667 81.0497 77.288 81.0497 76.928V76.272ZM81.5777 76.952C81.5777 77.1547 81.623 77.3107 81.7137 77.42C81.807 77.5293 81.943 77.584 82.1217 77.584C82.303 77.584 82.439 77.528 82.5297 77.416C82.6204 77.304 82.6657 77.1493 82.6657 76.952V76.248C82.6657 76.0533 82.6164 75.9 82.5177 75.788C82.419 75.6733 82.287 75.616 82.1217 75.616C81.9537 75.616 81.8204 75.6747 81.7217 75.792C81.6257 75.9067 81.5777 76.0587 81.5777 76.248V76.952Z" fill="black"/>
<line x1="11.3125" y1="82.8" x2="83.3125" y2="82.8" stroke="#EDEEF0" stroke-width="0.4"/>
<path d="M11.4325 88.264C11.4325 87.9093 11.5365 87.6347 11.7445 87.44C11.9525 87.2427 12.2352 87.144 12.5925 87.144C12.9392 87.144 13.2072 87.2347 13.3965 87.416C13.5858 87.5947 13.6805 87.8347 13.6805 88.136V88.184H13.1525V88.128C13.1525 87.976 13.1045 87.8533 13.0085 87.76C12.9152 87.664 12.7765 87.616 12.5925 87.616C12.4005 87.616 12.2472 87.6747 12.1325 87.792C12.0178 87.9067 11.9605 88.0613 11.9605 88.256V88.944C11.9605 89.1387 12.0178 89.2947 12.1325 89.412C12.2472 89.5267 12.4005 89.584 12.5925 89.584C12.7818 89.584 12.9258 89.5373 13.0245 89.444C13.1258 89.348 13.1765 89.2187 13.1765 89.056V89.032H12.4965V88.584H13.6965V88.992C13.6965 89.3253 13.5992 89.5867 13.4045 89.776C13.2125 89.9627 12.9418 90.056 12.5925 90.056C12.2352 90.056 11.9525 89.9587 11.7445 89.764C11.5365 89.5667 11.4325 89.2907 11.4325 88.936V88.264ZM14.5364 88.296C14.5737 88.1947 14.6324 88.1213 14.7124 88.076C14.7951 88.0307 14.9017 88.008 15.0324 88.008H15.2404V88.432H14.9444C14.8111 88.432 14.7044 88.468 14.6244 88.54C14.5444 88.6093 14.5044 88.712 14.5044 88.848V90H14.0004V88.016H14.4964V88.296H14.5364ZM15.413 88.52C15.4663 88.3547 15.565 88.22 15.709 88.116C15.8556 88.012 16.0503 87.96 16.293 87.96C16.557 87.96 16.7636 88.0267 16.913 88.16C17.065 88.2907 17.141 88.4787 17.141 88.724V90H16.661V89.768H16.605C16.5756 89.8373 16.5183 89.9027 16.433 89.964C16.3503 90.0253 16.229 90.056 16.069 90.056C15.8583 90.056 15.6836 90 15.545 89.888C15.409 89.7733 15.341 89.6173 15.341 89.42C15.341 89.2227 15.4103 89.0707 15.549 88.964C15.6903 88.8547 15.877 88.8 16.109 88.8H16.653V88.688C16.653 88.5893 16.6223 88.5107 16.561 88.452C16.4996 88.3907 16.4076 88.36 16.285 88.36C16.165 88.36 16.0716 88.3893 16.005 88.448C15.9383 88.504 15.8956 88.58 15.877 88.676L15.413 88.52ZM15.845 89.408C15.845 89.48 15.873 89.5387 15.929 89.584C15.9876 89.6267 16.069 89.648 16.173 89.648C16.3143 89.648 16.429 89.608 16.517 89.528C16.6076 89.4453 16.653 89.3387 16.653 89.208V89.176H16.145C16.0516 89.176 15.9783 89.1973 15.925 89.24C15.8716 89.2827 15.845 89.3387 15.845 89.408ZM18.0219 88.312H18.0619C18.1659 88.0933 18.3699 87.984 18.6739 87.984C18.8259 87.984 18.9605 88.02 19.0779 88.092C19.1952 88.1613 19.2859 88.2587 19.3499 88.384C19.4139 88.5093 19.4459 88.6533 19.4459 88.816V90H18.9419V88.84C18.9419 88.6907 18.9059 88.5787 18.8339 88.504C18.7619 88.4293 18.6565 88.392 18.5179 88.392C18.3632 88.392 18.2432 88.444 18.1579 88.548C18.0725 88.6493 18.0299 88.792 18.0299 88.976V90H17.5259V88.016H18.0219V88.312ZM21.3016 90V89.732H21.2616C21.1096 89.948 20.891 90.056 20.6056 90.056C20.4456 90.056 20.2976 90.0133 20.1616 89.928C20.0256 89.8427 19.9163 89.72 19.8336 89.56C19.751 89.4 19.7096 89.216 19.7096 89.008C19.7096 88.8 19.751 88.616 19.8336 88.456C19.9163 88.296 20.0256 88.1733 20.1616 88.088C20.2976 88.0027 20.4456 87.96 20.6056 87.96C20.891 87.96 21.107 88.064 21.2536 88.272H21.2936V87.2H21.7976V90H21.3016ZM20.7576 88.392C20.5976 88.392 20.467 88.4467 20.3656 88.556C20.2643 88.6653 20.2136 88.816 20.2136 89.008C20.2136 89.2 20.2643 89.3507 20.3656 89.46C20.467 89.5693 20.5976 89.624 20.7576 89.624C20.9176 89.624 21.0483 89.5693 21.1496 89.46C21.251 89.3507 21.3016 89.2 21.3016 89.008C21.3016 88.816 21.251 88.6653 21.1496 88.556C21.0483 88.4467 20.9176 88.392 20.7576 88.392ZM23.5298 88.016V87.4H24.0338V88.016H24.5778V88.424H24.0338V89.472C24.0338 89.552 24.0711 89.592 24.1458 89.592H24.5298V90H23.9698C23.8365 90 23.7298 89.96 23.6498 89.88C23.5698 89.7973 23.5298 89.688 23.5298 89.552V88.424H23.0338V88.016H23.5298ZM24.7146 89.008C24.7146 88.7973 24.76 88.6133 24.8506 88.456C24.9413 88.296 25.0653 88.1733 25.2226 88.088C25.38 88.0027 25.5573 87.96 25.7546 87.96C25.952 87.96 26.1293 88.0027 26.2866 88.088C26.444 88.1733 26.568 88.296 26.6586 88.456C26.7493 88.6133 26.7946 88.7973 26.7946 89.008C26.7946 89.2187 26.7493 89.404 26.6586 89.564C26.568 89.7213 26.444 89.8427 26.2866 89.928C26.1293 90.0133 25.952 90.056 25.7546 90.056C25.5573 90.056 25.38 90.0133 25.2226 89.928C25.0653 89.8427 24.9413 89.7213 24.8506 89.564C24.76 89.404 24.7146 89.2187 24.7146 89.008ZM25.2186 89.008C25.2186 89.1973 25.268 89.3467 25.3666 89.456C25.4653 89.5627 25.5946 89.616 25.7546 89.616C25.9146 89.616 26.044 89.5627 26.1426 89.456C26.2413 89.3467 26.2906 89.1973 26.2906 89.008C26.2906 88.8187 26.2413 88.6707 26.1426 88.564C26.044 88.4547 25.9146 88.4 25.7546 88.4C25.5946 88.4 25.4653 88.4547 25.3666 88.564C25.268 88.6707 25.2186 88.8187 25.2186 89.008ZM27.3522 88.016V87.4H27.8562V88.016H28.4002V88.424H27.8562V89.472C27.8562 89.552 27.8935 89.592 27.9682 89.592H28.3522V90H27.7922C27.6588 90 27.5522 89.96 27.4722 89.88C27.3922 89.7973 27.3522 89.688 27.3522 89.552V88.424H26.8562V88.016H27.3522ZM28.672 88.52C28.7254 88.3547 28.824 88.22 28.968 88.116C29.1147 88.012 29.3094 87.96 29.552 87.96C29.816 87.96 30.0227 88.0267 30.172 88.16C30.324 88.2907 30.4 88.4787 30.4 88.724V90H29.92V89.768H29.864C29.8347 89.8373 29.7774 89.9027 29.692 89.964C29.6094 90.0253 29.488 90.056 29.328 90.056C29.1174 90.056 28.9427 90 28.804 89.888C28.668 89.7733 28.6 89.6173 28.6 89.42C28.6 89.2227 28.6694 89.0707 28.808 88.964C28.9494 88.8547 29.136 88.8 29.368 88.8H29.912V88.688C29.912 88.5893 29.8814 88.5107 29.82 88.452C29.7587 88.3907 29.6667 88.36 29.544 88.36C29.424 88.36 29.3307 88.3893 29.264 88.448C29.1974 88.504 29.1547 88.58 29.136 88.676L28.672 88.52ZM29.104 89.408C29.104 89.48 29.132 89.5387 29.188 89.584C29.2467 89.6267 29.328 89.648 29.432 89.648C29.5734 89.648 29.688 89.608 29.776 89.528C29.8667 89.4453 29.912 89.3387 29.912 89.208V89.176H29.404C29.3107 89.176 29.2374 89.1973 29.184 89.24C29.1307 89.2827 29.104 89.3387 29.104 89.408ZM31.2889 90H30.7849V87.2H31.2889V90Z" fill="black"/>
<path d="M72.0663 88.356C72.3357 88.42 72.5357 88.5147 72.6663 88.64C72.7997 88.7627 72.8663 88.9333 72.8663 89.152V89.192C72.8663 89.424 72.793 89.6133 72.6463 89.76C72.5023 89.9067 72.309 89.9987 72.0663 90.036V90.464H71.5863V90.04C71.3063 90.0027 71.0863 89.8973 70.9263 89.724C70.769 89.548 70.6903 89.3173 70.6903 89.032V88.944H71.2183V89.008C71.2183 89.1413 71.249 89.2533 71.3103 89.344C71.3717 89.432 71.4637 89.4933 71.5863 89.528V88.768C71.3197 88.704 71.121 88.6107 70.9903 88.488C70.8597 88.3627 70.7943 88.1893 70.7943 87.968V87.944C70.7943 87.7307 70.8677 87.5547 71.0143 87.416C71.161 87.2747 71.3517 87.188 71.5863 87.156V86.736H72.0663V87.172C72.2983 87.2173 72.4823 87.316 72.6183 87.468C72.757 87.6173 72.8263 87.8053 72.8263 88.032V88.152H72.2983V88.072C72.2983 87.8827 72.221 87.7547 72.0663 87.688V88.356ZM71.3303 87.952C71.3303 88.0293 71.3517 88.0907 71.3943 88.136C71.437 88.1813 71.501 88.2187 71.5863 88.248V87.664C71.5063 87.688 71.4437 87.7253 71.3983 87.776C71.353 87.8267 71.3303 87.8853 71.3303 87.952ZM72.0663 89.528C72.1517 89.4987 72.217 89.4547 72.2623 89.396C72.3077 89.3347 72.3303 89.2667 72.3303 89.192C72.3303 89.1147 72.3077 89.052 72.2623 89.004C72.2197 88.956 72.1543 88.916 72.0663 88.884V89.528ZM75.0097 87.68H73.6337V88.408H73.6817C73.7404 88.3253 73.8137 88.256 73.9017 88.2C73.9924 88.1413 74.1204 88.112 74.2857 88.112C74.4324 88.112 74.5684 88.148 74.6937 88.22C74.8217 88.292 74.9231 88.396 74.9977 88.532C75.0751 88.6653 75.1137 88.8227 75.1137 89.004C75.1137 89.212 75.0697 89.396 74.9817 89.556C74.8964 89.7133 74.7751 89.836 74.6177 89.924C74.4604 90.012 74.2791 90.056 74.0737 90.056C73.8657 90.056 73.6804 90.016 73.5177 89.936C73.3577 89.856 73.2324 89.7427 73.1417 89.596C73.0537 89.4467 73.0097 89.2747 73.0097 89.08V89.008H73.5377V89.048C73.5377 89.2107 73.5831 89.3413 73.6737 89.44C73.7644 89.536 73.8924 89.584 74.0577 89.584C74.2204 89.584 74.3484 89.5347 74.4417 89.436C74.5377 89.3347 74.5857 89.1987 74.5857 89.028C74.5857 88.884 74.5444 88.7707 74.4617 88.688C74.3817 88.6027 74.2777 88.56 74.1497 88.56C74.0564 88.56 73.9804 88.5787 73.9217 88.616C73.8657 88.6533 73.8244 88.6987 73.7977 88.752H73.1057V87.2H75.0097V87.68ZM75.2752 88.272C75.2752 88.0373 75.3192 87.836 75.4072 87.668C75.4978 87.4973 75.6232 87.368 75.7832 87.28C75.9458 87.1893 76.1338 87.144 76.3472 87.144C76.5605 87.144 76.7472 87.1893 76.9072 87.28C77.0698 87.368 77.1952 87.4973 77.2832 87.668C77.3738 87.836 77.4192 88.0373 77.4192 88.272V88.928C77.4192 89.288 77.3218 89.5667 77.1272 89.764C76.9352 89.9587 76.6752 90.056 76.3472 90.056C76.0192 90.056 75.7578 89.9587 75.5632 89.764C75.3712 89.5667 75.2752 89.288 75.2752 88.928V88.272ZM75.8032 88.952C75.8032 89.1547 75.8485 89.3107 75.9392 89.42C76.0325 89.5293 76.1685 89.584 76.3472 89.584C76.5285 89.584 76.6645 89.528 76.7552 89.416C76.8458 89.304 76.8912 89.1493 76.8912 88.952V88.248C76.8912 88.0533 76.8418 87.9 76.7432 87.788C76.6445 87.6733 76.5125 87.616 76.3472 87.616C76.1792 87.616 76.0458 87.6747 75.9472 87.792C75.8512 87.9067 75.8032 88.0587 75.8032 88.248V88.952ZM77.682 89.676C77.682 89.564 77.718 89.4733 77.79 89.404C77.862 89.332 77.9526 89.296 78.062 89.296C78.1713 89.296 78.262 89.332 78.334 89.404C78.406 89.4733 78.442 89.564 78.442 89.676C78.442 89.788 78.406 89.88 78.334 89.952C78.262 90.0213 78.1713 90.056 78.062 90.056C77.9526 90.056 77.862 90.0213 77.79 89.952C77.718 89.88 77.682 89.788 77.682 89.676ZM78.7069 88.272C78.7069 88.0373 78.7509 87.836 78.8389 87.668C78.9295 87.4973 79.0549 87.368 79.2149 87.28C79.3775 87.1893 79.5655 87.144 79.7789 87.144C79.9922 87.144 80.1789 87.1893 80.3389 87.28C80.5015 87.368 80.6269 87.4973 80.7149 87.668C80.8055 87.836 80.8509 88.0373 80.8509 88.272V88.928C80.8509 89.288 80.7535 89.5667 80.5589 89.764C80.3669 89.9587 80.1069 90.056 79.7789 90.056C79.4509 90.056 79.1895 89.9587 78.9949 89.764C78.8029 89.5667 78.7069 89.288 78.7069 88.928V88.272ZM79.2349 88.952C79.2349 89.1547 79.2802 89.3107 79.3709 89.42C79.4642 89.5293 79.6002 89.584 79.7789 89.584C79.9602 89.584 80.0962 89.528 80.1869 89.416C80.2775 89.304 80.3229 89.1493 80.3229 88.952V88.248C80.3229 88.0533 80.2735 87.9 80.1749 87.788C80.0762 87.6733 79.9442 87.616 79.7789 87.616C79.6109 87.616 79.4775 87.6747 79.3789 87.792C79.2829 87.9067 79.2349 88.0587 79.2349 88.248V88.952ZM81.0497 88.272C81.0497 88.0373 81.0937 87.836 81.1817 87.668C81.2724 87.4973 81.3977 87.368 81.5577 87.28C81.7204 87.1893 81.9084 87.144 82.1217 87.144C82.335 87.144 82.5217 87.1893 82.6817 87.28C82.8444 87.368 82.9697 87.4973 83.0577 87.668C83.1484 87.836 83.1937 88.0373 83.1937 88.272V88.928C83.1937 89.288 83.0964 89.5667 82.9017 89.764C82.7097 89.9587 82.4497 90.056 82.1217 90.056C81.7937 90.056 81.5324 89.9587 81.3377 89.764C81.1457 89.5667 81.0497 89.288 81.0497 88.928V88.272ZM81.5777 88.952C81.5777 89.1547 81.623 89.3107 81.7137 89.42C81.807 89.5293 81.943 89.584 82.1217 89.584C82.303 89.584 82.439 89.528 82.5297 89.416C82.6204 89.304 82.6657 89.1493 82.6657 88.952V88.248C82.6657 88.0533 82.6164 87.9 82.5177 87.788C82.419 87.6733 82.287 87.616 82.1217 87.616C81.9537 87.616 81.8204 87.6747 81.7217 87.792C81.6257 87.9067 81.5777 88.0587 81.5777 88.248V88.952Z" fill="black"/>
<line x1="11.3125" y1="94.8" x2="83.3125" y2="94.8" stroke="#EDEEF0" stroke-width="0.4"/>
<path d="M13.6725 100.58C13.6725 100.791 13.6165 100.971 13.5045 101.12C13.3952 101.267 13.2485 101.367 13.0645 101.42L13.6405 102.5H13.0445L12.5325 101.46H12.0725V102.5H11.5445V99.7H12.7765C12.9525 99.7 13.1072 99.7373 13.2405 99.812C13.3765 99.884 13.4818 99.9867 13.5565 100.12C13.6338 100.251 13.6725 100.404 13.6725 100.58ZM12.0725 100.984H12.7245C12.8498 100.984 12.9512 100.948 13.0285 100.876C13.1058 100.801 13.1445 100.703 13.1445 100.58C13.1445 100.457 13.1058 100.36 13.0285 100.288C12.9512 100.216 12.8498 100.18 12.7245 100.18H12.0725V100.984ZM13.8413 101.508C13.8413 101.3 13.8827 101.117 13.9653 100.96C14.0507 100.8 14.168 100.677 14.3173 100.592C14.4693 100.504 14.6427 100.46 14.8373 100.46C15.0293 100.46 15.1973 100.503 15.3413 100.588C15.488 100.673 15.6013 100.795 15.6813 100.952C15.7613 101.107 15.8013 101.284 15.8013 101.484V101.656H14.3573C14.3627 101.792 14.412 101.904 14.5053 101.992C14.6013 102.08 14.72 102.124 14.8613 102.124C14.9893 102.124 15.088 102.096 15.1573 102.04C15.2293 101.984 15.2853 101.911 15.3253 101.82L15.7373 102.036C15.5533 102.383 15.256 102.556 14.8453 102.556C14.6507 102.556 14.4773 102.513 14.3253 102.428C14.1733 102.34 14.0547 102.217 13.9693 102.06C13.884 101.9 13.8413 101.716 13.8413 101.508ZM15.2893 101.28C15.276 101.165 15.228 101.072 15.1453 101C15.0653 100.928 14.9613 100.892 14.8333 100.892C14.7027 100.892 14.5947 100.928 14.5093 101C14.4267 101.072 14.3773 101.165 14.3613 101.28H15.2893ZM15.9537 101.508C15.9537 101.308 15.999 101.128 16.0897 100.968C16.1804 100.808 16.3044 100.684 16.4617 100.596C16.619 100.505 16.7937 100.46 16.9857 100.46C17.2524 100.46 17.4697 100.531 17.6377 100.672C17.8084 100.811 17.9164 100.996 17.9617 101.228L17.4737 101.332C17.4577 101.204 17.4097 101.1 17.3297 101.02C17.2497 100.94 17.1377 100.9 16.9937 100.9C16.8364 100.9 16.707 100.955 16.6057 101.064C16.507 101.173 16.4577 101.321 16.4577 101.508C16.4577 101.695 16.507 101.843 16.6057 101.952C16.707 102.061 16.8364 102.116 16.9937 102.116C17.1377 102.116 17.2497 102.077 17.3297 102C17.4124 101.923 17.4657 101.816 17.4897 101.68L17.9777 101.796C17.919 102.025 17.8057 102.209 17.6377 102.348C17.4697 102.487 17.2524 102.556 16.9857 102.556C16.7937 102.556 16.619 102.512 16.4617 102.424C16.3044 102.333 16.1804 102.208 16.0897 102.048C15.999 101.888 15.9537 101.708 15.9537 101.508ZM19.6805 102.204H19.6405C19.5365 102.423 19.3325 102.532 19.0285 102.532C18.8765 102.532 18.7419 102.497 18.6245 102.428C18.5072 102.356 18.4165 102.257 18.3525 102.132C18.2885 102.007 18.2565 101.863 18.2565 101.7V100.516H18.7605V101.676C18.7605 101.825 18.7965 101.937 18.8685 102.012C18.9405 102.087 19.0459 102.124 19.1845 102.124C19.3392 102.124 19.4592 102.073 19.5445 101.972C19.6299 101.868 19.6725 101.724 19.6725 101.54V100.516H20.1765V102.5H19.6805V102.204ZM21.1195 100.796C21.1569 100.695 21.2155 100.621 21.2955 100.576C21.3782 100.531 21.4849 100.508 21.6155 100.508H21.8235V100.932H21.5275C21.3942 100.932 21.2875 100.968 21.2075 101.04C21.1275 101.109 21.0875 101.212 21.0875 101.348V102.5H20.5835V100.516H21.0795V100.796H21.1195ZM22.5756 100.796C22.613 100.695 22.6716 100.621 22.7516 100.576C22.8343 100.531 22.941 100.508 23.0716 100.508H23.2796V100.932H22.9836C22.8503 100.932 22.7436 100.968 22.6636 101.04C22.5836 101.109 22.5436 101.212 22.5436 101.348V102.5H22.0396V100.516H22.5356V100.796H22.5756ZM23.9997 102.5H23.4957V100.516H23.9997V102.5ZM23.3917 99.94C23.3917 99.8387 23.4251 99.756 23.4917 99.692C23.5611 99.628 23.6464 99.596 23.7477 99.596C23.8491 99.596 23.9331 99.628 23.9997 99.692C24.0691 99.756 24.1037 99.8387 24.1037 99.94C24.1037 100.041 24.0691 100.124 23.9997 100.188C23.9331 100.252 23.8491 100.284 23.7477 100.284C23.6464 100.284 23.5611 100.252 23.4917 100.188C23.4251 100.124 23.3917 100.041 23.3917 99.94ZM24.9048 100.812H24.9448C25.0488 100.593 25.2528 100.484 25.5568 100.484C25.7088 100.484 25.8435 100.52 25.9608 100.592C26.0782 100.661 26.1688 100.759 26.2328 100.884C26.2968 101.009 26.3288 101.153 26.3288 101.316V102.5H25.8248V101.34C25.8248 101.191 25.7888 101.079 25.7168 101.004C25.6448 100.929 25.5395 100.892 25.4008 100.892C25.2462 100.892 25.1262 100.944 25.0408 101.048C24.9555 101.149 24.9128 101.292 24.9128 101.476V102.5H24.4088V100.516H24.9048V100.812ZM28.6806 100.516V102.384C28.6806 102.699 28.5859 102.939 28.3966 103.104C28.2099 103.272 27.9553 103.356 27.6326 103.356C27.3499 103.356 27.1233 103.295 26.9526 103.172C26.7846 103.049 26.6699 102.9 26.6086 102.724L27.0606 102.528C27.0979 102.651 27.1619 102.748 27.2526 102.82C27.3459 102.895 27.4699 102.932 27.6246 102.932C27.7953 102.932 27.9299 102.885 28.0286 102.792C28.1273 102.699 28.1766 102.559 28.1766 102.372V102.18H28.1366C27.9873 102.388 27.7713 102.492 27.4886 102.492C27.3313 102.492 27.1833 102.449 27.0446 102.364C26.9086 102.279 26.7993 102.16 26.7166 102.008C26.6339 101.853 26.5926 101.676 26.5926 101.476C26.5926 101.276 26.6339 101.1 26.7166 100.948C26.7993 100.793 26.9086 100.673 27.0446 100.588C27.1833 100.503 27.3313 100.46 27.4886 100.46C27.7739 100.46 27.9926 100.568 28.1446 100.784H28.1846V100.516H28.6806ZM27.6406 102.06C27.8006 102.06 27.9313 102.007 28.0326 101.9C28.1339 101.793 28.1846 101.652 28.1846 101.476C28.1846 101.3 28.1339 101.159 28.0326 101.052C27.9313 100.945 27.8006 100.892 27.6406 100.892C27.4806 100.892 27.3499 100.945 27.2486 101.052C27.1473 101.159 27.0966 101.3 27.0966 101.476C27.0966 101.652 27.1473 101.793 27.2486 101.9C27.3499 102.007 27.4806 102.06 27.6406 102.06ZM30.6208 100.516V100.784H30.6608C30.8128 100.568 31.0314 100.46 31.3168 100.46C31.4768 100.46 31.6248 100.503 31.7608 100.588C31.8968 100.673 32.0061 100.796 32.0888 100.956C32.1714 101.116 32.2128 101.3 32.2128 101.508C32.2128 101.716 32.1714 101.9 32.0888 102.06C32.0061 102.22 31.8968 102.343 31.7608 102.428C31.6248 102.513 31.4768 102.556 31.3168 102.556C31.0314 102.556 30.8154 102.452 30.6688 102.244H30.6288V103.3H30.1248V100.516H30.6208ZM31.1648 102.124C31.3248 102.124 31.4554 102.069 31.5568 101.96C31.6581 101.851 31.7088 101.7 31.7088 101.508C31.7088 101.316 31.6581 101.165 31.5568 101.056C31.4554 100.947 31.3248 100.892 31.1648 100.892C31.0048 100.892 30.8741 100.947 30.7728 101.056C30.6714 101.165 30.6208 101.316 30.6208 101.508C30.6208 101.7 30.6714 101.851 30.7728 101.96C30.8741 102.069 31.0048 102.124 31.1648 102.124ZM32.4748 101.02C32.5282 100.855 32.6268 100.72 32.7708 100.616C32.9175 100.512 33.1122 100.46 33.3548 100.46C33.6188 100.46 33.8255 100.527 33.9748 100.66C34.1268 100.791 34.2028 100.979 34.2028 101.224V102.5H33.7228V102.268H33.6668C33.6375 102.337 33.5802 102.403 33.4948 102.464C33.4122 102.525 33.2908 102.556 33.1308 102.556C32.9202 102.556 32.7455 102.5 32.6068 102.388C32.4708 102.273 32.4028 102.117 32.4028 101.92C32.4028 101.723 32.4722 101.571 32.6108 101.464C32.7522 101.355 32.9388 101.3 33.1708 101.3H33.7148V101.188C33.7148 101.089 33.6842 101.011 33.6228 100.952C33.5615 100.891 33.4695 100.86 33.3468 100.86C33.2268 100.86 33.1335 100.889 33.0668 100.948C33.0002 101.004 32.9575 101.08 32.9388 101.176L32.4748 101.02ZM32.9068 101.908C32.9068 101.98 32.9348 102.039 32.9908 102.084C33.0495 102.127 33.1308 102.148 33.2348 102.148C33.3762 102.148 33.4908 102.108 33.5788 102.028C33.6695 101.945 33.7148 101.839 33.7148 101.708V101.676H33.2068C33.1135 101.676 33.0402 101.697 32.9868 101.74C32.9335 101.783 32.9068 101.839 32.9068 101.908ZM35.9256 100.516H36.4696L35.3816 103.3H34.8376L35.1176 102.628L34.2936 100.516H34.8376L35.3616 101.948H35.4016L35.9256 100.516ZM37.157 100.764H37.197C37.2397 100.679 37.3037 100.611 37.389 100.56C37.4744 100.509 37.5837 100.484 37.717 100.484C37.9784 100.484 38.1597 100.588 38.261 100.796H38.301C38.357 100.7 38.4277 100.624 38.513 100.568C38.601 100.512 38.7197 100.484 38.869 100.484C39.0637 100.484 39.2224 100.545 39.345 100.668C39.4704 100.791 39.533 100.967 39.533 101.196V102.5H39.029V101.22C39.029 101.113 39.001 101.032 38.945 100.976C38.889 100.92 38.8104 100.892 38.709 100.892C38.5944 100.892 38.505 100.929 38.441 101.004C38.3797 101.076 38.349 101.18 38.349 101.316V102.5H37.845V101.22C37.845 101.113 37.817 101.032 37.761 100.976C37.705 100.92 37.6264 100.892 37.525 100.892C37.4104 100.892 37.321 100.929 37.257 101.004C37.1957 101.076 37.165 101.18 37.165 101.316V102.5H36.661V100.516H37.157V100.764ZM39.7979 101.508C39.7979 101.3 39.8392 101.117 39.9219 100.96C40.0072 100.8 40.1246 100.677 40.2739 100.592C40.4259 100.504 40.5992 100.46 40.7939 100.46C40.9859 100.46 41.1539 100.503 41.2979 100.588C41.4446 100.673 41.5579 100.795 41.6379 100.952C41.7179 101.107 41.7579 101.284 41.7579 101.484V101.656H40.3139C40.3192 101.792 40.3686 101.904 40.4619 101.992C40.5579 102.08 40.6766 102.124 40.8179 102.124C40.9459 102.124 41.0446 102.096 41.1139 102.04C41.1859 101.984 41.2419 101.911 41.2819 101.82L41.6939 102.036C41.5099 102.383 41.2126 102.556 40.8019 102.556C40.6072 102.556 40.4339 102.513 40.2819 102.428C40.1299 102.34 40.0112 102.217 39.9259 102.06C39.8406 101.9 39.7979 101.716 39.7979 101.508ZM41.2459 101.28C41.2326 101.165 41.1846 101.072 41.1019 101C41.0219 100.928 40.9179 100.892 40.7899 100.892C40.6592 100.892 40.5512 100.928 40.4659 101C40.3832 101.072 40.3339 101.165 40.3179 101.28H41.2459ZM42.5262 100.812H42.5662C42.6702 100.593 42.8742 100.484 43.1782 100.484C43.3302 100.484 43.4649 100.52 43.5822 100.592C43.6996 100.661 43.7902 100.759 43.8542 100.884C43.9182 101.009 43.9502 101.153 43.9502 101.316V102.5H43.4462V101.34C43.4462 101.191 43.4102 101.079 43.3382 101.004C43.2662 100.929 43.1609 100.892 43.0222 100.892C42.8676 100.892 42.7476 100.944 42.6622 101.048C42.5769 101.149 42.5342 101.292 42.5342 101.476V102.5H42.0302V100.516H42.5262V100.812ZM44.5829 100.516V99.9H45.0869V100.516H45.6309V100.924H45.0869V101.972C45.0869 102.052 45.1243 102.092 45.1989 102.092H45.5829V102.5H45.0229C44.8896 102.5 44.7829 102.46 44.7029 102.38C44.6229 102.297 44.5829 102.188 44.5829 102.052V100.924H44.0869V100.516H44.5829Z" fill="black"/>
<rect x="73.3125" y="99" width="10" height="5" rx="2.5" fill="#EDEEF0"/>
<circle cx="75.8128" cy="101.5" r="2.08333" fill="#919599"/>
</g>
<defs>
<linearGradient id="paint0_linear_1405_40969" x1="94.1198" y1="12.4449" x2="1.86873" y2="12.4449" gradientUnits="userSpaceOnUse">
<stop stop-color="#FFB968"/>
<stop offset="0.156968" stop-color="#F89D33"/>
<stop offset="0.850831" stop-color="#F89D33"/>
<stop offset="1" stop-color="#FFB968"/>
</linearGradient>
<linearGradient id="paint1_linear_1405_40969" x1="97.6501" y1="95.3086" x2="97.6501" y2="198.592" gradientUnits="userSpaceOnUse">
<stop stop-color="#666363"/>
<stop offset="0.233085" stop-color="#1F1E1E"/>
<stop offset="0.816697" stop-color="#1F1E1E"/>
<stop offset="1" stop-color="#666363"/>
</linearGradient>
<linearGradient id="paint2_linear_1405_40969" x1="98.5891" y1="95.6836" x2="98.5891" y2="201.608" gradientUnits="userSpaceOnUse">
<stop stop-color="#F3F3F3"/>
<stop offset="0.10999" stop-color="#FAFAFA"/>
<stop offset="0.942377" stop-color="#FAFAFA"/>
<stop offset="1" stop-color="#C9C9C9"/>
</linearGradient>
<linearGradient id="paint3_linear_1405_40969" x1="75.8193" y1="31.3697" x2="75.8193" y2="32.2788" gradientUnits="userSpaceOnUse">
<stop stop-color="#424242"/>
<stop offset="1" stop-color="#6B6B6B"/>
</linearGradient>
<clipPath id="clip0_1405_40969">
<rect x="7.3125" y="47" width="80.0576" height="149.023" rx="2.38876" fill="white"/>
</clipPath>
</defs>
</svg>
