<svg width="661" height="590" viewBox="0 0 661 590" fill="none" xmlns="http://www.w3.org/2000/svg">
<path d="M556.744 186H646.148C653.26 186 659 191.723 659 198.813V241.779V380.187C659 387.277 653.26 393 646.148 393H13.8516C6.74036 393 1 387.277 1 380.187V241.779V198.813C1 191.723 6.74036 186 13.8516 186H556.744Z" stroke="#231F20" stroke-width="2.134" stroke-miterlimit="10"/>
<path d="M172.907 148.46L171.176 147.461L126.676 224.537L128.407 225.537L172.907 148.46Z" fill="#231F20"/>
<path d="M187.817 209.634L188.816 207.902L111.74 163.402L110.741 165.134L187.817 209.634Z" fill="#231F20"/>
<path d="M139.224 143.244L137.293 143.762L160.328 229.728L162.259 229.211L139.224 143.244Z" fill="#231F20"/>
<path d="M193.029 175.954L192.512 174.023L106.545 197.058L107.063 198.989L193.029 175.954Z" fill="#231F20"/>
<path d="M145.801 193.407C149.606 195.604 154.471 194.3 156.668 190.496C158.864 186.691 157.561 181.826 153.756 179.63C149.951 177.433 145.086 178.737 142.89 182.541C140.693 186.346 141.997 191.211 145.801 193.407Z" fill="#231F20"/>
<path d="M24.3633 258.672H220.32" stroke="#231F20" stroke-width="2.134" stroke-miterlimit="10"/>
<path d="M24.3633 285.297H127.666" stroke="#231F20" stroke-width="2.134" stroke-miterlimit="10"/>
<path d="M24.3633 349.715H146.836" stroke="#0070F4" stroke-width="2.134" stroke-miterlimit="10"/>
<path d="M30.7571 218.721C34.2861 218.721 37.147 215.86 37.147 212.331C37.147 208.802 34.2861 205.941 30.7571 205.941C27.228 205.941 24.3672 208.802 24.3672 212.331C24.3672 215.86 27.228 218.721 30.7571 218.721Z" stroke="black" stroke-width="2.12996" stroke-miterlimit="10"/>
<path d="M50.9915 218.721C54.5205 218.721 57.3813 215.86 57.3813 212.331C57.3813 208.802 54.5205 205.941 50.9915 205.941C47.4624 205.941 44.6016 208.802 44.6016 212.331C44.6016 215.86 47.4624 218.721 50.9915 218.721Z" stroke="black" stroke-width="2.12996" stroke-miterlimit="10"/>
<path d="M71.2258 218.721C74.7549 218.721 77.6157 215.86 77.6157 212.331C77.6157 208.802 74.7549 205.941 71.2258 205.941C67.6968 205.941 64.8359 208.802 64.8359 212.331C64.8359 215.86 67.6968 218.721 71.2258 218.721Z" stroke="black" stroke-width="2.12996" stroke-miterlimit="10"/>
<path d="M494.334 417L497.792 425.92L506.712 429.377L497.792 432.792L494.334 441.712L490.92 432.792L482 429.377L490.92 425.92L494.334 417Z" fill="#0070F4"/>
<path d="M183.667 327.352L187.124 336.314L196.044 339.729L187.124 343.186L183.667 352.106L180.252 343.186L171.332 339.729L180.252 336.314L183.667 327.352Z" fill="#231F20"/>
<path d="M121.94 46.168L125.354 55.0881L134.274 58.5452L125.354 61.9596L121.94 70.8797L118.483 61.9596L109.562 58.5452L118.483 55.0881L121.94 46.168Z" fill="#231F20"/>
<path d="M490.377 46L493.792 54.9201L502.712 58.3345L493.792 61.7916L490.377 70.7118L486.92 61.7916L478 58.3345L486.92 54.9201L490.377 46Z" fill="#231F20"/>
<path d="M73.5198 442L75.8995 448.14L82.0397 450.52L75.8995 452.9L73.5198 459.04L71.1695 452.9L65 450.52L71.1695 448.14L73.5198 442Z" fill="#231F20"/>
<path d="M417.34 94.0936L574.957 94.0936" stroke="#231F20" stroke-width="2.134" stroke-miterlimit="10"/>
<path d="M542.395 116.759C542.395 116.759 548.925 93.7113 575.087 93.7113C548.925 93.7113 542.395 70.6641 542.395 70.6641" stroke="#231F20" stroke-width="2.134" stroke-miterlimit="10"/>
<path d="M114.129 518.043L199.224 432.948" stroke="#231F20" stroke-width="2.134" stroke-miterlimit="10"/>
<path d="M192.227 472C192.227 472 180.547 451.086 199.047 432.586C180.547 451.086 159.633 439.406 159.633 439.406" stroke="#231F20" stroke-width="2.134" stroke-miterlimit="10"/>
<path d="M596.258 212.332L598.638 218.483L604.778 220.837L598.638 223.221L596.258 229.372L593.878 223.221L587.738 220.837L593.908 218.483L596.258 212.332Z" fill="#231F20"/>
<path d="M503.811 330.499C515.875 330.499 522.929 322.729 522.929 307.802V279.584C522.929 264.964 515.977 256.581 503.811 256.581C491.236 256.581 484.795 265.169 484.795 279.584V307.802C484.795 322.729 491.338 330.499 503.811 330.499ZM503.811 327.943C492.667 327.943 487.453 320.684 487.453 307.802V279.584C487.453 266.702 492.667 258.932 503.811 258.932C514.75 258.932 520.271 266.805 520.271 279.584V307.802C520.271 320.786 514.546 327.943 503.811 327.943ZM544.285 285.412C551.135 285.412 554.816 280.913 554.816 274.166V267.725C554.816 260.875 551.033 256.581 544.285 256.581C538.151 256.581 533.857 260.568 533.857 267.725V274.166C533.857 281.425 537.538 285.412 544.285 285.412ZM577.513 257.296L535.288 329.477H538.253L580.273 257.296H577.513ZM544.285 282.958C539.173 282.958 536.311 279.789 536.311 274.166V267.725C536.311 262.102 539.582 258.932 544.285 258.932C549.09 258.932 552.26 262.102 552.26 267.725V274.166C552.26 279.482 549.499 282.958 544.285 282.958ZM571.072 330.499C577.922 330.499 581.602 325.898 581.602 319.151V312.71C581.602 305.86 577.717 301.463 571.174 301.463C564.835 301.463 560.643 305.553 560.643 312.71V319.151C560.643 326.409 564.324 330.499 571.072 330.499ZM571.072 327.943C566.164 327.943 563.199 324.774 563.199 319.151V312.71C563.199 307.086 566.369 303.815 571.174 303.815C575.877 303.815 579.148 307.086 579.148 312.71V319.151C579.148 324.467 576.286 327.943 571.072 327.943Z" fill="#0070F4"/>
<path d="M240.52 94L242.9 100.14L249.04 102.52L242.9 104.87L240.52 111.04L238.14 104.9L232 102.52L238.17 100.14L240.52 94Z" fill="#0070F4"/>
<path d="M237 181.956L242.344 130.061C243.015 123.544 248.505 118.59 255.056 118.59H392.506C399.057 118.59 404.547 123.544 405.218 130.061L410.562 181.956V287.785L416.484 289.761C419.961 290.921 422.307 294.176 422.307 297.843V469.552C422.307 472.319 420.963 474.913 418.704 476.51L411.214 481.803V486.008C411.214 493.066 405.493 498.788 398.435 498.788H252.098C245.42 498.788 239.867 493.646 239.356 486.987L237 456.326V181.956Z" fill="white" stroke="black" stroke-width="2.12996"/>
<rect x="247.862" y="190.065" width="151.87" height="295.87" rx="4.25992" fill="white" stroke="black" stroke-width="2.12996"/>
<path d="M274.797 459H378.1" stroke="#0070F4" stroke-width="2.134" stroke-miterlimit="10"/>
<path d="M304.797 219L348.797 219" stroke="#231F20" stroke-width="2.134" stroke-miterlimit="10"/>
<path d="M271.797 338H295.797" stroke="#231F20" stroke-width="2.134" stroke-miterlimit="10"/>
<path d="M311.797 338H335.797" stroke="#231F20" stroke-width="2.134" stroke-miterlimit="10"/>
<path d="M351.797 338H375.797" stroke="#231F20" stroke-width="2.134" stroke-miterlimit="10"/>
<line x1="358.018" y1="166.703" x2="358.018" y2="174.533" stroke="black" stroke-width="2.12996"/>
<line x1="365.846" y1="166.703" x2="365.846" y2="174.533" stroke="black" stroke-width="2.12996"/>
<line x1="373.678" y1="166.703" x2="373.678" y2="174.533" stroke="black" stroke-width="2.12996"/>
<line x1="381.51" y1="166.703" x2="381.51" y2="174.533" stroke="black" stroke-width="2.12996"/>
<path d="M255.105 162.256L255.135 162.047C255.729 157.844 259.326 154.719 263.571 154.719H384.007C388.252 154.719 391.85 157.844 392.443 162.047L392.473 162.256" stroke="black" stroke-width="2.12996"/>
<line x1="414.237" y1="296.719" x2="414.237" y2="472.891" stroke="black" stroke-width="2.12996"/>
<path d="M262.559 167.648C262.806 167.578 263.124 167.513 263.512 167.448C263.9 167.387 264.311 167.355 264.737 167.355C265.171 167.355 265.531 167.411 265.821 167.522C266.111 167.639 266.34 167.797 266.508 168.007C266.677 168.212 266.798 168.459 266.868 168.743C266.938 169.027 266.976 169.344 266.976 169.694V172.573H265.527V169.866C265.527 169.4 265.466 169.069 265.34 168.878C265.218 168.683 264.989 168.589 264.648 168.589C264.545 168.589 264.433 168.594 264.316 168.603C264.204 168.613 264.101 168.622 264.008 168.636V172.573H262.559V167.648Z" fill="#0070F4"/>
<path d="M270.125 167.338C270.555 167.338 270.911 167.385 271.196 167.482C271.481 167.58 271.71 167.72 271.883 167.897C272.056 168.079 272.177 168.298 272.248 168.559C272.318 168.82 272.355 169.104 272.355 169.421V172.426C272.149 172.473 271.86 172.524 271.49 172.584C271.121 172.645 270.672 172.678 270.149 172.678C269.817 172.678 269.518 172.65 269.247 172.589C268.976 172.533 268.747 172.435 268.55 172.305C268.354 172.174 268.204 171.997 268.102 171.788C267.999 171.573 267.947 171.312 267.947 171C267.947 170.702 268.008 170.45 268.125 170.245C268.242 170.04 268.405 169.873 268.606 169.752C268.807 169.63 269.036 169.542 269.298 169.486C269.555 169.43 269.826 169.402 270.107 169.402C270.294 169.402 270.462 169.411 270.607 169.425C270.752 169.444 270.869 169.463 270.962 169.491V169.355C270.962 169.109 270.887 168.913 270.738 168.764C270.588 168.615 270.331 168.54 269.962 168.54C269.714 168.54 269.471 168.559 269.233 168.591C268.994 168.624 268.784 168.675 268.611 168.74L268.424 167.576C268.508 167.548 268.616 167.524 268.742 167.492C268.868 167.464 269.008 167.436 269.153 167.413C269.298 167.389 269.462 167.371 269.625 167.352C269.789 167.347 269.957 167.338 270.125 167.338ZM270.242 171.569C270.387 171.569 270.523 171.564 270.649 171.559C270.78 171.555 270.883 171.545 270.962 171.531V170.436C270.906 170.422 270.817 170.408 270.7 170.399C270.584 170.385 270.476 170.381 270.378 170.381C270.242 170.381 270.111 170.39 269.995 170.404C269.878 170.418 269.77 170.45 269.677 170.497C269.588 170.544 269.513 170.604 269.462 170.683C269.41 170.763 269.382 170.856 269.382 170.972C269.382 171.201 269.457 171.354 269.611 171.443C269.766 171.522 269.976 171.569 270.242 171.569Z" fill="#0070F4"/>
<path d="M278.179 172.412C278.049 172.449 277.899 172.486 277.731 172.523C277.562 172.561 277.385 172.589 277.203 172.617C277.016 172.645 276.829 172.663 276.637 172.682C276.445 172.696 276.263 172.705 276.085 172.705C275.665 172.705 275.286 172.645 274.959 172.519C274.627 172.398 274.351 172.221 274.122 171.992C273.893 171.764 273.72 171.484 273.603 171.158C273.482 170.832 273.426 170.464 273.426 170.059C273.426 169.644 273.477 169.271 273.58 168.94C273.683 168.61 273.832 168.325 274.029 168.093C274.225 167.86 274.463 167.682 274.744 167.561C275.024 167.44 275.347 167.375 275.711 167.375C275.912 167.375 276.09 167.394 276.249 167.431C276.408 167.468 276.567 167.524 276.73 167.594V165.283L278.179 165.05V172.412ZM274.903 169.984C274.903 170.431 275.001 170.79 275.207 171.06C275.408 171.331 275.707 171.466 276.099 171.466C276.23 171.466 276.347 171.461 276.459 171.452C276.572 171.443 276.66 171.433 276.73 171.419V168.791C276.642 168.735 276.52 168.684 276.375 168.647C276.23 168.61 276.081 168.591 275.931 168.591C275.249 168.591 274.903 169.057 274.903 169.984Z" fill="#0070F4"/>
<path d="M281.381 167.338C281.811 167.338 282.167 167.385 282.452 167.482C282.737 167.58 282.966 167.72 283.139 167.897C283.312 168.079 283.433 168.298 283.503 168.559C283.574 168.82 283.611 169.104 283.611 169.421V172.426C283.405 172.473 283.115 172.524 282.746 172.584C282.377 172.645 281.928 172.678 281.405 172.678C281.073 172.678 280.774 172.65 280.503 172.589C280.231 172.533 280.002 172.435 279.806 172.305C279.61 172.174 279.46 171.997 279.357 171.788C279.255 171.573 279.203 171.312 279.203 171C279.203 170.702 279.264 170.45 279.381 170.245C279.502 170.04 279.661 169.873 279.862 169.752C280.063 169.63 280.292 169.542 280.554 169.486C280.811 169.43 281.082 169.402 281.363 169.402C281.55 169.402 281.718 169.411 281.863 169.425C282.008 169.444 282.125 169.463 282.218 169.491V169.355C282.218 169.109 282.143 168.913 281.994 168.764C281.844 168.615 281.587 168.54 281.218 168.54C280.97 168.54 280.727 168.559 280.489 168.591C280.25 168.629 280.04 168.675 279.867 168.74L279.68 167.576C279.764 167.548 279.872 167.524 279.998 167.492C280.124 167.459 280.264 167.436 280.409 167.413C280.554 167.389 280.718 167.371 280.881 167.352C281.045 167.347 281.213 167.338 281.381 167.338ZM281.498 171.569C281.643 171.569 281.779 171.564 281.905 171.559C282.036 171.555 282.139 171.545 282.218 171.531V170.436C282.162 170.422 282.073 170.408 281.956 170.399C281.839 170.385 281.732 170.381 281.634 170.381C281.498 170.381 281.367 170.39 281.25 170.404C281.134 170.418 281.026 170.45 280.933 170.497C280.844 170.544 280.769 170.604 280.718 170.683C280.666 170.763 280.638 170.856 280.638 170.972C280.638 171.201 280.713 171.354 280.867 171.443C281.021 171.522 281.232 171.569 281.498 171.569Z" fill="#0070F4"/>
<path d="M289.678 170.028C289.678 170.424 289.632 170.783 289.533 171.104C289.435 171.426 289.295 171.705 289.103 171.938C288.916 172.171 288.683 172.353 288.402 172.484C288.122 172.614 287.804 172.679 287.439 172.679C287.238 172.679 287.051 172.661 286.874 172.619C286.696 172.577 286.528 172.525 286.369 172.456V174.371H284.92V167.652C285.051 167.615 285.2 167.577 285.369 167.54C285.537 167.503 285.715 167.475 285.897 167.447C286.084 167.424 286.271 167.4 286.462 167.386C286.654 167.372 286.836 167.363 287.014 167.363C287.435 167.363 287.813 167.428 288.14 167.554C288.472 167.68 288.748 167.857 288.977 168.09C289.206 168.318 289.379 168.598 289.496 168.929C289.618 169.25 289.678 169.618 289.678 170.028ZM288.201 170.065C288.201 169.618 288.098 169.264 287.897 168.994C287.696 168.723 287.397 168.593 287.005 168.593C286.874 168.593 286.757 168.598 286.645 168.607C286.533 168.616 286.444 168.626 286.374 168.64V171.249C286.462 171.309 286.584 171.356 286.729 171.393C286.874 171.431 287.023 171.454 287.173 171.454C287.855 171.454 288.201 170.988 288.201 170.065Z" fill="black"/>
<path d="M292.637 167.338C293.067 167.338 293.422 167.385 293.708 167.482C293.993 167.58 294.222 167.72 294.395 167.897C294.568 168.079 294.689 168.298 294.759 168.559C294.829 168.82 294.867 169.104 294.867 169.421V172.426C294.661 172.473 294.371 172.524 294.002 172.584C293.633 172.645 293.184 172.678 292.661 172.678C292.329 172.678 292.03 172.65 291.758 172.589C291.487 172.533 291.258 172.435 291.062 172.305C290.866 172.174 290.716 171.997 290.613 171.788C290.51 171.573 290.459 171.312 290.459 171C290.459 170.702 290.52 170.45 290.637 170.245C290.753 170.04 290.917 169.873 291.118 169.752C291.319 169.63 291.548 169.542 291.81 169.486C292.067 169.43 292.338 169.402 292.618 169.402C292.805 169.402 292.974 169.411 293.119 169.425C293.264 169.444 293.38 169.463 293.474 169.491V169.355C293.474 169.109 293.399 168.913 293.249 168.764C293.1 168.615 292.843 168.54 292.474 168.54C292.226 168.54 291.983 168.559 291.744 168.591C291.506 168.629 291.296 168.675 291.123 168.74L290.936 167.576C291.02 167.548 291.127 167.524 291.254 167.492C291.38 167.464 291.52 167.436 291.665 167.413C291.81 167.389 291.973 167.371 292.137 167.352C292.301 167.347 292.469 167.338 292.637 167.338ZM292.754 171.569C292.899 171.569 293.034 171.564 293.161 171.559C293.292 171.555 293.394 171.545 293.474 171.531V170.436C293.418 170.422 293.329 170.408 293.212 170.399C293.095 170.385 292.988 170.381 292.89 170.381C292.754 170.381 292.623 170.39 292.506 170.404C292.389 170.418 292.282 170.45 292.188 170.497C292.1 170.544 292.025 170.604 291.973 170.683C291.922 170.763 291.894 170.856 291.894 170.972C291.894 171.201 291.969 171.354 292.123 171.443C292.277 171.522 292.488 171.569 292.754 171.569Z" fill="black"/>
<path d="M300.602 167.472C300.307 168.455 300.003 169.378 299.686 170.235C299.368 171.092 299.022 171.931 298.643 172.737C298.508 173.026 298.372 173.278 298.232 173.478C298.096 173.683 297.947 173.851 297.783 173.981C297.62 174.112 297.437 174.209 297.232 174.27C297.026 174.331 296.788 174.363 296.516 174.363C296.288 174.363 296.082 174.345 295.89 174.298C295.699 174.256 295.54 174.209 295.418 174.158L295.67 173.003C295.82 173.054 295.951 173.091 296.068 173.11C296.185 173.129 296.306 173.138 296.437 173.138C296.699 173.138 296.895 173.068 297.035 172.928C297.176 172.788 297.292 172.597 297.391 172.35C297.059 171.703 296.727 170.976 296.4 170.175C296.068 169.368 295.759 168.465 295.465 167.463H297.003C297.068 167.714 297.143 167.989 297.232 168.283C297.32 168.576 297.414 168.875 297.512 169.173C297.61 169.476 297.709 169.765 297.811 170.049C297.914 170.333 298.007 170.594 298.101 170.827C298.185 170.594 298.274 170.338 298.363 170.049C298.456 169.765 298.545 169.471 298.629 169.173C298.718 168.87 298.802 168.576 298.882 168.283C298.961 167.989 299.036 167.714 299.101 167.463H300.602V167.472Z" fill="black"/>
<path d="M304.182 169.866C304.182 169.4 304.121 169.069 304 168.878C303.878 168.687 303.673 168.589 303.383 168.589C303.294 168.589 303.196 168.594 303.103 168.603C303.004 168.613 302.911 168.622 302.822 168.636V172.573H301.373V167.648C301.494 167.616 301.639 167.583 301.808 167.546C301.971 167.508 302.149 167.476 302.331 167.448C302.514 167.42 302.705 167.397 302.902 167.378C303.098 167.364 303.285 167.355 303.477 167.355C303.846 167.355 304.145 167.401 304.379 167.494C304.608 167.588 304.799 167.699 304.949 167.83C305.154 167.681 305.393 167.564 305.664 167.48C305.935 167.397 306.183 167.355 306.407 167.355C306.814 167.355 307.15 167.411 307.412 167.522C307.674 167.634 307.884 167.797 308.038 168.002C308.193 168.207 308.3 168.454 308.361 168.738C308.417 169.023 308.45 169.34 308.45 169.689V172.568H307.001V169.861C307.001 169.395 306.94 169.065 306.818 168.874C306.697 168.678 306.491 168.585 306.201 168.585C306.122 168.585 306.015 168.603 305.874 168.641C305.734 168.678 305.617 168.729 305.529 168.785C305.575 168.934 305.603 169.093 305.617 169.256C305.631 169.419 305.636 169.596 305.636 169.782V172.564H304.187V169.866H304.182Z" fill="black"/>
<path d="M309.516 170.063C309.516 169.611 309.586 169.215 309.726 168.875C309.866 168.535 310.048 168.255 310.278 168.027C310.507 167.799 310.764 167.631 311.058 167.515C311.353 167.398 311.657 167.342 311.97 167.342C312.694 167.342 313.269 167.566 313.69 168.008C314.11 168.451 314.321 169.103 314.321 169.961C314.321 170.045 314.316 170.138 314.311 170.236C314.307 170.338 314.298 170.427 314.293 170.501H311.007C311.039 170.799 311.18 171.032 311.423 171.209C311.671 171.382 312.002 171.47 312.414 171.47C312.68 171.47 312.942 171.447 313.199 171.396C313.456 171.349 313.662 171.289 313.825 171.214L314.021 172.388C313.942 172.425 313.839 172.467 313.708 172.505C313.578 172.542 313.433 172.579 313.274 172.607C313.115 172.635 312.947 172.658 312.764 172.682C312.582 172.7 312.4 172.71 312.222 172.71C311.759 172.71 311.362 172.64 311.021 172.505C310.679 172.37 310.399 172.183 310.175 171.946C309.95 171.708 309.787 171.428 309.679 171.107C309.567 170.785 309.516 170.436 309.516 170.063ZM312.919 169.509C312.914 169.388 312.89 169.266 312.853 169.15C312.816 169.033 312.764 168.931 312.689 168.838C312.615 168.749 312.521 168.675 312.409 168.614C312.297 168.558 312.152 168.526 311.984 168.526C311.82 168.526 311.684 168.554 311.563 168.609C311.446 168.665 311.348 168.735 311.273 168.828C311.194 168.917 311.138 169.024 311.096 169.145C311.053 169.266 311.021 169.388 311.002 169.509H312.919Z" fill="black"/>
<path d="M315.438 167.648C315.686 167.578 316.004 167.513 316.392 167.448C316.78 167.387 317.191 167.355 317.616 167.355C318.051 167.355 318.411 167.411 318.701 167.522C318.991 167.634 319.22 167.797 319.388 168.002C319.556 168.207 319.678 168.454 319.748 168.738C319.818 169.023 319.855 169.34 319.855 169.689V172.568H318.406V169.861C318.406 169.395 318.346 169.065 318.219 168.874C318.098 168.678 317.864 168.585 317.527 168.585C317.425 168.585 317.312 168.589 317.196 168.599C317.079 168.608 316.976 168.617 316.882 168.631V172.568H315.434V167.648H315.438Z" fill="black"/>
<path d="M321.122 166.206L322.571 165.974V167.474H324.315V168.676H322.571V170.47C322.571 170.773 322.622 171.015 322.73 171.197C322.837 171.378 323.052 171.467 323.375 171.467C323.529 171.467 323.693 171.453 323.856 171.425C324.02 171.397 324.174 171.355 324.31 171.304L324.516 172.427C324.338 172.497 324.146 172.557 323.931 172.613C323.716 172.669 323.455 172.692 323.141 172.692C322.744 172.692 322.417 172.641 322.16 172.534C321.898 172.427 321.692 172.278 321.538 172.087C321.384 171.895 321.271 171.662 321.211 171.392C321.15 171.122 321.117 170.819 321.117 170.488V166.206H321.122Z" fill="black"/>
<path d="M326.955 171.537C327.222 171.537 327.408 171.509 327.521 171.458C327.633 171.407 327.685 171.304 327.685 171.155C327.685 171.038 327.614 170.936 327.469 170.847C327.325 170.759 327.11 170.661 326.82 170.549C326.591 170.465 326.385 170.377 326.203 170.288C326.016 170.2 325.861 170.088 325.731 169.962C325.6 169.836 325.501 169.687 325.431 169.51C325.361 169.338 325.324 169.128 325.324 168.881C325.324 168.401 325.501 168.024 325.857 167.744C326.212 167.465 326.703 167.33 327.325 167.33C327.638 167.33 327.932 167.358 328.217 167.414C328.502 167.469 328.731 167.53 328.9 167.591L328.647 168.714C328.479 168.653 328.297 168.602 328.096 168.56C327.9 168.513 327.675 168.49 327.427 168.49C326.974 168.49 326.745 168.616 326.745 168.867C326.745 168.923 326.754 168.979 326.773 169.021C326.792 169.068 326.829 169.11 326.89 169.151C326.946 169.193 327.025 169.24 327.128 169.287C327.231 169.338 327.357 169.389 327.511 169.45C327.829 169.566 328.091 169.683 328.301 169.799C328.507 169.911 328.671 170.037 328.792 170.167C328.914 170.298 328.998 170.447 329.044 170.61C329.091 170.773 329.119 170.959 329.119 171.169C329.119 171.672 328.928 172.054 328.549 172.31C328.171 172.567 327.633 172.697 326.941 172.697C326.488 172.697 326.109 172.66 325.81 172.581C325.506 172.502 325.3 172.441 325.184 172.385L325.427 171.211C325.675 171.309 325.927 171.383 326.184 171.439C326.446 171.509 326.703 171.537 326.955 171.537Z" fill="black"/>
</svg>
