<svg width="382" height="246" viewBox="0 0 382 246" fill="none" xmlns="http://www.w3.org/2000/svg">
<path d="M381.77 18.135L379.291 15.8475L377.392 15.0483L375.928 13.0501L375.182 12.5127L373.449 11.9546L373.428 11.0933L369.464 1.78482L366.619 0.585938L365.832 0.79264L365.051 2.03286L364.43 2.52206L363.484 2.68742L361.626 4.49952L361.046 3.80362L360.183 3.47289L359.851 3.01814L359.396 3.14217L357.814 20.8084L356.875 22.2415L356.385 22.6205L357.096 22.9512L357.538 23.4473L357.151 24.3292V25.8657L355.28 26.5203L353.906 28.0568L353.795 29.4348L332.387 37.8338L328.644 45.7988L326.331 48.2655L326.22 49.2576L326.718 49.7537L328.914 49.8088L328.969 51.5107L328.368 52.4409L329.908 54.4183L319.232 59.9097L318.016 59.4688L312.188 62.1077L311.691 62.5487L311.912 63.6993L314.329 66.7723L297.382 83.0881L289.952 86.2713L289.51 85.5547L288.791 85.2791L287.086 85.3342L286.374 84.9553L285.435 85.0104L284.938 83.7977L286.153 82.8124L287.472 75.0129L288.246 74.3514L288.847 74.4065L289.454 74.0758L290.007 73.9725L290.276 70.6721L289.786 70.7272L289.233 70.0726L287.141 64.5812L285.546 62.7691L284.613 62.6589L283.011 63.1481L280.974 66.7172L280.318 66.9928L279.379 67.0479L278.723 66.7723L278.668 65.2358L280.65 62.4384L280.705 60.7366L281.195 59.4137L280.65 55.9548L279.821 55.19L279.379 54.3081L279.489 53.6535L279.931 53.1574L279.766 52.4409L276.741 50.9595L271.838 50.5185L271.016 50.0776L270.022 49.9191L268.979 50.4083L268.15 51.18L268.095 52.2755L269.145 53.1574L268.703 53.7569L267.881 54.1427L267.328 54.1978L267.384 58.3181L266.444 58.3732L265.788 57.7118L265.457 56.0099L264.739 56.1202L263.696 57.9874L262.867 58.7591L262.211 58.9796L261.935 61.0673L261.438 61.3911L261.935 62.8794L261.769 65.6216L261.327 66.3933V68.5293L261.825 69.301L261.714 70.8926L264.193 74.0207L263.807 85.224L262.377 87.8629L260.008 89.3994L258.303 89.5648L255.492 85.3894L253.241 73.9173L254.173 71.2784L253.786 70.0175L253.897 68.5293L254.725 66.5587L254.394 64.471L256.044 60.02L256.1 58.9245L256.486 58.1528L255.934 57.9323L254.891 58.8142L254.173 61.0122L252.799 62.273L251.97 64.1954L251.148 64.6364L251.038 63.4237L252.246 59.5239L251.984 58.4422L255.216 52.8818L255.382 51.0697L255.768 51.7863L256.818 52.4409L257.087 52.1101L257.142 51.4556L257.805 51.2351L258.082 51.5658L257.916 52.2755L258.137 52.937L259.622 51.5658L260.119 50.6288L260.996 49.9191L262.046 49.5884L264.628 47.1148L268.758 47.666L269.31 48.2172L269.966 48.107L270.132 47.8314L270.187 46.2398L273.109 46.7841L273.44 46.2398L273.495 45.6334L271.403 43.9867L270.408 43.7111L267.605 44.5861L265.844 43.3253L265.899 41.2376L265.402 41.1273L264.905 41.6785L256.376 46.35L255.326 45.7988L254.394 45.6334L253.897 45.909L251.97 45.7437L249.553 43.4906L246.245 43.215L245.368 43.8765V41.5132L246.024 40.8586L246.963 40.4728L248.061 38.2748V37.7236L244.926 38.7158L243.662 40.0318L242.613 40.583L241.349 41.899L240.962 42.8843L239.809 43.3253L237.993 45.413H237.109L234.526 47.7211L233.421 47.9968L233.159 48.2103L229.513 48.1621V45.8539L228.249 45.7988L224.672 47.4455L222.193 47.3904L229.133 38.826L236.232 34.375L230.452 34.2096L229.623 34.5955L227.807 33.7136L226.598 33.7687L224.893 34.8711L223.843 34.6506L223.187 33.9892L219.665 32.7283L218.892 32.8936L218.45 33.5L217.738 32.5629L217.573 31.2469L217.075 30.6957H216.254L213.83 31.7912H212.835L212.124 31.4123H211.295L210.75 31.7912L209.866 31.5225L209.59 31.0815L207.387 30.6406L207.007 30.365L204.804 30.6406L202.104 25.6452L201.558 25.4248L200.067 28.3875L200.011 28.7182L109.85 25.4937L32.582 7.95835L34.6192 11.5274L33.9079 12.9606L34.0667 16.0336L34.6192 17.074L34.3429 18.6725L32.8582 19.8231L32.582 22.2967L31.8155 23.6678L30.0545 24.7633L27.9068 24.4326L27.4648 22.462L30.3791 22.7859L31.484 20.209L30.3238 19.9885L29.723 19.0514L31.0973 18.0661V16.9706L21.6295 11.3138L20.4762 11.0382L19.5371 12.6298L20.2553 21.2494L19.979 22.2415L21.0287 23.778L20.2 24.5428L19.979 25.535L20.642 26.4652L20.863 27.5125L20.2 28.2221H19.2608V29.6002L21.6847 31.7361L18.7153 31.5225L6.49215 58.3181L6.03637 62.714L5.50463 63.7544L5.39414 72.9803L4.5102 74.7373V76.9903L0.988281 80.5594V83.7426L2.14844 85.4445L2.694 91.7627L1.92746 95.2215L2.36943 99.6174L4.24088 102.966L4.13039 106.866L6.54739 109.222L8.52934 107.465L8.3636 111.255H7.37608L6.93411 115.761L10.6218 120.811L8.91606 123.616L15.2486 137.01L14.8619 143.383L15.8494 144.81L30.1097 153.98L30.6553 155.958L33.8526 157.549L36.9878 163.537V167.106H37.9754V169.683L56.0891 171.991V173.417L84.0435 189.892L107.33 192.475L107.765 188.19L121.086 188.906L137.597 212.023L146.299 216.639L146.844 215.323L148.495 214.882L150.366 211.589L151.913 211.258L153.674 210.052L160.497 211.368L179.543 241.133L188.79 244.427H190.986L193.41 245.412L195.723 245.026V244.316L194.349 244.206L193.741 240.362L193.023 239.211L192.367 236.296L192.857 235.201L192.968 232.397L191.704 232.452L191.483 231.687L192.367 231.191L193.354 231.081L193.851 228.228L193.299 228.173L192.857 227.567L193.189 227.071L194.349 227.015L195.226 225.479L194.673 224.659L195.17 223.998L195.999 224.494L196.545 223.557L197.871 222.737L198.527 220.814L199.3 220.649L199.521 221.304L201.613 219.932L201.006 219.278L202.822 218.231L204.583 219.002L207.497 218.231L208.657 216.97L209.866 216.363L210.418 214.882L212.78 212.464L212.801 209.28L214.707 207.358L214.493 209.115L215.37 209.611L215.093 210.927L226.101 207.303L235.293 208.343V207.248L236.943 205.987L237.938 205.932L241.957 207.578L242.178 206.807L241.791 205.821L240.362 204.609V203.183L240.962 203.899L241.846 204.23L242.668 204.884L243.221 210.651L245.479 211.864L246.577 211.368L247.405 210.596L248.724 210.376L249.822 210.927L251.583 210.266L252.467 209.556V208.019L251.694 206.373L250.485 205.877L250.43 205.491L250.651 204.829L251.259 204.664L252.191 205.16L252.854 206.531L258.468 209.997H259.622L260.34 209.115L260.616 208.075L260.174 207.193L259.29 206.531L257.805 206.373L256.763 205.821L256.21 205.27L256.652 203.127L258.689 202.742L259.124 202.087L258.413 201.37L256.763 200.606L255.989 201.315L254.284 201.701L254.063 200.275L253.455 199.889L252.523 200.054L252.136 201.095L249.166 200.661L248.338 199.503L248.006 198.518L249.443 198.298L250.706 197.636L255.879 199.338L259.511 196.761L265.954 195.714L267.66 193.626L268.868 195.493L270.298 195.934L273.44 195.28L274.041 193.468L274.98 193.247L275.857 193.516L277.452 193.468L278.336 192.971L279.876 192.641L286.589 194.232L287.141 195.28L288.681 195.879L289.565 197.416L290.442 197.636L296.112 194.839L296.443 193.247H301.339L303.818 196.816L309.488 199.889L311.028 203.348L311.366 210.052L312.347 211.368L313.01 210.431L314.115 210.817V213.18L313.618 214.331L315.268 217.245L317.906 219.002L318.735 218.175L320.661 220.869L321.435 221.248V222.185L323.085 223.667L323.852 226.526L325.613 227.291L328.969 230.585L330.682 231.301L329.356 232.286L330.184 232.893L331.393 232.838L332.166 231.963L333.43 232.128L335.357 229.654L335.854 215.922L333.927 212.629L333.817 210.927L327.049 200.165L329.356 200.881L319.563 184.297L318.79 186.543L318.735 189.733L317.581 186.433L317.802 184.951L318.845 183.801L318.293 177.593L318.9 176.663L319.011 172.322L320.275 169.793L320.496 167.602L320.993 166.445L320.772 164.688L321.815 164.908L322.257 163.978L327.374 160.243L327.65 158.921L328.755 158.211L330.785 155.241L330.896 154.035L331.945 153.319L335.357 146.732L340.142 143.714L341.634 139.153L345.101 135.363L347.739 134.543L348.457 133.992L349.389 131.904L348.899 131.684L348.181 131.629L347.248 132.566L345.536 133.331L344.272 132.566L344.714 132.235L346.088 132.18L346.585 131.739L347.304 129.266L344.217 129.052L344.493 128.611L346.42 128.115L346.475 127.13L347.794 126.964L348.733 127.509L349.721 127.074L351.04 125.862L351.758 124.215L351.537 121.032L350.881 120.536L350.273 121.142L349.444 122.734L348.844 122.238L345.702 122.127L344.383 123.12L344.327 122.238L343.83 121.142L343.775 120.15H344.548L345.322 120.922L345.978 120.811L347.96 119.22L349.776 118.834L347.904 115.981L348.015 115.43L348.733 115.155L347.027 113.122L343.616 113.067L343.229 112.736L341.848 112.578L341.413 112.026L344.604 111.861L341.903 109.553L342.843 109.332L343.664 108.733L343.395 107.851L340.529 106.094L340.805 105.543L341.903 105.984L343.008 105.874V104.778L340.916 102.856L340.805 102.029L342.014 101.54L341.524 100.658L340.419 99.9964L337.891 93.9606L338.133 92.7204L340.488 89.427L340.943 90.0884L340.861 90.991L340.363 91.8178L340.239 92.4724L340.612 93.0925L340.695 93.9606L340.198 94.4498L340.571 95.0286L341.026 95.2353L342.304 97.2128L342.014 98.1154L342.718 98.9422L344.534 99.9275L345.322 102.401L347.338 102.484L347.138 103.758L346.434 104.751L346.102 106.067L346.682 108.292L347.753 106.935L349.32 98.4874L349.859 97.95L349.734 96.3446L349.237 95.566L349.078 94.2087L345.405 91.9418L344.907 90.5776V88.8068L348.581 89.799L349.078 90.6189L349.237 92.1899L349.734 91.9005L353.035 77.4037L350.48 77.073L350.439 75.8328L352.379 71.0166L356.136 66.855L365.549 61.336V59.6479L366.08 58.952L366.288 57.9598L367.648 58.6626L368.601 58.828L369.506 58.1665L369.713 57.2226L370.293 56.3958L371.488 57.1813L374.996 53.6397V51.9448L371.985 50.5874L372.109 51.3316L372.772 52.2342L373.021 53.7982L372.523 54.5424L371.287 54.9971L369.754 54.8317L368.228 52.3582L367.448 51.7036L366.412 51.5796L365.956 50.9595L365.632 49.6021L365.79 48.3206L366.495 47.7487L366.288 47.3766L365.756 46.9219L364.886 46.5498L367.489 36.1733L368.601 35.6359L370.624 32.9212L371.819 32.0944L372.358 30.5717L372.399 27.8156L372.109 27.1542L372.275 26.6994L373.262 26.3687L373.469 27.4022L374.215 27.8983L374.961 27.4022L375.127 26.5754L376.114 25.5901L376.694 25.3007L377.309 25.5488L377.516 24.722L381.397 20.0712L381.77 18.135Z" fill="#0070F4"/>
<path d="M351 60L362 56.5L364 60L365 61.5L356 67L353.5 69.5L352.5 64.5L351.5 63L351 60Z" fill="#004392"/>
<path d="M346.5 70L344.5 69.5L343.5 74.5V77.5L346.5 79L350.5 76L353 69.5L348 70.5L346.5 70Z" fill="#004392"/>
<path d="M322.932 76.7804C323.304 76.6759 323.782 76.5784 324.366 76.4809C324.95 76.3903 325.568 76.3416 326.208 76.3416C326.862 76.3416 327.404 76.4252 327.84 76.5923C328.276 76.7665 328.62 77.0034 328.873 77.3169C329.126 77.6234 329.309 77.9926 329.415 78.4176C329.52 78.8425 329.576 79.3162 329.576 79.8387V84.144H327.397V80.0965C327.397 79.3998 327.305 78.9052 327.115 78.6196C326.933 78.327 326.588 78.1877 326.075 78.1877C325.92 78.1877 325.751 78.1946 325.576 78.2086C325.407 78.2225 325.252 78.2364 325.111 78.2573V84.144H322.932V76.7804Z" fill="#E5F1FE"/>
<path d="M335.932 51.7804C336.304 51.6759 336.782 51.5784 337.366 51.4809C337.95 51.3903 338.568 51.3416 339.208 51.3416C339.862 51.3416 340.404 51.4252 340.84 51.5923C341.276 51.7665 341.62 52.0034 341.873 52.3169C342.126 52.6234 342.309 52.9926 342.415 53.4176C342.52 53.8425 342.576 54.3162 342.576 54.8387V59.144H340.397V55.0965C340.397 54.3998 340.305 53.9052 340.115 53.6196C339.933 53.327 339.588 53.1877 339.075 53.1877C338.92 53.1877 338.751 53.1946 338.576 53.2086C338.407 53.2225 338.252 53.2364 338.111 53.2573V59.144H335.932V51.7804Z" fill="#E5F1FE"/>
<path d="M365.315 17.6988C365.564 17.6292 365.883 17.5642 366.272 17.4991C366.661 17.4388 367.073 17.4062 367.5 17.4062C367.936 17.4062 368.297 17.462 368.587 17.5734C368.878 17.6896 369.108 17.8475 369.277 18.0565C369.445 18.2608 369.567 18.5069 369.638 18.7903C369.708 19.0735 369.745 19.3894 369.745 19.7377V22.6079H368.292V19.9095C368.292 19.4451 368.231 19.1154 368.105 18.9249C367.983 18.7299 367.753 18.637 367.411 18.637C367.308 18.637 367.195 18.6416 367.078 18.6509C366.966 18.6602 366.862 18.6695 366.769 18.6834V22.6079H365.315V17.6988Z" fill="#E5F1FE"/>
<path d="M359.063 49.9488C359.312 49.8792 359.631 49.8142 360.02 49.7491C360.409 49.6888 360.821 49.6562 361.248 49.6562C361.684 49.6562 362.045 49.712 362.336 49.8234C362.626 49.9396 362.856 50.0975 363.025 50.3065C363.193 50.5108 363.315 50.7569 363.386 51.0403C363.456 51.3235 363.493 51.6394 363.493 51.9877V54.8579H362.04V52.1595C362.04 51.6951 361.979 51.3654 361.853 51.1749C361.731 50.9799 361.501 50.887 361.159 50.887C361.056 50.887 360.943 50.8916 360.826 50.9009C360.714 50.9102 360.61 50.9195 360.517 50.9334V54.8579H359.063V49.9488Z" fill="#E5F1FE"/>
<path d="M110.922 38.3918C111.295 38.2873 111.773 38.1897 112.356 38.0922C112.94 38.0016 113.559 37.9529 114.199 37.9529C114.853 37.9529 115.394 38.0365 115.83 38.2037C116.266 38.3778 116.61 38.6147 116.864 38.9282C117.117 39.2347 117.299 39.6039 117.405 40.0289C117.51 40.4538 117.567 40.9276 117.567 41.4501V45.7553H115.387V41.7078C115.387 41.0112 115.296 40.5165 115.106 40.2309C114.923 39.9383 114.578 39.799 114.065 39.799C113.91 39.799 113.742 39.806 113.566 39.8199C113.397 39.8338 113.242 39.8478 113.102 39.8686V45.7553H110.922V38.3918Z" fill="#E5F1FE"/>
<path d="M117.178 80.005C117.55 79.9006 118.029 79.803 118.612 79.7055C119.196 79.6149 119.815 79.5662 120.454 79.5662C121.108 79.5662 121.65 79.6498 122.086 79.817C122.522 79.9911 122.866 80.228 123.119 80.5415C123.373 80.848 123.555 81.2172 123.661 81.6422C123.766 82.0671 123.823 82.5408 123.823 83.0633V87.3686H121.643V83.3211C121.643 82.6244 121.551 82.1298 121.362 81.8442C121.179 81.5516 120.834 81.4123 120.321 81.4123C120.166 81.4123 119.997 81.4192 119.822 81.4332C119.653 81.4471 119.498 81.461 119.358 81.4819V87.3686H117.178V80.005Z" fill="#E5F1FE"/>
<path d="M165.125 39.4328C165.498 39.3283 165.976 39.2308 166.559 39.1332C167.143 39.0427 167.762 38.9939 168.402 38.9939C169.056 38.9939 169.597 39.0775 170.033 39.2447C170.469 39.4188 170.814 39.6557 171.067 39.9692C171.32 40.2757 171.503 40.6449 171.608 41.0699C171.714 41.4948 171.77 41.9686 171.77 42.4911V46.7963H169.59V42.7488C169.59 42.0522 169.499 41.5576 169.309 41.2719C169.126 40.9793 168.781 40.84 168.268 40.84C168.113 40.84 167.945 40.847 167.769 40.8609C167.6 40.8749 167.445 40.8888 167.305 40.9097V46.7963H165.125V39.4328Z" fill="#E5F1FE"/>
<path d="M203.691 49.8351C204.064 49.7306 204.542 49.6331 205.126 49.5356C205.709 49.445 206.328 49.3962 206.968 49.3962C207.622 49.3962 208.163 49.4798 208.599 49.647C209.035 49.8212 209.38 50.0581 209.633 50.3715C209.886 50.6781 210.069 51.0473 210.175 51.4722C210.28 51.8972 210.336 52.3709 210.336 52.8934V57.1987H208.156V53.1512C208.156 52.4545 208.065 51.9599 207.875 51.6743C207.692 51.3817 207.348 51.2424 206.835 51.2424C206.68 51.2424 206.511 51.2493 206.335 51.2632C206.167 51.2772 206.012 51.2911 205.871 51.312V57.1987H203.691V49.8351Z" fill="#E5F1FE"/>
<path d="M237.045 62.3195C237.418 62.215 237.896 62.1175 238.479 62.0199C239.063 61.9294 239.682 61.8806 240.322 61.8806C240.976 61.8806 241.517 61.9642 241.953 62.1314C242.389 62.3056 242.733 62.5424 242.987 62.8559C243.24 63.1624 243.423 63.5316 243.528 63.9566C243.634 64.3816 243.69 64.8553 243.69 65.3778V69.683H241.51V65.6356C241.51 64.9389 241.419 64.4443 241.229 64.1586C241.046 63.8661 240.701 63.7267 240.188 63.7267C240.033 63.7267 239.865 63.7337 239.689 63.7476C239.52 63.7616 239.365 63.7755 239.225 63.7964V69.683H237.045V62.3195Z" fill="#E5F1FE"/>
<path d="M250.726 46.9432C250.85 46.9083 251.009 46.8758 251.204 46.8433C251.398 46.8131 251.605 46.7969 251.818 46.7969C252.036 46.7969 252.216 46.8247 252.362 46.8805C252.507 46.9385 252.622 47.0175 252.706 47.122C252.791 47.2241 252.851 47.3472 252.887 47.4889C252.922 47.6305 252.941 47.7884 252.941 47.9626V49.3977H252.214V48.0485C252.214 47.8163 252.183 47.6514 252.12 47.5562C252.059 47.4587 251.944 47.4122 251.773 47.4122C251.722 47.4122 251.665 47.4146 251.607 47.4192C251.551 47.4239 251.499 47.4285 251.452 47.4355V49.3977H250.726V46.9432Z" fill="#E5F1FE"/>
<path d="M270.4 67.5207C270.773 67.4162 271.251 67.3186 271.835 67.2211C272.418 67.1306 273.037 67.0818 273.677 67.0818C274.331 67.0818 274.872 67.1654 275.308 67.3326C275.744 67.5067 276.089 67.7436 276.342 68.0571C276.595 68.3636 276.778 68.7328 276.884 69.1578C276.989 69.5827 277.045 70.0565 277.045 70.579V74.8842H274.865V70.8367C274.865 70.1401 274.774 69.6454 274.584 69.3598C274.401 69.0672 274.057 68.9279 273.544 68.9279C273.389 68.9279 273.22 68.9349 273.044 68.9488C272.876 68.9628 272.721 68.9767 272.58 68.9975V74.8842H270.4V67.5207Z" fill="#E5F1FE"/>
<path d="M213.072 89.3683C213.445 89.2638 213.923 89.1663 214.507 89.0688C215.09 88.9782 215.709 88.9294 216.349 88.9294C217.003 88.9294 217.544 89.013 217.98 89.1802C218.416 89.3544 218.761 89.5913 219.014 89.9047C219.267 90.2113 219.45 90.5805 219.555 91.0055C219.661 91.4304 219.717 91.9041 219.717 92.4266V96.7319H217.537V92.6844C217.537 91.9877 217.446 91.4931 217.256 91.2075C217.073 90.9149 216.729 90.7756 216.215 90.7756C216.061 90.7756 215.892 90.7825 215.716 90.7964C215.547 90.8104 215.393 90.8243 215.252 90.8452V96.7319H213.072V89.3683Z" fill="#E5F1FE"/>
<path d="M244.342 103.933C244.714 103.828 245.193 103.731 245.776 103.633C246.36 103.543 246.979 103.494 247.619 103.494C248.272 103.494 248.814 103.577 249.25 103.745C249.686 103.919 250.03 104.156 250.284 104.469C250.537 104.776 250.719 105.145 250.825 105.57C250.93 105.995 250.987 106.469 250.987 106.991V111.296H248.807V107.249C248.807 106.552 248.715 106.058 248.526 105.772C248.343 105.479 247.998 105.34 247.485 105.34C247.33 105.34 247.161 105.347 246.986 105.361C246.817 105.375 246.662 105.389 246.522 105.41V111.296H244.342V103.933Z" fill="#E5F1FE"/>
<path d="M280.824 119.538C281.197 119.434 281.675 119.336 282.259 119.239C282.842 119.148 283.461 119.099 284.101 119.099C284.755 119.099 285.296 119.183 285.732 119.35C286.168 119.524 286.513 119.761 286.766 120.075C287.019 120.381 287.202 120.75 287.307 121.175C287.413 121.6 287.469 122.074 287.469 122.597V126.902H285.289V122.854C285.289 122.158 285.198 121.663 285.008 121.377C284.825 121.085 284.481 120.945 283.967 120.945C283.813 120.945 283.644 120.952 283.468 120.966C283.299 120.98 283.145 120.994 283.004 121.015V126.902H280.824V119.538Z" fill="#E5F1FE"/>
<path d="M267.271 98.7316C267.644 98.6271 268.122 98.5296 268.706 98.4321C269.29 98.3415 269.908 98.2927 270.548 98.2927C271.202 98.2927 271.744 98.3763 272.18 98.5435C272.615 98.7177 272.96 98.9545 273.213 99.268C273.466 99.5745 273.649 99.9438 273.755 100.369C273.86 100.794 273.916 101.267 273.916 101.79V106.095H271.737V102.048C271.737 101.351 271.645 100.856 271.455 100.571C271.272 100.278 270.928 100.139 270.415 100.139C270.26 100.139 270.091 100.146 269.915 100.16C269.747 100.174 269.592 100.188 269.451 100.208V106.095H267.271V98.7316Z" fill="#E5F1FE"/>
<path d="M288.119 91.4484C288.492 91.3439 288.97 91.2464 289.554 91.1488C290.137 91.0583 290.756 91.0095 291.396 91.0095C292.05 91.0095 292.591 91.0931 293.027 91.2603C293.463 91.4345 293.808 91.6713 294.061 91.9848C294.314 92.2913 294.497 92.6606 294.602 93.0855C294.708 93.5105 294.764 93.9842 294.764 94.5067V98.8119H292.584V94.7645C292.584 94.0678 292.493 93.5732 292.303 93.2875C292.12 92.995 291.776 92.8556 291.262 92.8556C291.108 92.8556 290.939 92.8626 290.763 92.8765C290.594 92.8905 290.44 92.9044 290.299 92.9253V98.8119H288.119V91.4484Z" fill="#E5F1FE"/>
<path d="M306.881 102.892C307.254 102.787 307.732 102.69 308.315 102.592C308.899 102.502 309.518 102.453 310.158 102.453C310.812 102.453 311.353 102.536 311.789 102.704C312.225 102.878 312.569 103.115 312.823 103.428C313.076 103.735 313.258 104.104 313.364 104.529C313.469 104.954 313.526 105.428 313.526 105.95V110.255H311.346V106.208C311.346 105.511 311.255 105.017 311.065 104.731C310.882 104.438 310.537 104.299 310.024 104.299C309.869 104.299 309.701 104.306 309.525 104.32C309.356 104.334 309.201 104.348 309.061 104.369V110.255H306.881V102.892Z" fill="#E5F1FE"/>
<path d="M326.686 107.054C327.058 106.949 327.536 106.852 328.12 106.754C328.704 106.664 329.322 106.615 329.962 106.615C330.616 106.615 331.158 106.699 331.594 106.866C332.03 107.04 332.374 107.277 332.627 107.59C332.88 107.897 333.063 108.266 333.169 108.691C333.274 109.116 333.33 109.59 333.33 110.112V114.417H331.151V110.37C331.151 109.673 331.059 109.179 330.869 108.893C330.687 108.6 330.342 108.461 329.829 108.461C329.674 108.461 329.505 108.468 329.329 108.482C329.161 108.496 329.006 108.51 328.865 108.531V114.417H326.686V107.054Z" fill="#E5F1FE"/>
<path d="M337.173 91.5621C337.421 91.4925 337.74 91.4274 338.129 91.3624C338.518 91.302 338.931 91.2695 339.357 91.2695C339.793 91.2695 340.154 91.3253 340.445 91.4367C340.736 91.5528 340.965 91.7107 341.134 91.9197C341.303 92.1241 341.425 92.3702 341.495 92.6535C341.565 92.9368 341.603 93.2526 341.603 93.601V96.4711H340.15V93.7728C340.15 93.3084 340.089 92.9786 339.962 92.7882C339.84 92.5932 339.61 92.5003 339.268 92.5003C339.165 92.5003 339.053 92.5049 338.935 92.5142C338.823 92.5235 338.72 92.5328 338.626 92.5467V96.4711H337.173V91.5621Z" fill="#E5F1FE"/>
<path d="M347.597 81.1578C347.845 81.0882 348.164 81.0231 348.553 80.9581C348.942 80.8977 349.355 80.8652 349.781 80.8652C350.217 80.8652 350.578 80.921 350.869 81.0324C351.159 81.1485 351.389 81.3064 351.558 81.5154C351.727 81.7198 351.848 81.9659 351.919 82.2492C351.989 82.5325 352.027 82.8484 352.027 83.1967V86.0668H350.573V83.3685C350.573 82.9041 350.512 82.5743 350.386 82.3839C350.264 82.1889 350.034 82.096 349.692 82.096C349.589 82.096 349.476 82.1006 349.359 82.1099C349.247 82.1192 349.144 82.1285 349.05 82.1424V86.0668H347.597V81.1578Z" fill="#E5F1FE"/>
<path d="M347.597 36.4254C347.845 36.3557 348.164 36.2907 348.553 36.2257C348.942 36.1653 349.355 36.1328 349.781 36.1328C350.217 36.1328 350.578 36.1885 350.869 36.3C351.159 36.4161 351.389 36.574 351.558 36.783C351.727 36.9874 351.848 37.2335 351.919 37.5168C351.989 37.8001 352.027 38.1159 352.027 38.4643V41.3344H350.573V38.6361C350.573 38.1717 350.512 37.8419 350.386 37.6515C350.264 37.4564 350.034 37.3636 349.692 37.3636C349.589 37.3636 349.476 37.3682 349.359 37.3775C349.247 37.3868 349.144 37.3961 349.05 37.41V41.3344H347.597V36.4254Z" fill="#E5F1FE"/>
<path d="M326.686 127.861C327.058 127.756 327.536 127.658 328.12 127.561C328.704 127.47 329.322 127.422 329.962 127.422C330.616 127.422 331.158 127.505 331.594 127.672C332.03 127.847 332.374 128.083 332.627 128.397C332.88 128.703 333.063 129.073 333.169 129.498C333.274 129.923 333.33 130.396 333.33 130.919V135.224H331.151V131.177C331.151 130.48 331.059 129.985 330.869 129.7C330.687 129.407 330.342 129.268 329.829 129.268C329.674 129.268 329.505 129.275 329.329 129.289C329.161 129.303 329.006 129.317 328.865 129.337V135.224H326.686V127.861Z" fill="#E5F1FE"/>
<path d="M317.305 148.667C317.677 148.563 318.156 148.465 318.739 148.368C319.323 148.277 319.942 148.228 320.581 148.228C321.235 148.228 321.777 148.312 322.213 148.479C322.649 148.653 322.993 148.89 323.246 149.204C323.499 149.51 323.682 149.879 323.788 150.304C323.893 150.729 323.95 151.203 323.95 151.725V156.031H321.77V151.983C321.77 151.287 321.678 150.792 321.488 150.506C321.306 150.214 320.961 150.074 320.448 150.074C320.293 150.074 320.124 150.081 319.949 150.095C319.78 150.109 319.625 150.123 319.484 150.144V156.031H317.305V148.667Z" fill="#E5F1FE"/>
<path d="M298.543 163.232C298.916 163.127 299.394 163.03 299.977 162.932C300.561 162.841 301.18 162.793 301.82 162.793C302.474 162.793 303.015 162.876 303.451 163.044C303.887 163.218 304.232 163.455 304.485 163.768C304.738 164.075 304.921 164.444 305.026 164.869C305.132 165.294 305.188 165.767 305.188 166.29V170.595H303.008V166.548C303.008 165.851 302.917 165.356 302.727 165.071C302.544 164.778 302.199 164.639 301.686 164.639C301.531 164.639 301.363 164.646 301.187 164.66C301.018 164.674 300.863 164.688 300.723 164.708V170.595H298.543V163.232Z" fill="#E5F1FE"/>
<path d="M272.484 138.263C272.857 138.158 273.335 138.061 273.919 137.963C274.502 137.873 275.121 137.824 275.761 137.824C276.415 137.824 276.956 137.908 277.392 138.075C277.828 138.249 278.173 138.486 278.426 138.799C278.679 139.106 278.862 139.475 278.968 139.9C279.073 140.325 279.129 140.799 279.129 141.321V145.626H276.949V141.579C276.949 140.882 276.858 140.388 276.668 140.102C276.485 139.809 276.141 139.67 275.627 139.67C275.473 139.67 275.304 139.677 275.128 139.691C274.959 139.705 274.805 139.719 274.664 139.74V145.626H272.484V138.263Z" fill="#E5F1FE"/>
<path d="M224.537 123.698C224.91 123.594 225.388 123.496 225.972 123.399C226.555 123.308 227.174 123.26 227.814 123.26C228.468 123.26 229.009 123.343 229.445 123.51C229.881 123.684 230.226 123.921 230.479 124.235C230.732 124.541 230.915 124.911 231.02 125.336C231.126 125.76 231.182 126.234 231.182 126.757V131.062H229.002V127.014C229.002 126.318 228.911 125.823 228.721 125.538C228.538 125.245 228.194 125.106 227.68 125.106C227.526 125.106 227.357 125.113 227.181 125.127C227.012 125.14 226.858 125.154 226.717 125.175V131.062H224.537V123.698Z" fill="#E5F1FE"/>
<path d="M250.596 172.593C250.968 172.488 251.447 172.391 252.03 172.293C252.614 172.203 253.233 172.154 253.872 172.154C254.526 172.154 255.068 172.238 255.504 172.405C255.94 172.579 256.284 172.816 256.537 173.129C256.791 173.436 256.973 173.805 257.079 174.23C257.184 174.655 257.241 175.129 257.241 175.651V179.956H255.061V175.909C255.061 175.212 254.969 174.718 254.779 174.432C254.597 174.139 254.252 174 253.739 174C253.584 174 253.415 174.007 253.24 174.021C253.071 174.035 252.916 174.049 252.775 174.07V179.956H250.596V172.593Z" fill="#E5F1FE"/>
<path d="M226.621 154.909C226.994 154.805 227.472 154.707 228.056 154.61C228.639 154.519 229.258 154.47 229.898 154.47C230.552 154.47 231.093 154.554 231.529 154.721C231.965 154.895 232.31 155.132 232.563 155.446C232.816 155.752 232.999 156.121 233.104 156.546C233.21 156.971 233.266 157.445 233.266 157.968V162.273H231.086V158.225C231.086 157.529 230.995 157.034 230.805 156.748C230.622 156.456 230.278 156.317 229.764 156.317C229.61 156.317 229.441 156.324 229.265 156.337C229.096 156.351 228.942 156.365 228.801 156.386V162.273H226.621V154.909Z" fill="#E5F1FE"/>
<path d="M191.182 150.747C191.554 150.643 192.032 150.545 192.616 150.448C193.2 150.357 193.818 150.308 194.458 150.308C195.112 150.308 195.654 150.392 196.09 150.559C196.526 150.733 196.87 150.97 197.123 151.284C197.376 151.59 197.559 151.959 197.665 152.384C197.77 152.809 197.826 153.283 197.826 153.806V158.111H195.647V154.063C195.647 153.367 195.555 152.872 195.365 152.586C195.183 152.294 194.838 152.154 194.325 152.154C194.17 152.154 194.001 152.161 193.826 152.175C193.657 152.189 193.502 152.203 193.361 152.224V158.111H191.182V150.747Z" fill="#E5F1FE"/>
<path d="M175.547 190.28C175.92 190.176 176.398 190.078 176.981 189.981C177.565 189.89 178.184 189.842 178.824 189.842C179.478 189.842 180.019 189.925 180.455 190.092C180.891 190.267 181.235 190.503 181.489 190.817C181.742 191.123 181.924 191.493 182.03 191.918C182.135 192.342 182.192 192.816 182.192 193.339V197.644H180.012V193.596C180.012 192.9 179.921 192.405 179.731 192.12C179.548 191.827 179.203 191.688 178.69 191.688C178.535 191.688 178.367 191.695 178.191 191.709C178.022 191.723 177.867 191.736 177.727 191.757V197.644H175.547V190.28Z" fill="#E5F1FE"/>
<path d="M123.432 161.152C123.804 161.047 124.282 160.95 124.866 160.852C125.45 160.761 126.068 160.713 126.708 160.713C127.362 160.713 127.904 160.796 128.34 160.963C128.776 161.138 129.12 161.374 129.373 161.688C129.626 161.994 129.809 162.364 129.915 162.789C130.02 163.214 130.076 163.687 130.076 164.21V168.515H127.897V164.468C127.897 163.771 127.805 163.276 127.615 162.991C127.433 162.698 127.088 162.559 126.575 162.559C126.42 162.559 126.251 162.566 126.076 162.58C125.907 162.594 125.752 162.608 125.611 162.628V168.515H123.432V161.152Z" fill="#E5F1FE"/>
<path d="M79.6543 160.111C80.027 160.006 80.5051 159.908 81.0887 159.811C81.6724 159.72 82.2911 159.672 82.931 159.672C83.5849 159.672 84.1264 159.755 84.5624 159.922C84.9983 160.097 85.3429 160.333 85.596 160.647C85.8491 160.953 86.0319 161.323 86.1374 161.748C86.2429 162.173 86.2991 162.646 86.2991 163.169V167.474H84.1194V163.427C84.1194 162.73 84.0279 162.235 83.8381 161.95C83.6553 161.657 83.3107 161.518 82.7974 161.518C82.6427 161.518 82.474 161.525 82.2982 161.539C82.1294 161.553 81.9747 161.567 81.8341 161.587V167.474H79.6543V160.111Z" fill="#E5F1FE"/>
<path d="M84.8652 113.296C85.2379 113.192 85.7161 113.094 86.2997 112.997C86.8833 112.906 87.5021 112.857 88.142 112.857C88.7959 112.857 89.3373 112.941 89.7733 113.108C90.2092 113.282 90.5538 113.519 90.8069 113.832C91.06 114.139 91.2429 114.508 91.3484 114.933C91.4538 115.358 91.5101 115.832 91.5101 116.354V120.66H89.3303V116.612C89.3303 115.915 89.2389 115.421 89.049 115.135C88.8662 114.843 88.5217 114.703 88.0084 114.703C87.8537 114.703 87.6849 114.71 87.5091 114.724C87.3403 114.738 87.1857 114.752 87.045 114.773V120.66H84.8652V113.296Z" fill="#E5F1FE"/>
<path d="M228.705 191.32C229.078 191.215 229.556 191.117 230.14 191.02C230.723 190.929 231.342 190.881 231.982 190.881C232.636 190.881 233.177 190.964 233.613 191.131C234.049 191.306 234.394 191.542 234.647 191.856C234.9 192.162 235.083 192.532 235.188 192.957C235.294 193.382 235.35 193.855 235.35 194.378V198.683H233.17V194.636C233.17 193.939 233.079 193.444 232.889 193.159C232.706 192.866 232.361 192.727 231.848 192.727C231.693 192.727 231.525 192.734 231.349 192.748C231.18 192.762 231.026 192.775 230.885 192.796V198.683H228.705V191.32Z" fill="#E5F1FE"/>
<path d="M272.484 169.472C272.857 169.367 273.335 169.27 273.919 169.172C274.502 169.082 275.121 169.033 275.761 169.033C276.415 169.033 276.956 169.117 277.392 169.284C277.828 169.458 278.173 169.695 278.426 170.008C278.679 170.315 278.862 170.684 278.968 171.109C279.073 171.534 279.129 172.008 279.129 172.53V176.835H276.949V172.788C276.949 172.091 276.858 171.597 276.668 171.311C276.485 171.018 276.141 170.879 275.627 170.879C275.473 170.879 275.304 170.886 275.128 170.9C274.959 170.914 274.805 170.928 274.664 170.949V176.835H272.484V169.472Z" fill="#E5F1FE"/>
<path d="M316.262 200.683C316.634 200.578 317.113 200.481 317.696 200.383C318.28 200.293 318.899 200.244 319.538 200.244C320.192 200.244 320.734 200.327 321.17 200.495C321.606 200.669 321.95 200.906 322.203 201.219C322.457 201.526 322.639 201.895 322.745 202.32C322.85 202.745 322.907 203.219 322.907 203.741V208.046H320.727V203.999C320.727 203.302 320.635 202.808 320.446 202.522C320.263 202.229 319.918 202.09 319.405 202.09C319.25 202.09 319.081 202.097 318.906 202.111C318.737 202.125 318.582 202.139 318.442 202.16V208.046H316.262V200.683Z" fill="#E5F1FE"/>
<path d="M166.168 67.5207C166.541 67.4162 167.019 67.3186 167.602 67.2211C168.186 67.1306 168.805 67.0818 169.445 67.0818C170.099 67.0818 170.64 67.1654 171.076 67.3326C171.512 67.5067 171.857 67.7436 172.11 68.0571C172.363 68.3636 172.546 68.7328 172.651 69.1578C172.757 69.5827 172.813 70.0565 172.813 70.579V74.8842H170.633V70.8367C170.633 70.1401 170.542 69.6454 170.352 69.3598C170.169 69.0672 169.824 68.9279 169.311 68.9279C169.156 68.9279 168.988 68.9349 168.812 68.9488C168.643 68.9628 168.488 68.9767 168.348 68.9975V74.8842H166.168V67.5207Z" fill="#E5F1FE"/>
<path d="M167.209 94.5695C167.582 94.465 168.06 94.3675 168.643 94.2699C169.227 94.1794 169.846 94.1306 170.486 94.1306C171.14 94.1306 171.681 94.2142 172.117 94.3814C172.553 94.5556 172.898 94.7924 173.151 95.1059C173.404 95.4124 173.587 95.7816 173.692 96.2066C173.798 96.6316 173.854 97.1053 173.854 97.6278V101.933H171.674V97.8856C171.674 97.1889 171.583 96.6943 171.393 96.4086C171.21 96.1161 170.865 95.9767 170.352 95.9767C170.197 95.9767 170.029 95.9837 169.853 95.9976C169.684 96.0116 169.529 96.0255 169.389 96.0464V101.933H167.209V94.5695Z" fill="#E5F1FE"/>
<path d="M178.932 122.78C179.304 122.676 179.782 122.578 180.366 122.481C180.95 122.39 181.568 122.342 182.208 122.342C182.862 122.342 183.404 122.425 183.84 122.592C184.276 122.767 184.62 123.003 184.873 123.317C185.126 123.623 185.309 123.993 185.415 124.418C185.52 124.842 185.576 125.316 185.576 125.839V130.144H183.397V126.096C183.397 125.4 183.305 124.905 183.115 124.62C182.933 124.327 182.588 124.188 182.075 124.188C181.92 124.188 181.751 124.195 181.576 124.209C181.407 124.223 181.252 124.236 181.111 124.257V130.144H178.932V122.78Z" fill="#E5F1FE"/>
<path d="M130.922 103.234L153.332 104.274H156.459L156.98 112.597L155.938 141.205L130.401 140.165L104.343 137.564L107.991 100.633L130.922 103.234Z" fill="#0070F4"/>
<path d="M127.932 119.78C128.304 119.676 128.782 119.578 129.366 119.481C129.95 119.39 130.568 119.342 131.208 119.342C131.862 119.342 132.404 119.425 132.84 119.592C133.276 119.767 133.62 120.003 133.873 120.317C134.126 120.623 134.309 120.993 134.415 121.418C134.52 121.842 134.576 122.316 134.576 122.839V127.144H132.397V123.096C132.397 122.4 132.305 121.905 132.115 121.62C131.933 121.327 131.588 121.188 131.075 121.188C130.92 121.188 130.751 121.195 130.576 121.209C130.407 121.223 130.252 121.236 130.111 121.257V127.144H127.932V119.78Z" fill="#E5F1FE"/>
<path d="M21.1162 31.2053C21.3234 31.2191 21.3579 30.909 21.5029 30.7712C21.6687 30.6196 21.9518 30.7092 22.1037 30.8814C22.2557 31.0537 22.3247 31.2742 22.4628 31.4602C22.7943 31.9012 23.4227 31.977 23.8716 32.3077C24.576 32.8244 24.6796 33.8166 24.7279 34.6917C24.7555 35.2911 24.7901 35.8837 24.8177 36.4831C24.8315 36.7174 24.8453 36.9585 24.942 37.1652C25.1906 37.7095 25.8743 37.868 26.4682 37.9576C27.1863 38.0678 27.9045 38.185 28.6296 38.2952C29.2235 38.3917 29.8243 38.4812 30.4182 38.3917C30.6945 38.3503 30.9707 38.2676 31.2538 38.2676C32.2137 38.2539 32.9388 39.0876 33.7261 39.6319C33.9747 39.8041 34.2716 39.9557 34.5755 39.8937C34.7481 39.8592 34.9 39.7559 35.0451 39.6594C35.2522 39.5147 35.4663 39.3769 35.6735 39.2322L37.4966 39.3907C37.4966 39.3907 38.1043 39.9419 38.4358 40.2175C38.7673 40.4931 39.0987 41.0995 39.7617 41.0443C40.4246 40.9892 42.5171 40.941 43.1248 41.0443C43.7325 41.1477 44.2297 41.5887 45.162 41.6438C46.1011 41.6989 46.5914 42.2501 47.0887 42.195C47.5859 42.1399 47.7516 41.9194 48.3041 41.754C48.8565 41.5887 49.6783 41.6989 50.1755 41.754C50.6727 41.8091 51.1699 42.0916 51.6602 42.195C52.1575 42.2983 53.4212 42.9047 53.9737 43.0149C54.5261 43.1252 55.8451 43.4008 56.3976 43.5661C56.95 43.7315 57.0605 43.952 57.9376 44.0622C58.8215 44.1725 58.711 44.2827 59.367 44.4481C60.03 44.6134 60.251 44.5583 60.5824 44.7237C60.9139 44.889 60.9139 45.1095 61.5769 45.1095C61.5769 45.1095 61.8531 44.8339 62.2951 45.1095C62.737 45.3851 62.6818 45.6607 63.0133 45.8261C63.3447 45.9914 63.621 46.5978 63.5657 47.0939C63.5105 47.5899 63.5726 49.7879 63.5726 49.7879C63.5726 49.7879 63.4552 50.0635 63.179 50.3942C62.9028 50.7249 62.737 50.8352 62.3503 51.1659C61.9636 51.4966 61.5769 51.662 61.4111 52.2683C61.2454 52.8747 61.3006 53.5912 61.1902 54.0253C61.0797 54.4663 61.1349 54.5765 60.8034 54.9624C60.472 55.3482 60.03 55.7892 59.8643 56.1199C59.6985 56.4506 59.5328 56.616 59.0908 56.7813C58.6488 56.9467 58.4831 56.7813 58.2621 57.2774C58.0411 57.7735 57.5992 58.3799 57.4887 58.869C57.3782 59.3651 57.2677 60.0266 57.3229 60.2402C57.3782 60.4607 57.2677 61.067 57.5992 61.1221C57.5992 61.1221 58.1516 61.3426 58.2621 61.5631C58.3726 61.7836 58.2621 62.1694 58.1516 62.5553C58.0411 62.9411 58.1516 63.4923 57.8754 63.9264C57.5992 64.3673 57.3229 64.9186 57.2677 65.1942C57.2125 65.4698 54.1256 81.4686 54.1256 81.4686" stroke="#005AC3" stroke-width="1.11085" stroke-linecap="round" stroke-linejoin="round"/>
<path d="M61.5664 45.103L67.277 16.7969" stroke="#005AC3" stroke-width="1.11085" stroke-linecap="round" stroke-linejoin="round"/>
<path d="M73.9573 17.9087L72.0917 26.4094C72.0917 26.4094 71.7602 27.8357 72.0917 28.9381C72.4231 30.0405 72.8858 31.3565 72.9825 32.2385C73.0792 33.1204 73.6454 34.2159 74.0253 34.8774C74.4051 35.5388 75.1785 37.0753 75.3995 37.847C75.6205 38.6187 77.05 39.8245 77.7129 40.2654C78.3759 40.7064 79.3634 41.2576 79.1424 42.1326C78.9214 43.0077 78.369 44.992 77.7129 46.0945L78.7073 48.9538L76.8359 50.1665C76.8359 50.1665 76.9464 49.946 77.1674 50.7177C77.3884 51.4894 77.0569 52.5849 77.7198 52.5849C78.3828 52.5849 78.4449 52.9157 79.1838 52.5849C79.9228 52.2542 80.6962 51.8132 80.9172 52.2542C81.1382 52.6952 81.1382 53.3566 81.4696 55.0034C81.4696 55.0034 82.8991 57.3115 82.8991 58.414C82.8991 58.414 82.3467 59.8402 82.8991 60.3914C83.4516 60.9426 84.4391 62.0382 84.5496 62.5894C84.6601 63.1406 84.6601 64.2361 85.2125 64.5668C85.765 64.8975 86.207 64.1259 86.863 64.5668C87.526 65.0078 88.2925 65.2283 88.624 65.2283C88.9555 65.2283 88.845 64.4566 89.5079 64.6771C90.1709 64.8976 90.9374 64.8975 91.7108 65.2283C92.4843 65.559 93.3613 65.3385 93.9138 65.2283C94.4662 65.118 94.5767 63.802 95.1292 63.6918C95.6816 63.5815 95.9026 63.9123 96.5587 64.684L97.2216 65.4556L97.7741 66.1171" stroke="#005AC3" stroke-width="1.11085" stroke-linecap="round" stroke-linejoin="round"/>
<path d="M6.06348 67.9521C6.06348 67.9521 50.2142 82.8188 94.5213 89.2541" stroke="#005AC3" stroke-width="1.11085" stroke-linecap="round" stroke-linejoin="round"/>
<path d="M33.9256 75.9429L27.5654 103.111L59.9671 150.115C59.9671 150.115 60.5196 151.651 60.5196 152.644C60.5196 152.644 60.7405 154.952 61.4035 155.503C62.0664 156.054 62.6189 156.495 62.6189 157.039C62.6189 157.584 62.1769 158.032 61.735 158.362C61.293 158.693 60.3055 158.583 60.0845 159.134C59.8635 159.685 58.8691 161.111 58.8691 161.773C58.8691 162.434 58.8691 163.42 58.4271 163.64C57.9852 163.861 57.6537 163.64 57.4327 164.302C57.2117 164.963 57.1012 166.72 57.3222 167.492C57.5432 168.263 58.4271 168.918 57.9852 169.91C57.9852 169.91 57.8747 170.241 56.8802 170.461C56.8802 170.461 55.7201 170.682 55.7201 171.509" stroke="#005AC3" stroke-width="1.11085" stroke-linecap="round" stroke-linejoin="round"/>
<path d="M59.9647 150.115C59.9647 150.115 59.6332 149.233 59.9647 148.958C60.2962 148.682 60.3514 148.241 60.3514 147.586C60.3514 146.932 60.5724 144.617 60.3514 143.955C60.1304 143.294 60.1926 143.129 60.1373 142.798C60.0821 142.467 60.6069 142.302 60.455 141.806C60.3031 141.31 60.5517 140.703 60.4826 140.379C60.4136 140.049 60.6346 139.773 61.0213 139.608C61.408 139.442 62.6718 139.332 63.0585 139.332C63.4452 139.332 63.9424 139.608 64.1634 139.773C64.3844 139.938 64.4949 140.269 64.9368 140.159C65.3788 140.049 65.2131 139.883 65.5998 139.828C65.9865 139.773 66.318 140.049 66.4837 139.332L74.5703 85.7822" stroke="#005AC3" stroke-width="1.11085" stroke-linecap="round" stroke-linejoin="round"/>
<path d="M67.6504 131.967C67.6504 131.967 89.2239 135.929 108.235 138.154C108.235 138.154 120.465 139.477 134.436 140.38C134.436 140.38 161.382 142.026 181.795 141.372C181.795 141.372 204.032 140.545 212.049 140.132" stroke="#005AC3" stroke-width="1.11085" stroke-linecap="round" stroke-linejoin="round"/>
<path d="M156.289 141.207L157.062 103.821C157.062 103.821 143.838 103.49 133.148 102.939C122.458 102.388 95.5669 98.9772 93.585 98.6534C93.585 98.6534 97.8251 69.7907 98.2394 61.3779C98.2394 61.3779 111.464 62.942 115.352 63.4381C119.24 63.9342 140.399 65.5809 144.529 65.9943" stroke="#005AC3" stroke-width="1.11085" stroke-linecap="round" stroke-linejoin="round"/>
<path d="M99.5283 191.07L103.278 147.8C103.278 147.8 105.702 124.38 106.034 119.764C106.365 115.148 107.905 100.52 107.905 100.52" stroke="#005AC3" stroke-width="1.11085" stroke-linecap="round" stroke-linejoin="round"/>
<path d="M146.301 27.3618C146.301 27.3618 144.859 63.6037 144.527 69.3776C144.527 69.3776 143.616 99.5356 143.395 103.27" stroke="#005AC3" stroke-width="1.11085" stroke-linecap="round" stroke-linejoin="round"/>
<path d="M120.798 188.432C120.798 188.432 120.259 187.508 119.928 187.426C119.596 187.343 119.348 187.095 119.141 186.558L118.851 185.979C118.851 185.979 121.04 185.979 121.537 186.062C122.034 186.144 122.98 186.351 123.56 186.351C124.14 186.351 127.607 186.227 128.104 186.392C128.601 186.558 129.713 186.764 130.293 186.764C130.376 186.764 130.521 186.764 130.708 186.764L147.896 187.874C147.896 187.874 148.725 145.155 148.559 141.035" stroke="#005AC3" stroke-width="1.11085" stroke-linecap="round" stroke-linejoin="round"/>
<path d="M148.492 146.07L171.219 146.566V164.377C171.219 164.377 172.379 164.625 172.869 164.543C173.367 164.46 173.615 164.708 174.03 164.791C174.444 164.873 174.941 165.121 175.024 165.369C175.107 165.618 175.438 166.444 175.687 166.279C175.936 166.114 176.101 165.7 176.433 165.7C176.764 165.7 177.013 165.121 177.261 165.204C177.51 165.287 177.593 166.114 177.924 166.114C178.256 166.114 178.587 166.692 179.25 167.023C179.913 167.354 180.162 167.685 181.149 167.685C182.137 167.685 183.546 167.519 184.291 167.602C185.037 167.685 185.12 167.85 185.942 167.933C186.764 168.015 186.936 168.346 187.261 168.842C187.592 169.338 187.841 170.165 188.421 170.241C189.001 170.323 189.167 169.91 189.581 169.827C189.996 169.745 190.576 169.249 190.824 169.497C191.073 169.745 191.073 170.241 191.819 170.241C192.565 170.241 192.979 170.241 193.469 170.489C193.966 170.737 194.215 170.737 194.788 170.406C195.368 170.075 195.451 170.572 196.356 170.654C197.267 170.737 197.758 170.572 198.255 170.902C198.752 171.233 199.498 171.564 200.071 171.564C200.644 171.564 201.314 171.316 202.053 170.82C202.799 170.323 203.047 170.158 203.621 169.993C204.194 169.827 204.615 169.414 205.188 169.166C205.768 168.918 205.851 169.249 206.431 169.414C207.011 169.579 207.674 169.414 208.745 169.497C209.815 169.579 210.147 169.993 210.892 170.323C211.638 170.654 211.804 170.985 212.294 171.068C212.791 171.15 213.945 170.985 214.359 171.15C214.773 171.316 215.271 171.481 215.761 171.481C216.251 171.481 218.24 171.398 218.24 171.398C218.24 171.398 218.406 173.21 218.572 174.203C218.737 175.195 218.572 177.503 218.572 178.571C218.572 179.639 218.82 181.541 218.986 182.774C219.152 184.014 218.737 186.812 219.152 187.556C219.566 188.3 220.471 190.112 221.382 191.021C222.294 191.931 223.033 193.66 223.281 194.57C223.53 195.479 223.696 196.299 223.447 196.795C223.198 197.291 223.033 197.622 222.784 197.953C222.535 198.284 222.37 198.366 222.204 198.862C222.038 199.358 221.872 200.185 222.204 200.426C222.535 200.674 222.535 201.088 222.618 201.253C222.701 201.419 222.618 206.283 222.618 206.283C222.618 206.283 222.287 207.192 222.287 207.682" stroke="#005AC3" stroke-width="1.11085" stroke-linecap="round" stroke-linejoin="round"/>
<path d="M187.971 28.7734C187.971 28.7734 187.86 30.1997 188.026 30.4202C188.192 30.6407 188.634 30.8611 188.689 31.1919C188.744 31.5226 189.076 32.2943 188.855 32.5079C188.634 32.7284 188.413 32.8386 188.413 33.1142C188.413 33.3898 188.855 33.8859 188.91 34.1064C188.965 34.3269 188.744 34.7127 188.91 34.9332C189.076 35.1537 189.407 35.3742 189.241 35.7049C189.076 36.0356 188.799 36.4215 188.799 36.5868C188.799 36.7522 188.855 37.4688 189.186 37.9097C189.518 38.3507 189.462 39.0121 189.794 39.336C190.125 39.6598 190.678 40.4935 190.954 40.9827C191.23 41.4788 191.617 42.2505 191.562 42.6846C191.506 43.1255 191.727 44.3864 191.672 44.7723C191.617 45.1581 191.617 45.5991 191.838 45.7644C192.059 45.9298 192.335 47.6868 192.059 47.9624C191.783 48.238 191.562 48.5136 191.617 48.8443C191.672 49.175 191.506 50.0019 191.727 50.1121C191.948 50.2223 192.114 50.1121 192.169 50.6633C192.225 51.2145 192.446 51.876 192.446 52.31C192.446 52.7441 192.335 53.3022 192.501 53.4125C192.667 53.5227 192.832 53.7432 192.832 54.2393C192.832 54.7354 192.722 55.3968 192.832 55.7758C192.943 56.1616 193.219 57.7532 193.164 58.3044C193.109 58.8556 193.109 59.2415 192.943 59.7307C192.777 60.2268 192.777 60.9433 193.164 61.3774C193.55 61.8184 195.09 63.0242 195.201 63.2446C195.311 63.4651 195.588 77.4314 195.588 77.4314C195.588 77.4314 195.477 79.7947 195.311 80.0151C195.146 80.2356 195.256 80.7868 195.367 80.9522C195.477 81.1176 195.588 83.7014 195.532 84.0872C195.477 84.4731 195.588 85.0243 195.311 85.355C195.035 85.6857 194.759 86.0164 194.814 86.3472C194.869 86.6779 194.759 87.0086 195.035 87.3945C195.311 87.7803 195.256 87.8905 195.422 88.3866C195.588 88.8827 195.809 89.5442 196.085 89.9782C196.361 90.4192 196.195 91.3494 196.306 91.7352C196.416 92.1211 196.748 92.9479 197.135 93.1615C197.521 93.382 198.129 94.0434 198.405 94.4292C198.681 94.8151 198.847 95.8004 198.571 96.2965C198.295 96.7926 198.074 97.3438 198.35 97.6676C198.626 97.9983 199.289 98.77 199.621 99.149C199.952 99.5348 200.449 99.9758 200.339 100.685C200.228 101.402 200.284 102.277 200.615 102.553C200.947 102.828 201.168 103.49 201.112 104.144C201.057 104.806 200.781 105.357 201.057 105.901C201.333 106.452 201.057 106.783 201.444 107.169C201.83 107.555 202.162 107.886 202.051 108.327C201.941 108.768 202.383 109.098 202.825 109.539C203.267 109.98 205.691 112.123 206.298 112.674C206.906 113.225 207.348 113.281 207.514 113.666C207.68 114.052 207.956 114.879 207.68 115.148C207.403 115.423 207.127 115.534 207.182 115.975C207.238 116.416 207.127 117.401 207.459 117.621C207.79 117.842 208.177 118.173 208.122 118.448C208.066 118.724 208.619 119.606 208.95 119.606C209.282 119.606 209.779 119.495 209.889 119.771C210 120.047 209.945 120.543 210.387 120.653C210.829 120.763 210.939 121.094 210.939 121.37C210.939 121.645 212.099 140.944 212.258 143.087C212.258 143.087 212.811 147.979 213.363 150.894C213.915 153.808 214.026 155.565 213.971 157.818C213.915 160.071 214.413 163.647 214.247 165.184C214.081 166.72 214.523 168.649 214.578 169.249C214.634 169.855 214.634 171.171 214.634 171.171" stroke="#005AC3" stroke-width="1.11085" stroke-linecap="round" stroke-linejoin="round"/>
<path d="M222.029 46.75C222.029 46.75 221.808 47.1358 221.476 47.3012C221.145 47.4666 221.255 47.7422 220.979 48.0729C220.703 48.4036 220.537 48.569 220.427 49.01C220.316 49.4509 220.04 49.7816 220.206 50.2777C220.372 50.7738 220.703 51.2148 220.648 51.704C220.593 52.2001 220.703 52.6962 220.648 53.0269C220.593 53.3576 220.261 53.5781 219.874 53.9639C219.488 54.3498 218.825 54.901 218.659 55.2868C218.493 55.6727 218.383 55.8932 218.051 56.3341C217.72 56.7751 217.72 57.0507 217.554 57.3263C217.388 57.6019 217.167 57.5468 217.223 57.8775C217.278 58.2082 217.554 58.8146 217.941 59.0902C218.327 59.3658 218.438 59.8068 218.714 60.3028C218.99 60.7989 219.322 60.9643 219.267 61.4053C219.211 61.8462 219.046 61.9565 218.88 62.5077C218.714 63.0589 218.769 66.1388 218.714 66.3041C218.659 66.4695 219.046 66.69 219.488 66.7451C219.93 66.8002 220.206 67.0758 220.537 67.1861C220.869 67.2963 221.753 67.6821 222.243 67.8475C222.74 68.0129 223.348 68.0129 223.893 68.6192C224.446 69.2255 224.722 70.2108 225.378 70.5967C226.034 70.9825 227.25 71.4786 228.023 71.9678C228.797 72.4639 229.674 72.6844 230.116 73.2356C230.557 73.7868 231.165 74.8272 230.999 75.3233C230.834 75.8194 230.778 76.3706 230.557 76.6393C230.336 76.9149 230.171 76.97 230.613 77.411C231.055 77.8519 231.497 78.1827 231.276 78.9475C231.055 79.7192 230.999 81.5312 231.11 81.9722C231.22 82.4132 232.049 83.2882 232.325 83.7843C232.602 84.2804 232.933 84.8316 233.486 84.9419C234.038 85.0521 234.756 84.8867 235.191 85.1072C235.633 85.3277 235.633 85.6584 235.965 86.5886C236.296 87.5256 237.339 88.2353 237.836 88.6212C238.333 89.007 238.996 89.9923 239.107 90.4884C239.217 90.9845 239.604 91.5908 239.328 92.1902C239.052 92.7966 239.273 92.9619 238.941 93.5131C238.61 94.0643 238.665 94.0092 238.278 94.34C237.891 94.6707 237.836 94.2297 237.394 94.7258C236.952 95.2219 236.952 95.4424 236.565 95.718C236.179 95.9936 236.234 96.1038 235.405 96.2141C234.577 96.3243 233.865 96.3243 233.755 96.5999C233.644 96.8755 233.423 97.2614 233.755 97.537C234.086 97.8126 234.805 98.1984 234.749 98.6394C234.694 99.0803 234.749 99.6867 234.528 100.231C234.307 100.782 233.976 101.389 233.865 102.043C233.755 102.705 233.258 102.649 232.981 103.256C232.705 103.862 232.76 104.303 232.595 104.847C232.429 105.392 232.429 105.068 232.263 105.895C232.097 106.721 231.821 107.541 231.987 107.927C232.153 108.313 232.595 108.919 232.484 109.464C232.374 110.015 232.429 111 232.65 111.331C232.871 111.662 233.644 112.268 234.079 112.599C234.521 112.929 235.675 113.481 236.172 113.811C236.669 114.142 237.546 115.079 237.767 115.458C237.988 115.844 238.32 116.671 238.54 117.27C238.761 117.877 238.872 118.972 239.203 119.027C239.535 119.082 240.032 118.752 240.198 118.476C240.364 118.2 240.364 117.704 240.64 118.145C240.916 118.586 241.413 118.641 241.855 118.696C242.297 118.752 242.905 119.303 242.739 119.744C242.573 120.185 242.518 121.012 242.297 121.28C242.076 121.556 241.855 122.162 241.855 122.438C241.855 122.713 242.297 123.375 242.297 123.706C242.297 124.036 242.739 124.643 243.236 124.973C243.734 125.304 244.341 125.91 244.942 126.241C245.55 126.572 246.814 127.833 247.256 128.274C247.698 128.715 248.36 129.645 248.36 129.976C248.36 130.306 248.581 131.243 248.471 131.622C248.36 132.001 248.581 132.835 248.968 133.049C249.355 133.269 249.631 133.875 250.239 133.986C250.847 134.096 252.552 134.151 252.552 134.151L252.939 137.947C252.939 137.947 251.945 139.105 251.613 139.27C251.282 139.436 250.563 140.042 250.342 140.483C250.121 140.924 249.679 141.53 249.514 141.964C249.348 142.405 249.237 142.626 249.237 142.626L249.293 145.761C249.293 145.761 248.851 146.588 248.519 146.808C248.188 147.029 247.967 147.359 247.967 147.359C247.967 147.359 248.188 147.966 248.133 148.517C248.077 149.068 248.077 149.454 247.801 149.998C247.525 150.549 247.47 150.494 247.193 151.046C246.917 151.597 246.917 152.368 246.917 152.527C246.917 152.685 246.696 153.188 246.309 153.519C245.923 153.85 245.591 154.07 245.757 154.456C245.923 154.842 245.923 155.283 245.812 155.614C245.702 155.944 245.591 156.055 245.205 156.44C244.818 156.826 244.431 157.543 244.321 157.867C244.21 158.197 244.21 159.348 244.155 159.679C244.1 160.01 243.934 160.451 243.658 160.781C243.381 161.112 243.16 161.443 242.829 161.663C242.497 161.884 242.166 162.159 242.166 162.325C242.166 162.49 242.497 163.207 242.276 163.482C242.056 163.758 241.558 164.144 241.393 164.419C241.227 164.695 240.674 165.301 240.619 165.687C240.564 166.073 240.73 166.789 240.509 167.168C240.288 167.554 240.288 167.995 240.177 168.216C240.067 168.436 239.846 168.877 239.956 169.208C240.067 169.539 240.232 170.09 240.343 170.42C240.453 170.751 240.509 174.706 240.509 174.706C240.509 174.706 240.895 175.092 240.951 175.312C241.006 175.533 241.393 175.974 241.393 176.415C241.393 176.856 241.503 177.517 241.448 178.062C241.393 178.613 241.724 179.219 241.779 179.598C241.835 179.984 242.056 180.37 242.166 180.921C242.276 181.472 242.166 181.803 241.89 182.134C241.614 182.464 241.393 182.74 241.448 183.016C241.503 183.291 241.503 184.828 241.172 185.158C240.84 185.489 240.398 185.434 240.288 185.71C240.177 185.985 239.901 185.93 239.846 186.261C239.79 186.592 239.956 186.867 239.735 187.143C239.514 187.418 239.293 187.418 239.293 187.749C239.293 188.08 239.293 188.411 239.569 188.631C239.846 188.852 240.067 188.852 239.846 189.182C239.625 189.513 239.735 189.458 239.514 189.844C239.293 190.23 239.183 190.395 238.962 190.671C238.741 190.946 238.52 191.387 238.686 191.718C238.851 192.049 239.017 192.104 238.962 192.545C238.907 192.986 239.072 193.371 239.293 193.537C239.514 193.702 240.612 193.757 240.999 193.482C241.386 193.206 241.993 192.93 242.373 193.096C242.76 193.261 243.423 193.316 243.803 193.151C244.189 192.986 244.521 192.655 245.177 192.71C245.84 192.765 246.227 192.875 246.717 192.655C247.214 192.434 247.38 192.379 247.932 192.379C248.485 192.379 249.148 192.159 249.528 192.104C249.914 192.049 250.798 191.993 251.123 191.938C251.123 191.938 251.509 191.442 251.896 191.552C252.283 191.663 252.338 191.883 252.78 191.938C253.222 191.993 253.83 192.104 253.664 192.489C253.498 192.875 253.664 193.316 253.498 193.647C253.333 193.978 253.222 193.923 253.167 194.308C253.112 194.694 253.112 194.805 253.719 195.135C254.327 195.466 254.714 195.576 254.714 195.907C254.714 196.238 255.1 196.238 255.1 196.624C255.1 197.009 254.99 198.877 254.99 198.877" stroke="#005AC3" stroke-width="1.11085" stroke-linecap="round" stroke-linejoin="round"/>
<path d="M145.019 57.5807C145.019 57.5807 173.118 58.0763 193.207 57.4155" stroke="#005AC3" stroke-width="1.11085" stroke-linecap="round" stroke-linejoin="round"/>
<path d="M144.03 84.8794C144.03 84.8794 161.716 85.2928 181.887 85.1274C181.887 85.1274 182.799 85.7889 183.621 86.2023C184.449 86.6157 184.781 86.9464 185.686 87.0291C186.59 87.1118 187.253 86.6984 187.75 86.6984C188.248 86.6984 189.152 86.3677 189.567 86.533C189.981 86.6984 190.644 86.9464 190.969 87.1945C191.3 87.4425 192.37 87.5252 193.033 87.8559C193.696 88.1867 194.111 88.0213 194.518 88.4347C194.925 88.8481 195.264 89.4269 195.92 89.6749" stroke="#005AC3" stroke-width="1.11085" stroke-linecap="round" stroke-linejoin="round"/>
<path d="M156.922 112.758C156.922 112.758 187.507 112.179 191.388 112.097C195.276 112.014 204.696 111.353 204.696 111.353" stroke="#005AC3" stroke-width="1.11085" stroke-linecap="round" stroke-linejoin="round"/>
<path d="M195.301 80.0149C195.301 80.0149 208.277 79.5188 230.624 77.376" stroke="#005AC3" stroke-width="1.11085" stroke-linecap="round" stroke-linejoin="round"/>
<path d="M201.555 107.48C201.555 107.48 213.619 106.653 230.068 105.089C230.068 105.089 230.98 106.488 231.968 106.329" stroke="#005AC3" stroke-width="1.11085" stroke-linecap="round" stroke-linejoin="round"/>
<path d="M212.438 144.948L244.452 141.152C244.452 141.152 245.392 141.097 245.392 141.593C245.392 142.089 245.005 142.585 244.894 142.964C244.784 143.35 244.563 143.736 244.563 144.121C244.563 144.507 244.508 145.658 244.508 145.658C244.508 145.658 245.005 145.603 245.613 145.603C246.22 145.603 246.718 145.107 247.263 145.162C247.816 145.217 249.245 145.162 249.245 145.162" stroke="#005AC3" stroke-width="1.11085" stroke-linecap="round" stroke-linejoin="round"/>
<path d="M218.611 177.11L240.654 174.85" stroke="#005AC3" stroke-width="1.11085" stroke-linecap="round" stroke-linejoin="round"/>
<path d="M235.608 85.706L254.262 82.9648" stroke="#005AC3" stroke-width="1.11085" stroke-linecap="round" stroke-linejoin="round"/>
<path d="M258.157 90.1934L260.984 109.043C260.984 109.043 261.481 109.869 261.316 110.117C261.15 110.366 260.818 110.862 260.57 111.027C260.321 111.192 260.156 111.44 260.404 111.854C260.653 112.267 260.487 112.763 260.818 113.253C261.15 113.749 261.647 115.395 261.481 116.057C261.316 116.718 260.984 118.034 260.818 118.696C260.653 119.357 260.404 119.853 260.156 120.921C259.907 121.996 259.41 123.064 259.493 123.974C259.575 124.883 259.575 125.786 259.493 126.364C259.41 126.943 259.244 127.357 258.912 127.763C258.581 128.176 258.581 128.425 258.912 128.838C259.244 129.251 258.995 129.499 258.747 129.747C258.498 129.995 258.167 130.243 257.835 130.409C257.504 130.574 256.841 130.492 256.841 130.988C256.841 131.484 256.841 131.566 257.089 132.062C257.338 132.559 256.841 133.385 256.841 133.385C256.841 133.385 256.592 133.551 256.012 133.468C255.432 133.385 255.183 133.551 254.693 133.468C254.196 133.385 253.864 132.724 253.45 132.889C253.036 133.055 252.456 132.972 252.373 133.303C252.29 133.633 252.207 134.047 252.207 134.047" stroke="#005AC3" stroke-width="1.11085" stroke-linecap="round" stroke-linejoin="round"/>
<path d="M263.164 87.4133L276.197 85.0176L280.327 108.217C280.327 108.217 280.824 109.098 280.603 109.808C280.382 110.525 280.216 110.911 280.437 111.29C280.658 111.668 281.1 112.282 281.266 112.502C281.432 112.723 281.266 112.943 280.879 113.053C280.493 113.164 280.603 113.329 280.161 113.494C279.719 113.66 278.787 113.605 278.566 113.715C278.345 113.825 278.013 113.935 277.627 114.046C277.24 114.156 276.853 114.101 276.632 114.266C276.411 114.431 276.08 114.266 275.969 114.487C275.859 114.707 275.472 115.203 275.583 115.699C275.693 116.195 275.748 116.747 275.527 117.125C275.306 117.511 273.545 119.875 273.324 120.26C273.103 120.646 272.938 121.473 272.606 121.687C272.275 121.907 271.722 121.797 271.446 121.632C271.17 121.466 270.562 120.86 270.562 120.86C270.562 120.86 270.286 120.584 270.175 120.915C270.065 121.246 269.733 120.86 269.568 121.191C269.402 121.521 269.181 121.632 269.402 122.017C269.623 122.403 269.678 123.175 269.678 123.175C269.678 123.175 269.512 123.34 269.126 123.451C268.739 123.561 267.752 122.844 267.475 123.065C267.199 123.285 266.536 123.175 266.37 123.506C266.205 123.836 265.818 123.781 265.818 124.222C265.818 124.663 265.652 124.939 265.265 125.104C264.879 125.27 264.216 124.884 264.05 124.773C263.884 124.663 262.621 124.608 262.289 124.663C261.958 124.718 261.737 124.663 261.571 124.939C261.405 125.214 261.018 125.38 260.908 125.545C260.797 125.711 260.245 126.041 259.582 125.766" stroke="#005AC3" stroke-width="1.11085" stroke-linecap="round" stroke-linejoin="round"/>
<path d="M276.304 85.6787L285.067 83.7563" stroke="#005AC3" stroke-width="1.11085" stroke-linecap="round" stroke-linejoin="round"/>
<path d="M280.551 109.981C280.551 109.981 281.435 109.54 281.821 109.761C282.208 109.981 282.319 110.312 282.705 110.312C283.092 110.312 283.81 110.036 283.921 110.312C284.031 110.587 284.473 110.973 284.473 110.973L286.179 110.863C286.179 110.863 286.345 110.477 286.731 110.532C287.118 110.587 287.229 110.918 287.45 110.918C287.671 110.918 287.947 111.194 288.223 111.249C288.499 111.304 288.72 110.863 288.941 110.863C289.162 110.863 289.383 110.422 289.604 110.587C289.825 110.753 290.101 110.973 290.378 110.973H291.593C291.759 110.973 291.648 110.477 292.146 110.257C292.643 110.036 292.919 109.706 293.029 109.54C293.14 109.375 293.527 109.485 293.527 109.485C293.527 109.485 293.913 109.871 294.079 109.926C294.245 109.981 295.018 110.532 295.295 110.587C295.571 110.643 295.957 111.084 296.178 111.359C296.399 111.635 296.841 112.131 297.283 112.131C297.725 112.131 298.167 111.855 298.444 111.304C298.72 110.753 298.996 110.367 299.217 110.202C299.438 110.036 299.88 109.209 299.88 108.879C299.88 108.548 299.935 105.578 299.935 105.578C299.935 105.578 300.101 105.082 300.432 105.358C300.764 105.634 301.206 105.964 301.206 106.185C301.206 106.405 301.372 106.791 301.703 106.405C302.035 106.019 301.703 105.634 301.979 105.193C302.255 104.752 302.09 104.366 302.2 103.98C302.311 103.594 302.2 103.594 302.421 103.263C302.642 102.933 302.476 101.12 302.697 100.9C302.918 100.68 303.416 100.624 303.913 100.624C304.41 100.624 305.184 100.183 305.508 99.7425C305.84 99.3015 306.226 98.3713 306.337 97.8201C306.447 97.2689 306.503 96.4972 306.613 96.008C306.723 95.5119 306.779 94.4715 306.889 94.0306C307 93.5896 306.779 92.5492 306.668 90.3995C306.558 88.2567 306.779 87.7055 306.944 87.0991" stroke="#005AC3" stroke-width="1.11085" stroke-linecap="round" stroke-linejoin="round"/>
<path d="M304.347 76.8488L309.311 97L344.302 86.1136C344.302 86.1136 346.505 81.9933 346.56 81.6075C346.615 81.2216 346.615 80.7807 346.726 80.2915C346.836 79.7954 347.057 79.0237 346.56 78.8652C346.063 78.6999 343.363 77.8179 343.252 77.1082C343.142 76.3917 343.418 75.7853 343.528 75.5718C343.639 75.3513 343.584 74.9103 343.418 74.5796C343.252 74.2489 343.197 73.7528 343.142 73.422C343.087 73.0913 343.694 72.0509 343.915 71.6651C344.136 71.2792 344.081 70.6729 344.191 70.3973C344.302 70.1217 344.689 69.1295 344.468 69.0744C344.247 69.0193 343.473 69.1846 343.149 68.9641C342.817 68.7437 342.044 68.4129 341.933 68.0271C341.823 67.6412 341.823 66.8695 341.491 66.7042C341.16 66.5388 340.773 65.8223 340.442 65.5466C340.11 65.271 339.834 65.271 339.447 65.3262C339.061 65.3813 339.171 64.9403 338.453 65.1057C337.735 65.271 336.692 65.5467 335.421 66.0427C334.151 66.5388 324.08 71.2285 304.903 76.2928" stroke="#005AC3" stroke-width="1.11085" stroke-linecap="round" stroke-linejoin="round"/>
<path d="M252.307 138.567C252.307 138.567 255.449 138.815 256.436 138.65C257.431 138.485 258.335 138.402 258.75 138.319C259.164 138.237 260.069 137.823 260.649 137.575C261.229 137.327 263.294 136.583 263.957 136.335C264.62 136.087 267.927 135.673 269.164 135.425C270.407 135.177 279.494 133.283 279.992 133.283C280.489 133.283 281.891 133.531 282.719 133.531C283.548 133.531 286.442 132.787 287.015 132.621C287.595 132.456 288.748 131.96 289.66 131.96C290.571 131.96 292.139 131.712 292.802 131.629C293.465 131.546 294.701 131.216 295.198 131.133C295.695 131.05 309.99 127.095 312.967 126.186C315.943 125.276 347.875 115.41 347.875 115.41" stroke="#005AC3" stroke-width="1.11085" stroke-linecap="round" stroke-linejoin="round"/>
<path d="M245.891 155.228C245.891 155.228 247.32 155.118 247.873 155.007C248.425 154.897 249.357 154.952 249.855 154.842C250.352 154.732 251.229 154.401 251.781 154.291C252.334 154.181 252.997 154.015 253.487 154.015C253.977 154.015 254.813 153.905 255.027 153.85C255.248 153.795 255.635 153.574 256.187 153.519C256.74 153.464 257.838 153.464 257.838 153.464C257.838 153.464 258.556 153.243 259.053 153.133C259.55 153.023 260.268 152.747 260.759 152.747C261.249 152.747 261.201 152.306 261.643 152.141C262.085 151.976 262.637 152.141 262.962 152.031C263.293 151.921 263.569 151.7 263.846 151.7C264.122 151.7 264.564 151.535 264.785 151.424C265.006 151.314 265.613 151.094 265.89 151.259C266.166 151.424 266.276 151.921 266.718 151.976C267.16 152.031 267.989 152.031 268.645 151.921C269.308 151.81 269.639 151.535 270.461 151.48C271.29 151.424 271.732 151.259 272.83 151.149C273.935 151.039 275.088 150.543 275.64 150.543C276.193 150.543 277.346 150.102 278.175 150.046C279.004 149.991 279.66 149.826 280.267 149.661C280.875 149.495 282.526 149.22 283.133 149.054C283.741 148.889 286.496 148.227 287.263 148.062C288.036 147.897 290.681 147.18 291.503 146.96C292.332 146.739 298.719 145.148 298.719 145.148C298.719 145.148 299.217 144.376 299.935 144.266C300.653 144.155 301.364 143.935 301.696 143.714C302.027 143.494 302.69 142.667 303.181 142.502C303.678 142.336 304.61 141.951 305.052 141.895C305.494 141.84 306.537 141.62 306.923 141.565C307.31 141.51 308.249 140.958 308.85 140.958C309.451 140.958 310.224 140.903 310.943 140.793C311.661 140.683 312.213 140.462 313.035 140.352C313.864 140.242 314.962 140.076 315.183 140.242C315.404 140.407 316.232 140.903 316.557 141.234C316.888 141.565 317.33 142.171 317.876 142.226C318.428 142.281 320.079 141.84 320.908 141.565C321.736 141.289 323.166 140.848 323.829 140.683C324.492 140.517 325.645 140.187 325.921 140.242C326.197 140.297 335.071 146.346 335.071 146.346" stroke="#005AC3" stroke-width="1.11085" stroke-linecap="round" stroke-linejoin="round"/>
<path d="M271.454 195.032C271.454 195.032 271.786 193.874 271.62 193.164C271.454 192.448 271.675 192.338 271.399 192.007C271.123 191.676 270.626 191.456 270.46 191.29C270.294 191.125 270.129 190.298 270.294 189.864C270.46 189.423 270.349 189.313 270.736 188.982C271.123 188.651 271.012 188.376 271.786 188.321C272.559 188.265 273.16 188.486 273.657 188.266C274.155 188.045 275.75 187.714 276.578 187.494C277.407 187.273 277.953 187.273 278.892 187.053C279.831 186.832 280.487 186.777 281.15 186.612C281.813 186.447 282.911 186.281 282.911 186.281C282.911 186.281 284.237 185.95 285.003 185.785C285.777 185.62 286.985 185.344 287.869 185.179C288.753 185.013 289.52 185.068 290.238 185.289C290.956 185.509 291.833 186.226 292.662 186.281C293.491 186.336 293.546 186.777 294.312 186.832C295.086 186.887 297.344 186.502 298.331 186.447C299.326 186.391 300.092 186.612 300.755 186.336C301.418 186.061 302.185 185.95 302.848 185.895C303.511 185.84 305.437 185.73 306.321 185.509C307.205 185.289 307.647 185.399 308.469 185.289C309.298 185.179 310.396 184.903 311.059 184.903C311.722 184.903 312.053 185.344 312.654 185.454C313.255 185.565 313.759 185.95 313.759 185.95C313.759 185.95 313.483 183.863 313.593 183.587C313.704 183.312 314.146 182.981 314.367 182.54C314.588 182.099 314.643 181.658 315.14 181.603C315.637 181.548 317.177 181.658 317.619 181.603C318.061 181.548 317.706 181.383 318.258 181.383" stroke="#005AC3" stroke-width="1.11085" stroke-linecap="round" stroke-linejoin="round"/>
<path d="M260.765 152.754C260.765 152.754 261.897 153.747 262.063 154.153C262.229 154.566 262.394 173.618 262.394 175.926C262.394 178.234 262.726 184.173 263.223 187.963C263.72 191.752 264.135 193.875 263.969 195.742" stroke="#005AC3" stroke-width="1.11085" stroke-linecap="round" stroke-linejoin="round"/>
<path d="M281.229 149.536C281.229 149.536 285.608 162.069 286.022 163.392C286.436 164.708 286.436 166.527 286.602 167.023C286.768 167.519 286.851 168.263 286.851 169.001C286.851 169.738 287.431 169.993 287.762 169.993C288.094 169.993 289.247 171.392 289.579 171.722C289.91 172.053 290.241 172.549 289.993 172.797C289.744 173.045 289.247 173.376 289.081 173.789C288.916 174.203 288.75 176.18 288.833 176.842C288.916 177.503 289.081 179.398 289.247 180.059C289.413 180.721 289.827 181.541 289.744 182.119C289.661 182.698 289.33 183.36 289.33 183.683C289.33 184.007 289.247 184.999 289.247 184.999" stroke="#005AC3" stroke-width="1.11085" stroke-linecap="round" stroke-linejoin="round"/>
<path d="M298.728 145.167C298.728 145.167 298.341 146.897 298.507 147.476C298.673 148.054 298.673 148.551 299.419 148.792C300.164 149.033 301.649 149.867 302.146 150.521C302.644 151.183 302.892 152.085 303.472 152.581C304.052 153.077 304.957 153.656 306.034 154.145C307.112 154.641 308.431 154.724 309.094 155.468C309.757 156.212 310.419 156.626 311.158 157.611C311.904 158.603 312.153 158.686 312.726 158.686C313.299 158.686 313.969 158.851 314.376 159.513C314.791 160.174 314.625 160.588 314.708 161.407C314.791 162.227 315.205 162.648 315.454 162.889C315.702 163.137 316.2 163.716 317.187 164.536C318.182 165.362 318.347 165.528 318.672 166.348C319.003 167.174 318.581 168.148 319.928 168.038" stroke="#005AC3" stroke-width="1.11085" stroke-linecap="round" stroke-linejoin="round"/>
<path d="M288.92 147.725L289.334 144.424C289.334 144.424 289.417 144.342 290.08 144.176C290.743 144.011 291.399 143.598 291.565 143.35C291.731 143.102 291.648 142.44 292.145 142.109C292.642 141.779 293.305 141.283 293.961 140.711C294.624 140.132 295.446 139.147 296.026 138.651C296.606 138.154 296.772 137.906 297.428 137.493C298.091 137.08 298.505 136.584 299.161 136.012C299.824 135.433 299.824 134.613 300.238 134.282C300.653 133.951 301.233 134.034 301.723 133.869C302.22 133.703 303.125 133.373 303.374 132.546C303.374 132.546 305.024 132.381 305.438 132.132C305.853 131.884 306.267 131.306 306.35 130.816C306.433 130.32 306.433 128.26 306.433 128.26" stroke="#005AC3" stroke-width="1.11085" stroke-linecap="round" stroke-linejoin="round"/>
<path d="M292.807 131.643C292.807 131.643 293.221 130.871 293.387 130.706C293.552 130.54 293.608 130.706 294.105 130.21C294.602 129.714 294.878 129.273 295.376 128.942C295.873 128.611 296.149 128.611 296.646 128.06C297.143 127.509 297.364 127.784 297.641 127.509C297.917 127.233 297.917 126.958 298.027 126.517C298.138 126.076 298.083 126.02 298.414 125.8C298.746 125.58 298.856 125.8 298.911 125.304C298.967 124.808 298.856 124.367 298.967 124.091C299.077 123.816 299.188 123.816 299.574 123.54C299.961 123.264 300.016 122.879 300.513 122.658C301.011 122.438 300.9 122.383 301.176 122.052C301.453 121.721 301.342 122.107 301.618 121.666C301.895 121.225 301.839 121.06 301.839 120.894C301.839 120.729 301.784 120.674 301.95 120.453C302.116 120.233 302.171 119.296 302.171 119.13" stroke="#005AC3" stroke-width="1.11085" stroke-linecap="round" stroke-linejoin="round"/>
<path d="M297.515 112.123C297.515 112.123 297.625 113.17 297.736 113.549C297.846 113.935 298.122 114.211 298.178 114.597C298.233 114.983 298.564 115.258 298.509 115.809C298.454 116.361 298.62 116.802 298.896 117.022C299.172 117.242 299.669 117.849 299.835 118.014C300.001 118.18 300.553 119.006 301.106 119.061C301.658 119.117 302.535 118.951 302.867 119.227C303.198 119.502 303.53 119.999 303.585 120.329C303.64 120.66 303.972 121.046 304.634 121.211C305.297 121.377 305.463 121.652 305.85 121.873C306.237 122.093 306.347 122.093 306.9 122.314C307.452 122.534 307.673 122.699 307.673 122.699V120.391C307.673 120.391 308.502 120.391 308.833 120.281C309.165 120.171 309.662 119.895 310.049 119.785C310.435 119.675 311.153 119.84 311.644 119.399C312.141 118.958 312.307 118.683 312.638 118.517C312.97 118.352 313.191 118.517 313.633 118.407C314.075 118.297 313.964 118.131 314.461 118.131C314.959 118.131 315.345 118.021 315.345 118.021L315.069 114.941C315.069 114.941 314.959 115.327 314.793 114.225C314.627 113.122 315.345 112.413 315.842 111.586C316.34 110.759 318.985 105.316 318.985 105.316C318.985 105.316 320.31 105.481 320.746 105.261C321.187 105.04 321.961 103.063 322.23 102.787C322.506 102.511 322.506 102.015 322.838 101.905C323.169 101.795 323.832 100.858 323.998 100.534C324.164 100.203 324.606 99.4316 324.827 98.9424C325.048 98.4463 325.269 97.6195 325.379 97.0752C325.49 96.524 325.379 96.524 325.766 96.1381C326.153 95.7523 326.153 95.201 326.484 95.3113C326.816 95.4215 326.705 95.642 327.313 95.642C327.921 95.642 328.086 95.642 328.418 95.8074C328.749 95.9727 329.246 96.1381 329.246 95.642C329.246 95.1459 329.302 93.6646 329.302 93.6646" stroke="#005AC3" stroke-width="1.11085" stroke-linecap="round" stroke-linejoin="round"/>
<path d="M316.526 94.8011C316.526 94.8011 316.968 95.5728 317.079 96.1722C317.189 96.7786 317.41 97.2746 317.41 97.819C317.41 98.3633 317.687 98.3702 317.908 98.2599C318.128 98.1497 318.128 97.819 318.626 97.3229C319.123 96.8268 319.289 97.0473 319.675 96.6063C320.062 96.1653 320.062 96.3858 320.559 96C321.057 95.6141 321.388 95.118 321.664 94.7873C321.94 94.4566 322.603 94.7322 323.204 94.6219C323.812 94.5117 324.42 94.2912 324.578 94.0156C324.744 93.74 324.744 93.1337 325.186 93.0786C325.628 93.0235 326.291 92.9683 326.671 92.803C327.051 92.6376 327.334 92.3069 327.665 92.6376C327.997 92.9683 328.494 93.3542 328.494 93.3542C328.494 93.3542 329.378 93.74 330.089 93.74C330.8 93.74 331.36 94.1259 331.574 94.5668C331.795 95.0078 332.016 95.3936 332.403 95.6141C332.789 95.8346 333.287 96.1102 334.108 96.1102C334.93 96.1102 335.538 96.1653 335.538 96.1653C335.538 96.1653 335.593 98.5838 335.427 99.0247C335.262 99.4657 335.151 99.7964 335.041 100.127C334.93 100.458 334.654 100.513 334.543 100.844C334.433 101.174 334.101 101.34 334.046 101.56C333.991 101.781 334.212 102.001 334.212 102.001H339.502C339.502 102.001 339.833 101.505 340.551 101.56" stroke="#005AC3" stroke-width="1.11085" stroke-linecap="round" stroke-linejoin="round"/>
<path d="M341.783 86.8569L345.416 97.7846L349.422 96.8656" stroke="#005AC3" stroke-width="1.11085" stroke-linecap="round" stroke-linejoin="round"/>
<path d="M344.523 69.2944C344.523 69.2944 344.744 69.6252 345.407 69.7354C346.07 69.8456 346.678 69.7905 346.837 69.9008C347.003 70.011 347.334 70.2866 347.721 70.3417C348.108 70.3969 353.319 69.2944 353.319 69.2944" stroke="#005AC3" stroke-width="1.11085" stroke-linecap="round" stroke-linejoin="round"/>
<path d="M344.302 86.1196C344.302 86.1196 344.412 86.8638 344.467 87.1945C344.522 87.5252 344.44 87.8284 344.881 88.228" stroke="#005AC3" stroke-width="1.11085" stroke-linecap="round" stroke-linejoin="round"/>
<path d="M343.301 34.0337C343.301 34.0337 343.141 34.3336 343.306 34.9054C343.472 35.4842 343.141 36.2215 343.638 36.7175C344.135 37.2136 344.798 38.1162 344.881 38.695C344.964 39.2738 345.212 40.5071 345.544 41.0859C345.875 41.6646 345.958 42.6499 346.124 43.2287C346.29 43.8075 346.787 44.6274 347.201 44.8754C347.616 45.1235 347.947 45.1235 348.113 45.6196C348.279 46.1156 348.361 47.4317 348.61 47.8451C348.859 48.2585 349.356 49.4918 349.604 50.484C349.853 51.4761 350.102 52.4614 350.102 53.2056C350.102 53.9497 350.185 55.5137 350.185 56.5886C350.185 57.6635 350.433 58.8141 350.765 59.5582C351.096 60.3024 351.179 60.9569 351.262 61.453C351.345 61.9491 351.262 62.3625 351.593 62.8517C351.925 63.3478 352.671 64.4984 352.754 64.9945C352.836 65.4906 353.002 66.3105 353.168 66.8893C353.334 67.4681 353.499 68.3707 353.499 68.7841" stroke="#005AC3" stroke-width="1.11085" stroke-linecap="round" stroke-linejoin="round"/>
<path d="M350.046 52.7574C350.046 52.7574 351.779 52.468 352.608 52.2613C353.437 52.0546 355.129 51.5171 356.081 51.1864C357.034 50.8557 358.353 50.2356 358.975 49.9462C359.597 49.6568 360.915 49.1194 361.33 48.9954C361.744 48.8713 362.117 48.83 362.49 48.4993C362.863 48.1685 362.697 47.5484 363.153 47.2177C363.609 46.887 364.447 46.2666 364.447 46.2666" stroke="#005AC3" stroke-width="1.11085" stroke-linecap="round" stroke-linejoin="round"/>
<path d="M350.867 60.013C350.867 60.013 352.808 59.5583 353.429 59.2689C354.051 58.9795 356.571 57.9873 357.441 57.7049C358.312 57.4155 360.832 56.7127 361.371 56.4233C361.909 56.1339 362.614 55.9272 363.063 55.8445C363.518 55.7618 364.016 55.7205 364.347 55.5551C364.679 55.3898 365.176 55.3071 365.383 55.4725C365.59 55.6378 365.839 56.1753 366.17 56.3406C366.502 56.506 366.958 56.8367 367.248 57.0021C367.538 57.1674 367.828 57.2501 367.662 58.0356" stroke="#005AC3" stroke-width="1.11085" stroke-linecap="round" stroke-linejoin="round"/>
<path d="M362.155 56.1001C362.155 56.1001 362.653 57.2163 362.735 57.7055C362.818 58.2016 363.274 59.1455 363.44 59.5176C363.605 59.8897 363.771 60.3444 363.813 60.7578C363.854 61.1712 365.005 61.2798 365.005 61.2798" stroke="#005AC3" stroke-width="1.11085" stroke-linecap="round" stroke-linejoin="round"/>
<path d="M354.095 29.4209C354.302 29.5449 354.385 30.041 354.385 30.3717C354.385 30.7025 354.675 31.1985 354.924 31.3639C355.172 31.5293 355.711 31.984 355.628 32.4388C355.545 32.8935 355.421 33.0589 355.172 33.555C354.924 34.051 355.131 34.1751 354.799 34.5471C354.468 34.9192 354.675 34.9192 354.302 35.2913C353.929 35.6633 353.929 35.7047 353.929 35.87C353.929 36.0354 354.095 36.1594 354.219 36.5315C354.344 36.9036 354.261 37.0689 354.095 37.2756C353.929 37.4823 353.846 38.0197 353.846 38.0197C353.846 38.0197 353.971 39.8318 353.929 40.1626C353.888 40.4933 353.764 40.8654 353.681 41.4028C353.598 41.9402 353.639 42.6017 353.556 43.0495C353.474 43.4974 353.474 44.0004 353.639 44.2071C353.805 44.4138 353.971 44.7032 353.846 45.0752C353.722 45.4473 353.598 45.902 353.888 46.1501C354.178 46.3981 354.012 46.5635 354.178 46.8942C354.344 47.2249 354.261 47.1009 354.509 47.597C354.758 48.0931 354.758 48.3411 354.924 48.7545C355.089 49.1679 355.048 50.0705 355.048 50.0705C355.048 50.0705 355.007 50.484 355.297 50.6493C355.587 50.8147 355.642 51.0903 355.6 51.3797" stroke="#005AC3" stroke-width="1.11085" stroke-linecap="round" stroke-linejoin="round"/>
<path d="M356.656 26.249L362.262 42.1333C362.262 42.1333 362.594 42.7948 362.925 43.1806C363.256 43.5665 363.809 43.5114 364.03 43.6216C364.251 43.7318 365.024 43.6767 365.024 43.6767" stroke="#005AC3" stroke-width="1.11085" stroke-linecap="round" stroke-linejoin="round"/>
<path d="M233.597 48.1831C233.597 48.5138 234.039 49.1753 234.37 49.1753C234.702 49.1753 235.91 48.9548 236.186 49.1753C236.463 49.3958 237.125 49.6163 237.512 49.6714C237.899 49.7265 238.783 50.0021 239.273 50.0021C239.763 50.0021 240.544 50.0021 240.703 50.1675C240.868 50.3328 242.077 50.6084 242.298 50.6084C242.519 50.6084 243.569 50.7738 243.893 50.9943C244.225 51.2148 245.109 51.325 245.765 51.325C246.421 51.325 246.98 51.4352 247.36 51.4904C247.747 51.5455 248.299 51.3801 248.354 51.7108C248.409 52.0416 248.409 52.4274 248.575 52.5928C248.741 52.7581 249.017 53.0889 249.404 53.0889C249.791 53.0889 250.343 53.0889 250.343 53.4747C250.343 53.8606 250.398 54.3015 250.564 54.7425C250.73 55.1835 250.509 55.3488 250.619 55.6244C250.73 55.9 251.116 56.2308 251.337 56.5064C251.558 56.782 251.579 57.471 251.849 57.843" stroke="#005AC3" stroke-width="1.11085" stroke-linecap="round" stroke-linejoin="round"/>
<path d="M30.6641 53.9972C31.0367 53.8927 31.5149 53.7952 32.0985 53.6977C32.6821 53.6071 33.3009 53.5583 33.9408 53.5583C34.5947 53.5583 35.1361 53.6419 35.5721 53.8091C36.008 53.9833 36.3526 54.2202 36.6058 54.5337C36.8589 54.8402 37.0417 55.2094 37.1472 55.6344C37.2527 56.0593 37.3089 56.533 37.3089 57.0555V61.3608H35.1291V57.3133C35.1291 56.6166 35.0377 56.122 34.8479 55.8364C34.665 55.5438 34.3205 55.4045 33.8072 55.4045C33.6525 55.4045 33.4837 55.4114 33.3079 55.4253C33.1392 55.4393 32.9845 55.4532 32.8439 55.4741V61.3608H30.6641V53.9972Z" fill="#E5F1FE"/>
<path d="M21.2832 123.698C21.6559 123.594 22.134 123.496 22.7176 123.399C23.3013 123.308 23.92 123.26 24.5599 123.26C25.2139 123.26 25.7553 123.343 26.1913 123.51C26.6272 123.684 26.9718 123.921 27.2249 124.235C27.478 124.541 27.6608 124.911 27.7663 125.336C27.8718 125.76 27.928 126.234 27.928 126.757V131.062H25.7483V127.014C25.7483 126.318 25.6568 125.823 25.467 125.538C25.2842 125.245 24.9396 125.106 24.4263 125.106C24.2716 125.106 24.1029 125.113 23.9271 125.127C23.7583 125.14 23.6036 125.154 23.463 125.175V131.062H21.2832V123.698Z" fill="#E5F1FE"/>
<path d="M49.4258 101.853C49.7985 101.748 50.2766 101.651 50.8602 101.553C51.4438 101.463 52.0626 101.414 52.7025 101.414C53.3564 101.414 53.8979 101.497 54.3338 101.665C54.7698 101.839 55.1143 102.076 55.3675 102.389C55.6206 102.696 55.8034 103.065 55.9089 103.49C56.0144 103.915 56.0706 104.388 56.0706 104.911V109.216H53.8908V105.169C53.8908 104.472 53.7994 103.977 53.6096 103.692C53.4268 103.399 53.0822 103.26 52.5689 103.26C52.4142 103.26 52.2454 103.267 52.0697 103.281C51.9009 103.295 51.7462 103.309 51.6056 103.33V109.216H49.4258V101.853Z" fill="#E5F1FE"/>
<path d="M71.3145 64.4015C71.6871 64.297 72.1653 64.1995 72.7489 64.102C73.3325 64.0114 73.9513 63.9626 74.5912 63.9626C75.2451 63.9626 75.7865 64.0462 76.2225 64.2134C76.6584 64.3876 77.003 64.6245 77.2562 64.9379C77.5093 65.2445 77.6921 65.6137 77.7976 66.0387C77.903 66.4636 77.9593 66.9373 77.9593 67.4598V71.7651H75.7795V67.7176C75.7795 67.0209 75.6881 66.5263 75.4982 66.2407C75.3154 65.9481 74.9709 65.8088 74.4576 65.8088C74.3029 65.8088 74.1341 65.8157 73.9583 65.8296C73.7896 65.8436 73.6349 65.8575 73.4942 65.8784V71.7651H71.3145V64.4015Z" fill="#E5F1FE"/>
<path d="M45.2578 23.8273C45.6305 23.7228 46.1086 23.6253 46.6923 23.5278C47.2759 23.4372 47.8947 23.3884 48.5345 23.3884C49.1885 23.3884 49.7299 23.472 50.1659 23.6392C50.6018 23.8134 50.9464 24.0502 51.1995 24.3637C51.4526 24.6702 51.6354 25.0395 51.7409 25.4644C51.8464 25.8894 51.9027 26.3631 51.9027 26.8856V31.1908H49.7229V27.1434C49.7229 26.4467 49.6315 25.9521 49.4416 25.6664C49.2588 25.3739 48.9142 25.2345 48.4009 25.2345C48.2462 25.2345 48.0775 25.2415 47.9017 25.2554C47.7329 25.2694 47.5782 25.2833 47.4376 25.3042V31.1908H45.2578V23.8273Z" fill="#E5F1FE"/>
</svg>
