<svg width="530" height="358" viewBox="0 0 530 358" fill="none" xmlns="http://www.w3.org/2000/svg">
<g filter="url(#filter0_d_623_16457)">
<rect x="65" y="46" width="400" height="608" rx="16" fill="white"/>
<g filter="url(#filter1_di_623_16457)">
<path d="M65 55.5238C65 50.264 69.264 46 74.5238 46H455.476C460.736 46 465 50.264 465 55.5238V96.4762H65V55.5238Z" fill="white"/>
<g clip-path="url(#clip0_623_16457)">
<path d="M398.81 77.433C399.197 77.433 399.522 77.1247 399.522 76.7452V71.488H404.629C405.008 71.488 405.332 71.1639 405.332 70.7766C405.332 70.3892 405.008 70.073 404.629 70.073H399.522V64.8079C399.522 64.4284 399.197 64.1201 398.81 64.1201C398.423 64.1201 398.107 64.4284 398.107 64.8079V70.073H392.992C392.612 70.073 392.288 70.3892 392.288 70.7766C392.288 71.1639 392.612 71.488 392.992 71.488H398.107V76.7452C398.107 77.1247 398.423 77.433 398.81 77.433Z" fill="#737373"/>
<path d="M431.976 75.4018H433.328V76.6113C433.328 78.2399 434.15 79.062 435.811 79.062H443.748C445.392 79.062 446.222 78.2399 446.222 76.6113V68.611C446.222 66.9824 445.392 66.1602 443.748 66.1602H442.388V64.9507C442.388 63.3222 441.558 62.5 439.914 62.5H431.976C430.316 62.5 429.494 63.3222 429.494 64.9507V72.9511C429.494 74.5796 430.316 75.4018 431.976 75.4018ZM431.992 74.129C431.202 74.129 430.767 73.7021 430.767 72.8799V65.0219C430.767 64.1997 431.202 63.7728 431.992 63.7728H439.89C440.673 63.7728 441.115 64.1997 441.115 65.0219V66.1602H435.811C434.15 66.1602 433.328 66.9745 433.328 68.611V74.129H431.992ZM435.826 77.7892C435.044 77.7892 434.601 77.3624 434.601 76.5402V68.6821C434.601 67.8599 435.044 67.433 435.826 67.433H443.724C444.507 67.433 444.949 67.8599 444.949 68.6821V76.5402C444.949 77.3624 444.507 77.7892 443.724 77.7892H435.826Z" fill="#737373"/>
</g>
<g clip-path="url(#clip1_623_16457)">
<path d="M210.966 77.4171L204.697 71.2982C204.547 71.148 204.468 70.9662 204.468 70.7686C204.468 70.563 204.555 70.3654 204.705 70.2389L210.966 64.1121C211.1 63.9777 211.274 63.8987 211.48 63.8987C211.891 63.8987 212.199 64.2149 212.199 64.626C212.199 64.8157 212.12 65.0055 211.994 65.1398L206.239 70.7686L211.994 76.3973C212.12 76.5317 212.199 76.7135 212.199 76.9111C212.199 77.3222 211.891 77.6305 211.48 77.6305C211.274 77.6305 211.1 77.5515 210.966 77.4171Z" fill="#737373"/>
<path d="M236.616 77.6385C236.821 77.6385 236.995 77.5594 237.13 77.425L243.399 71.2982C243.549 71.148 243.628 70.9662 243.628 70.7686C243.628 70.563 243.549 70.3733 243.399 70.2389L237.138 64.12C236.995 63.9777 236.821 63.8987 236.616 63.8987C236.205 63.8987 235.896 64.2149 235.896 64.626C235.896 64.8157 235.976 65.0055 236.102 65.1398L241.857 70.7686L236.102 76.3973C235.976 76.5317 235.896 76.7135 235.896 76.9111C235.896 77.3222 236.205 77.6385 236.616 77.6385Z" fill="#BFBFBF"/>
</g>
<path d="M161.495 78.0584H175.172C176.832 78.0584 177.654 77.2363 177.654 75.6077V65.9551C177.654 64.3266 176.832 63.5044 175.172 63.5044H161.495C159.843 63.5044 159.013 64.3187 159.013 65.9551V75.6077C159.013 77.2442 159.843 78.0584 161.495 78.0584ZM161.511 76.7856C160.72 76.7856 160.285 76.3667 160.285 75.5445V66.0183C160.285 65.1962 160.72 64.7772 161.511 64.7772H165.037V76.7856H161.511ZM175.156 64.7772C175.938 64.7772 176.381 65.1962 176.381 66.0183V75.5445C176.381 76.3667 175.938 76.7856 175.156 76.7856H166.278V64.7772H175.156ZM163.511 67.7101C163.756 67.7101 163.962 67.4967 163.962 67.2674C163.962 67.0303 163.756 66.8247 163.511 66.8247H161.819C161.582 66.8247 161.369 67.0303 161.369 67.2674C161.369 67.4967 161.582 67.7101 161.819 67.7101H163.511ZM163.511 69.7577C163.756 69.7577 163.962 69.5442 163.962 69.307C163.962 69.0699 163.756 68.8722 163.511 68.8722H161.819C161.582 68.8722 161.369 69.0699 161.369 69.307C161.369 69.5442 161.582 69.7577 161.819 69.7577H163.511ZM163.511 71.7973C163.756 71.7973 163.962 71.5996 163.962 71.3625C163.962 71.1253 163.756 70.9198 163.511 70.9198H161.819C161.582 70.9198 161.369 71.1253 161.369 71.3625C161.369 71.5996 161.582 71.7973 161.819 71.7973H163.511Z" fill="#737373"/>
<g filter="url(#filter2_i_623_16457)">
<path fill-rule="evenodd" clip-rule="evenodd" d="M90.7143 76.4769C93.8702 76.4769 96.4286 73.9185 96.4286 70.7626C96.4286 67.6067 93.8702 65.0483 90.7143 65.0483C87.5584 65.0483 85 67.6067 85 70.7626C85 73.9185 87.5584 76.4769 90.7143 76.4769Z" fill="#EE6A5F"/>
</g>
<path d="M96.1905 70.7626C96.1905 73.787 93.7387 76.2388 90.7143 76.2388C87.6899 76.2388 85.2381 73.787 85.2381 70.7626C85.2381 67.7382 87.6899 65.2864 90.7143 65.2864C93.7387 65.2864 96.1905 67.7382 96.1905 70.7626Z" stroke="#CE5347" stroke-width="0.476191"/>
<g filter="url(#filter3_i_623_16457)">
<path fill-rule="evenodd" clip-rule="evenodd" d="M109.762 76.4769C112.918 76.4769 115.476 73.9185 115.476 70.7626C115.476 67.6067 112.918 65.0483 109.762 65.0483C106.606 65.0483 104.048 67.6067 104.048 70.7626C104.048 73.9185 106.606 76.4769 109.762 76.4769Z" fill="#F5BD4F"/>
</g>
<path d="M115.238 70.7626C115.238 73.787 112.787 76.2388 109.762 76.2388C106.738 76.2388 104.286 73.787 104.286 70.7626C104.286 67.7382 106.738 65.2864 109.762 65.2864C112.787 65.2864 115.238 67.7382 115.238 70.7626Z" stroke="#D6A243" stroke-width="0.476191"/>
<g filter="url(#filter4_i_623_16457)">
<path fill-rule="evenodd" clip-rule="evenodd" d="M128.81 76.4769C131.966 76.4769 134.524 73.9185 134.524 70.7626C134.524 67.6067 131.966 65.0483 128.81 65.0483C125.654 65.0483 123.096 67.6067 123.096 70.7626C123.096 73.9185 125.654 76.4769 128.81 76.4769Z" fill="#61C454"/>
</g>
<path d="M134.286 70.7626C134.286 73.787 131.834 76.2388 128.81 76.2388C125.786 76.2388 123.334 73.787 123.334 70.7626C123.334 67.7382 125.786 65.2864 128.81 65.2864C131.834 65.2864 134.286 67.7382 134.286 70.7626Z" stroke="#58A942" stroke-width="0.476191"/>
</g>
<path d="M65 96.2661H465V156.158H65V96.2661Z" fill="#F1F2F2"/>
<path d="M91.4497 117.405C92.3908 117.405 93.2179 117.605 93.9309 118.004C94.6582 118.389 95.2214 118.945 95.6207 119.672C96.0342 120.385 96.241 121.212 96.241 122.154C96.241 123.095 96.0342 123.929 95.6207 124.656C95.2072 125.369 94.6368 125.925 93.9095 126.325C93.1823 126.71 92.3623 126.902 91.4497 126.902H88.1129V132.378H85.2894V117.405H91.4497ZM91.1716 124.335C91.8418 124.335 92.3837 124.136 92.7973 123.736C93.2108 123.337 93.4176 122.81 93.4176 122.154C93.4176 121.498 93.2108 120.97 92.7973 120.571C92.3837 120.171 91.8418 119.972 91.1716 119.972H88.1129V124.335H91.1716ZM100.349 123.266C100.548 122.724 100.862 122.332 101.29 122.089C101.732 121.847 102.302 121.726 103.001 121.726H104.113V123.993H102.53C101.817 123.993 101.247 124.186 100.819 124.571C100.391 124.941 100.177 125.49 100.177 126.218V132.378H97.4823V121.769H100.135V123.266H100.349ZM104.314 127.073C104.314 125.947 104.556 124.963 105.041 124.121C105.526 123.266 106.189 122.61 107.03 122.154C107.871 121.697 108.82 121.469 109.875 121.469C110.93 121.469 111.879 121.697 112.72 122.154C113.561 122.61 114.224 123.266 114.709 124.121C115.194 124.963 115.436 125.947 115.436 127.073C115.436 128.2 115.194 129.191 114.709 130.046C114.224 130.888 113.561 131.537 112.72 131.993C111.879 132.449 110.93 132.677 109.875 132.677C108.82 132.677 107.871 132.449 107.03 131.993C106.189 131.537 105.526 130.888 105.041 130.046C104.556 129.191 104.314 128.2 104.314 127.073ZM107.009 127.073C107.009 128.086 107.273 128.884 107.8 129.469C108.328 130.039 109.019 130.325 109.875 130.325C110.731 130.325 111.422 130.039 111.95 129.469C112.477 128.884 112.741 128.086 112.741 127.073C112.741 126.061 112.477 125.269 111.95 124.699C111.422 124.114 110.731 123.822 109.875 123.822C109.019 123.822 108.328 124.114 107.8 124.699C107.273 125.269 107.009 126.061 107.009 127.073ZM116.34 127.073C116.34 126.004 116.583 125.041 117.068 124.186C117.552 123.33 118.216 122.667 119.057 122.196C119.898 121.712 120.832 121.469 121.859 121.469C123.285 121.469 124.447 121.847 125.346 122.603C126.258 123.344 126.836 124.335 127.078 125.576L124.469 126.132C124.383 125.448 124.126 124.892 123.698 124.464C123.271 124.036 122.672 123.822 121.902 123.822C121.06 123.822 120.369 124.114 119.827 124.699C119.299 125.284 119.036 126.075 119.036 127.073C119.036 128.071 119.299 128.863 119.827 129.448C120.369 130.032 121.06 130.325 121.902 130.325C122.672 130.325 123.271 130.118 123.698 129.704C124.141 129.291 124.426 128.72 124.554 127.993L127.164 128.613C126.85 129.84 126.244 130.824 125.346 131.565C124.447 132.307 123.285 132.677 121.859 132.677C120.832 132.677 119.898 132.442 119.057 131.972C118.216 131.487 117.552 130.816 117.068 129.961C116.583 129.105 116.34 128.143 116.34 127.073ZM127.97 127.073C127.97 125.961 128.191 124.984 128.633 124.143C129.09 123.287 129.717 122.631 130.516 122.175C131.328 121.704 132.255 121.469 133.296 121.469C134.323 121.469 135.221 121.697 135.991 122.154C136.776 122.61 137.382 123.259 137.81 124.1C138.237 124.927 138.451 125.875 138.451 126.945V127.865H130.73C130.758 128.592 131.022 129.191 131.521 129.661C132.034 130.132 132.669 130.367 133.425 130.367C134.109 130.367 134.637 130.218 135.008 129.918C135.393 129.619 135.692 129.226 135.906 128.742L138.109 129.897C137.125 131.75 135.535 132.677 133.339 132.677C132.298 132.677 131.371 132.449 130.558 131.993C129.746 131.522 129.111 130.866 128.655 130.025C128.198 129.169 127.97 128.186 127.97 127.073ZM135.713 125.854C135.642 125.241 135.385 124.742 134.943 124.357C134.516 123.972 133.959 123.779 133.275 123.779C132.576 123.779 131.999 123.972 131.542 124.357C131.1 124.742 130.836 125.241 130.751 125.854H135.713ZM139.736 124.742C139.736 123.715 140.114 122.917 140.87 122.346C141.626 121.761 142.646 121.469 143.929 121.469C145.084 121.469 146.046 121.733 146.817 122.261C147.587 122.774 148.107 123.473 148.378 124.357L145.94 125.105C145.711 124.05 145.041 123.523 143.929 123.523C143.416 123.523 143.023 123.615 142.752 123.801C142.482 123.986 142.346 124.243 142.346 124.571C142.346 124.913 142.482 125.177 142.752 125.362C143.038 125.533 143.473 125.676 144.057 125.79L144.613 125.897C145.54 126.082 146.296 126.289 146.881 126.517C147.465 126.745 147.929 127.073 148.271 127.501C148.628 127.929 148.806 128.492 148.806 129.191C148.806 130.289 148.406 131.144 147.608 131.758C146.809 132.371 145.726 132.677 144.357 132.677C142.959 132.677 141.818 132.378 140.934 131.779C140.064 131.18 139.537 130.325 139.351 129.212L141.833 128.571C142.075 129.939 142.916 130.624 144.357 130.624C144.956 130.624 145.412 130.51 145.726 130.282C146.039 130.054 146.196 129.761 146.196 129.405C146.196 129.077 146.046 128.82 145.747 128.635C145.448 128.435 144.956 128.271 144.271 128.143L143.715 128.036C142.446 127.793 141.462 127.43 140.763 126.945C140.079 126.446 139.736 125.711 139.736 124.742ZM150.113 124.742C150.113 123.715 150.491 122.917 151.247 122.346C152.002 121.761 153.022 121.469 154.305 121.469C155.461 121.469 156.423 121.733 157.193 122.261C157.963 122.774 158.484 123.473 158.755 124.357L156.316 125.105C156.088 124.05 155.418 123.523 154.305 123.523C153.792 123.523 153.4 123.615 153.129 123.801C152.858 123.986 152.723 124.243 152.723 124.571C152.723 124.913 152.858 125.177 153.129 125.362C153.414 125.533 153.849 125.676 154.434 125.79L154.99 125.897C155.917 126.082 156.673 126.289 157.257 126.517C157.842 126.745 158.305 127.073 158.648 127.501C159.004 127.929 159.182 128.492 159.182 129.191C159.182 130.289 158.783 131.144 157.984 131.758C157.186 132.371 156.102 132.677 154.733 132.677C153.336 132.677 152.195 132.378 151.311 131.779C150.441 131.18 149.913 130.325 149.728 129.212L152.209 128.571C152.452 129.939 153.293 130.624 154.733 130.624C155.332 130.624 155.788 130.51 156.102 130.282C156.416 130.054 156.573 129.761 156.573 129.405C156.573 129.077 156.423 128.82 156.124 128.635C155.824 128.435 155.332 128.271 154.648 128.143L154.092 128.036C152.822 127.793 151.838 127.43 151.14 126.945C150.455 126.446 150.113 125.711 150.113 124.742ZM177.183 117.405V119.972H172.648V132.378H169.824V119.972H165.29V117.405H177.183ZM179.079 123.266C179.278 122.724 179.592 122.332 180.02 122.089C180.462 121.847 181.032 121.726 181.731 121.726H182.843V123.993H181.261C180.548 123.993 179.977 124.186 179.549 124.571C179.122 124.941 178.908 125.49 178.908 126.218V132.378H176.213V121.769H178.865V123.266H179.079ZM183.766 124.464C184.051 123.58 184.579 122.859 185.349 122.303C186.133 121.747 187.174 121.469 188.472 121.469C189.884 121.469 190.989 121.826 191.787 122.539C192.6 123.237 193.007 124.243 193.007 125.555V132.378H190.44V131.137H190.14C189.984 131.508 189.677 131.857 189.221 132.185C188.779 132.513 188.13 132.677 187.274 132.677C186.148 132.677 185.214 132.378 184.472 131.779C183.745 131.166 183.381 130.332 183.381 129.276C183.381 128.221 183.752 127.408 184.493 126.838C185.249 126.253 186.247 125.961 187.488 125.961H190.397V125.362C190.397 124.834 190.233 124.414 189.905 124.1C189.577 123.772 189.085 123.608 188.429 123.608C187.787 123.608 187.288 123.765 186.932 124.079C186.575 124.378 186.347 124.785 186.247 125.298L183.766 124.464ZM186.076 129.212C186.076 129.597 186.226 129.911 186.525 130.153C186.839 130.382 187.274 130.496 187.83 130.496C188.586 130.496 189.199 130.282 189.67 129.854C190.155 129.412 190.397 128.841 190.397 128.143V127.972H187.681C187.181 127.972 186.789 128.086 186.504 128.314C186.219 128.542 186.076 128.841 186.076 129.212ZM197.717 123.351H197.931C198.487 122.182 199.578 121.597 201.204 121.597C202.017 121.597 202.737 121.79 203.364 122.175C203.992 122.546 204.476 123.066 204.819 123.736C205.161 124.407 205.332 125.177 205.332 126.047V132.378H202.637V126.175C202.637 125.376 202.444 124.777 202.059 124.378C201.674 123.979 201.111 123.779 200.37 123.779C199.542 123.779 198.901 124.057 198.444 124.613C197.988 125.155 197.76 125.918 197.76 126.902V132.378H195.065V121.769H197.717V123.351ZM207.213 124.742C207.213 123.715 207.591 122.917 208.347 122.346C209.102 121.761 210.122 121.469 211.405 121.469C212.56 121.469 213.523 121.733 214.293 122.261C215.063 122.774 215.583 123.473 215.854 124.357L213.416 125.105C213.188 124.05 212.518 123.523 211.405 123.523C210.892 123.523 210.5 123.615 210.229 123.801C209.958 123.986 209.822 124.243 209.822 124.571C209.822 124.913 209.958 125.177 210.229 125.362C210.514 125.533 210.949 125.676 211.534 125.79L212.09 125.897C213.017 126.082 213.772 126.289 214.357 126.517C214.942 126.745 215.405 127.073 215.747 127.501C216.104 127.929 216.282 128.492 216.282 129.191C216.282 130.289 215.883 131.144 215.084 131.758C214.286 132.371 213.202 132.677 211.833 132.677C210.436 132.677 209.295 132.378 208.411 131.779C207.541 131.18 207.013 130.325 206.828 129.212L209.309 128.571C209.552 129.939 210.393 130.624 211.833 130.624C212.432 130.624 212.888 130.51 213.202 130.282C213.516 130.054 213.673 129.761 213.673 129.405C213.673 129.077 213.523 128.82 213.223 128.635C212.924 128.435 212.432 128.271 211.748 128.143L211.191 128.036C209.922 127.793 208.938 127.43 208.24 126.945C207.555 126.446 207.213 125.711 207.213 124.742ZM217.799 124.464C218.085 123.58 218.612 122.859 219.382 122.303C220.167 121.747 221.207 121.469 222.505 121.469C223.917 121.469 225.022 121.826 225.821 122.539C226.633 123.237 227.04 124.243 227.04 125.555V132.378H224.473V131.137H224.174C224.017 131.508 223.71 131.857 223.254 132.185C222.812 132.513 222.163 132.677 221.307 132.677C220.181 132.677 219.247 132.378 218.505 131.779C217.778 131.166 217.414 130.332 217.414 129.276C217.414 128.221 217.785 127.408 218.527 126.838C219.282 126.253 220.281 125.961 221.521 125.961H224.43V125.362C224.43 124.834 224.266 124.414 223.938 124.1C223.61 123.772 223.118 123.608 222.462 123.608C221.821 123.608 221.322 123.765 220.965 124.079C220.609 124.378 220.38 124.785 220.281 125.298L217.799 124.464ZM220.109 129.212C220.109 129.597 220.259 129.911 220.559 130.153C220.872 130.382 221.307 130.496 221.863 130.496C222.619 130.496 223.232 130.282 223.703 129.854C224.188 129.412 224.43 128.841 224.43 128.143V127.972H221.714C221.215 127.972 220.822 128.086 220.537 128.314C220.252 128.542 220.109 128.841 220.109 129.212ZM228.456 127.073C228.456 126.004 228.699 125.041 229.184 124.186C229.668 123.33 230.332 122.667 231.173 122.196C232.014 121.712 232.948 121.469 233.975 121.469C235.401 121.469 236.563 121.847 237.461 122.603C238.374 123.344 238.952 124.335 239.194 125.576L236.584 126.132C236.499 125.448 236.242 124.892 235.814 124.464C235.387 124.036 234.788 123.822 234.018 123.822C233.176 123.822 232.485 124.114 231.943 124.699C231.415 125.284 231.151 126.075 231.151 127.073C231.151 128.071 231.415 128.863 231.943 129.448C232.485 130.032 233.176 130.325 234.018 130.325C234.788 130.325 235.387 130.118 235.814 129.704C236.256 129.291 236.542 128.72 236.67 127.993L239.28 128.613C238.966 129.84 238.36 130.824 237.461 131.565C236.563 132.307 235.401 132.677 233.975 132.677C232.948 132.677 232.014 132.442 231.173 131.972C230.332 131.487 229.668 130.816 229.184 129.961C228.699 129.105 228.456 128.143 228.456 127.073ZM242.164 121.769V118.475H244.859V121.769H247.768V123.95H244.859V129.554C244.859 129.982 245.058 130.196 245.458 130.196H247.511V132.378H244.516C243.803 132.378 243.233 132.164 242.805 131.736C242.377 131.294 242.164 130.71 242.164 129.982V123.95H239.511V121.769H242.164ZM252.045 132.378H249.35V121.769H252.045V132.378ZM248.794 118.688C248.794 118.147 248.972 117.705 249.328 117.362C249.699 117.02 250.156 116.849 250.697 116.849C251.239 116.849 251.688 117.02 252.045 117.362C252.416 117.705 252.601 118.147 252.601 118.688C252.601 119.23 252.416 119.672 252.045 120.015C251.688 120.357 251.239 120.528 250.697 120.528C250.156 120.528 249.699 120.357 249.328 120.015C248.972 119.672 248.794 119.23 248.794 118.688ZM253.591 127.073C253.591 125.947 253.833 124.963 254.318 124.121C254.803 123.266 255.466 122.61 256.308 122.154C257.149 121.697 258.097 121.469 259.152 121.469C260.208 121.469 261.156 121.697 261.997 122.154C262.839 122.61 263.502 123.266 263.986 124.121C264.471 124.963 264.714 125.947 264.714 127.073C264.714 128.2 264.471 129.191 263.986 130.046C263.502 130.888 262.839 131.537 261.997 131.993C261.156 132.449 260.208 132.677 259.152 132.677C258.097 132.677 257.149 132.449 256.308 131.993C255.466 131.537 254.803 130.888 254.318 130.046C253.833 129.191 253.591 128.2 253.591 127.073ZM256.286 127.073C256.286 128.086 256.55 128.884 257.078 129.469C257.605 130.039 258.297 130.325 259.152 130.325C260.008 130.325 260.7 130.039 261.227 129.469C261.755 128.884 262.019 128.086 262.019 127.073C262.019 126.061 261.755 125.269 261.227 124.699C260.7 124.114 260.008 123.822 259.152 123.822C258.297 123.822 257.605 124.114 257.078 124.699C256.55 125.269 256.286 126.061 256.286 127.073ZM268.912 123.351H269.126C269.682 122.182 270.773 121.597 272.398 121.597C273.211 121.597 273.931 121.79 274.559 122.175C275.186 122.546 275.671 123.066 276.013 123.736C276.355 124.407 276.527 125.177 276.527 126.047V132.378H273.831V126.175C273.831 125.376 273.639 124.777 273.254 124.378C272.869 123.979 272.306 123.779 271.564 123.779C270.737 123.779 270.095 124.057 269.639 124.613C269.183 125.155 268.955 125.918 268.955 126.902V132.378H266.259V121.769H268.912V123.351Z" fill="black"/>
<path d="M432.068 119.315C432.846 119.092 433.844 118.884 435.061 118.675C436.279 118.482 437.57 118.378 438.905 118.378C440.27 118.378 441.4 118.556 442.309 118.913C443.219 119.285 443.938 119.791 444.466 120.461C444.994 121.116 445.376 121.904 445.596 122.812C445.816 123.72 445.933 124.732 445.933 125.848V135.044H441.385V126.399C441.385 124.91 441.194 123.854 440.798 123.244C440.417 122.619 439.698 122.321 438.627 122.321C438.304 122.321 437.952 122.336 437.585 122.366C437.233 122.396 436.91 122.425 436.617 122.47V135.044H432.068V119.315Z" fill="#0070F4"/>
<path d="M87.1333 189.8C87.9905 189.8 88.6667 189.619 89.1524 189.257C89.6286 188.895 89.8762 188.381 89.8762 187.714C89.8762 187.162 89.6952 186.733 89.3429 186.419C88.9905 186.104 88.419 185.866 87.6286 185.704L87.0381 185.59C86.5429 185.495 86.1905 185.371 86 185.219C85.8095 185.076 85.7143 184.866 85.7143 184.59C85.7143 184.323 85.819 184.123 86.0286 183.971C86.2381 183.828 86.5333 183.752 86.9333 183.752C87.4381 183.752 87.8095 183.847 88.0381 184.028C88.2667 184.219 88.4 184.504 88.4286 184.885H89.6762C89.6476 184.2 89.4 183.666 88.9429 183.285C88.4857 182.904 87.8095 182.714 86.9143 182.714C86.1238 182.714 85.5048 182.895 85.0667 183.238C84.619 183.581 84.4 184.047 84.4 184.628C84.4 185.733 85.1238 186.419 86.581 186.685L87.1524 186.8C87.6762 186.914 88.0381 187.038 88.2381 187.171C88.4381 187.314 88.5429 187.514 88.5429 187.781C88.5429 188.104 88.419 188.342 88.1905 188.514C87.9524 188.685 87.6095 188.762 87.1714 188.762C86.619 188.762 86.2095 188.657 85.9238 188.447C85.6381 188.238 85.4952 187.895 85.4952 187.409H84.2286C84.2286 188.181 84.4857 188.771 84.9905 189.181C85.4952 189.6 86.2095 189.8 87.1333 189.8ZM90.2439 182.866V184.019H92.4153V189.647H93.7106V184.019H95.882V182.866H90.2439ZM101.912 182.866H96.9121V189.647H101.893V188.495H98.1978V186.723H101.56V185.619H98.1978V184.019H101.912V182.866ZM103.087 182.866V189.647H104.373V187.276H106.068C106.821 187.276 107.411 187.085 107.83 186.685C108.249 186.285 108.468 185.752 108.468 185.076C108.468 184.4 108.249 183.866 107.83 183.466C107.411 183.066 106.821 182.866 106.068 182.866H103.087ZM104.373 186.171V183.971H106.011C106.383 183.971 106.668 184.066 106.868 184.257C107.068 184.447 107.173 184.723 107.173 185.076C107.173 185.438 107.068 185.704 106.868 185.895C106.668 186.085 106.383 186.171 106.011 186.171H104.373ZM113.718 182.866C113.622 183.314 113.442 183.638 113.175 183.828C112.908 184.019 112.537 184.133 112.042 184.162L111.889 184.171V185.076H113.451V189.647H114.737V182.866H113.718Z" fill="black"/>
<path d="M84.9943 201.156V213.362H87.3086V209.093H90.36C91.7143 209.093 92.7771 208.75 93.5314 208.03C94.2857 207.31 94.68 206.35 94.68 205.133C94.68 203.916 94.2857 202.956 93.5314 202.236C92.7771 201.516 91.7143 201.156 90.36 201.156H84.9943ZM87.3086 207.104V203.144H90.2571C90.9257 203.144 91.44 203.316 91.8 203.659C92.16 204.002 92.3486 204.499 92.3486 205.133C92.3486 205.784 92.16 206.264 91.8 206.607C91.44 206.95 90.9257 207.104 90.2571 207.104H87.3086ZM103.204 213.362C102.964 213.019 102.844 212.47 102.844 211.682V206.967C102.844 205.202 101.61 204.31 99.1583 204.31C96.6212 204.31 95.3012 205.322 95.1812 207.327H97.3069C97.3412 206.813 97.5126 206.453 97.7869 206.247C98.0612 206.042 98.5069 205.922 99.1412 205.922C99.724 205.922 100.135 206.024 100.375 206.196C100.615 206.367 100.753 206.642 100.753 207.019C100.753 207.327 100.65 207.567 100.461 207.722C100.255 207.876 99.9469 207.979 99.5012 208.03L98.164 208.15C95.9012 208.39 94.7697 209.299 94.7697 210.91C94.7697 211.75 95.044 212.402 95.6269 212.864C96.2097 213.344 96.9812 213.567 97.9583 213.567C99.2612 213.567 100.204 213.139 100.804 212.282C100.855 212.83 100.941 213.19 101.044 213.362H103.204ZM98.4726 212.024C97.9926 212.024 97.6154 211.922 97.3583 211.716C97.1012 211.51 96.9812 211.202 96.9812 210.824C96.9812 210.447 97.1012 210.173 97.3412 209.967C97.5812 209.762 97.9926 209.624 98.5754 209.556L99.7412 209.419C100.204 209.367 100.547 209.247 100.753 209.059V209.864C100.753 210.567 100.53 211.099 100.118 211.476C99.6897 211.853 99.1412 212.024 98.4726 212.024ZM108.941 206.744C108.324 208.733 107.861 210.379 107.518 211.664C107.073 209.95 106.61 208.304 106.113 206.727L105.393 204.516H103.061L105.633 211.784C105.907 212.556 106.044 213.156 106.044 213.567C106.044 213.996 105.907 214.339 105.667 214.596C105.41 214.87 105.05 214.99 104.587 214.99H103.764V216.687C104.038 216.722 104.347 216.739 104.707 216.739C105.77 216.739 106.576 216.55 107.141 216.156C107.69 215.779 108.136 215.093 108.513 214.082L111.924 204.516H109.661L108.941 206.744ZM122.683 204.31C121.517 204.31 120.591 204.859 119.94 205.956C119.46 204.859 118.534 204.31 117.197 204.31C116.117 204.31 115.277 204.807 114.677 205.784V204.516H112.585V213.362H114.745V208.493C114.745 207.739 114.9 207.173 115.243 206.779C115.585 206.384 116.014 206.179 116.563 206.179C117.591 206.179 118.105 206.744 118.105 207.859V213.362H120.248V208.493C120.248 207.739 120.403 207.173 120.745 206.779C121.088 206.384 121.534 206.179 122.083 206.179C123.094 206.179 123.608 206.744 123.608 207.859V213.362H125.768V207.516C125.768 206.522 125.494 205.75 124.945 205.167C124.397 204.602 123.643 204.31 122.683 204.31ZM135.696 209.093C135.696 207.67 135.301 206.522 134.513 205.63C133.724 204.756 132.661 204.31 131.324 204.31C130.021 204.31 128.958 204.739 128.153 205.579C127.347 206.436 126.953 207.55 126.953 208.939C126.953 210.344 127.347 211.459 128.17 212.299C128.976 213.156 130.038 213.567 131.358 213.567C132.404 213.567 133.296 213.31 134.033 212.779C134.753 212.247 135.233 211.527 135.473 210.619H133.398C133.021 211.476 132.353 211.887 131.376 211.887C130.707 211.887 130.176 211.699 129.781 211.322C129.387 210.944 129.147 210.362 129.078 209.607H135.696V209.093ZM131.307 205.99C131.924 205.99 132.421 206.179 132.816 206.556C133.193 206.933 133.433 207.447 133.536 208.099H129.096C129.301 206.693 130.038 205.99 131.307 205.99ZM141.77 204.31C140.605 204.31 139.679 204.807 139.01 205.784V204.516H136.919V213.362H139.079V208.407C139.079 207.722 139.267 207.173 139.645 206.779C140.022 206.384 140.502 206.179 141.05 206.179C142.147 206.179 142.713 206.744 142.713 207.859V213.362H144.873V207.499C144.873 206.487 144.582 205.699 144.033 205.15C143.485 204.602 142.73 204.31 141.77 204.31ZM150.767 204.516H149.019V201.944H146.876V204.516H145.505V206.162H146.876V211.167C146.876 211.956 147.082 212.539 147.527 212.899C147.973 213.259 148.676 213.43 149.636 213.43C149.91 213.43 150.287 213.413 150.767 213.362V211.716H150.03C149.653 211.716 149.396 211.664 149.242 211.544C149.087 211.442 149.019 211.236 149.019 210.944V206.162H150.767V204.516ZM157.532 203.367V201.344H155.406V203.367H157.532ZM157.549 213.362V204.516H155.389V213.362H157.549ZM163.97 204.31C162.804 204.31 161.878 204.807 161.21 205.784V204.516H159.118V213.362H161.278V208.407C161.278 207.722 161.467 207.173 161.844 206.779C162.221 206.384 162.701 206.179 163.25 206.179C164.347 206.179 164.913 206.744 164.913 207.859V213.362H167.073V207.499C167.073 206.487 166.781 205.699 166.233 205.15C165.684 204.602 164.93 204.31 163.97 204.31ZM173.304 202.819V201.156C172.996 201.122 172.619 201.104 172.19 201.104C171.213 201.104 170.493 201.362 170.013 201.842C169.533 202.322 169.293 202.99 169.293 203.847V204.516H167.922V206.162H169.293V213.362H171.436V206.162H173.253V204.516H171.436V203.882C171.436 203.179 171.796 202.819 172.55 202.819H173.304ZM181.214 212.299C182.037 211.459 182.448 210.344 182.448 208.939C182.448 207.533 182.037 206.402 181.214 205.562C180.391 204.739 179.294 204.31 177.957 204.31C176.602 204.31 175.522 204.739 174.7 205.579C173.86 206.419 173.448 207.533 173.448 208.939C173.448 210.344 173.86 211.476 174.7 212.299C175.522 213.156 176.602 213.567 177.957 213.567C179.294 213.567 180.391 213.156 181.214 212.299ZM177.957 211.784C177.237 211.784 176.671 211.544 176.26 211.047C175.848 210.567 175.66 209.864 175.66 208.939C175.66 208.03 175.848 207.327 176.26 206.83C176.671 206.35 177.237 206.093 177.957 206.093C178.677 206.093 179.225 206.35 179.637 206.847C180.048 207.344 180.254 208.047 180.254 208.939C180.254 209.847 180.048 210.55 179.637 211.047C179.225 211.544 178.677 211.784 177.957 211.784ZM188.363 204.379C187.095 204.379 186.203 204.962 185.723 206.093V204.516H183.632V213.362H185.792V208.87C185.792 208.064 185.998 207.447 186.443 207.036C186.889 206.624 187.523 206.402 188.346 206.402H188.895V204.413C188.723 204.396 188.552 204.379 188.363 204.379ZM199.986 204.31C198.82 204.31 197.895 204.859 197.243 205.956C196.763 204.859 195.838 204.31 194.5 204.31C193.42 204.31 192.58 204.807 191.98 205.784V204.516H189.889V213.362H192.049V208.493C192.049 207.739 192.203 207.173 192.546 206.779C192.889 206.384 193.318 206.179 193.866 206.179C194.895 206.179 195.409 206.744 195.409 207.859V213.362H197.552V208.493C197.552 207.739 197.706 207.173 198.049 206.779C198.392 206.384 198.838 206.179 199.386 206.179C200.398 206.179 200.912 206.744 200.912 207.859V213.362H203.072V207.516C203.072 206.522 202.798 205.75 202.249 205.167C201.7 204.602 200.946 204.31 199.986 204.31ZM212.605 213.362C212.365 213.019 212.245 212.47 212.245 211.682V206.967C212.245 205.202 211.011 204.31 208.559 204.31C206.022 204.31 204.702 205.322 204.582 207.327H206.708C206.742 206.813 206.913 206.453 207.188 206.247C207.462 206.042 207.908 205.922 208.542 205.922C209.125 205.922 209.536 206.024 209.776 206.196C210.016 206.367 210.153 206.642 210.153 207.019C210.153 207.327 210.051 207.567 209.862 207.722C209.656 207.876 209.348 207.979 208.902 208.03L207.565 208.15C205.302 208.39 204.171 209.299 204.171 210.91C204.171 211.75 204.445 212.402 205.028 212.864C205.611 213.344 206.382 213.567 207.359 213.567C208.662 213.567 209.605 213.139 210.205 212.282C210.256 212.83 210.342 213.19 210.445 213.362H212.605ZM207.873 212.024C207.393 212.024 207.016 211.922 206.759 211.716C206.502 211.51 206.382 211.202 206.382 210.824C206.382 210.447 206.502 210.173 206.742 209.967C206.982 209.762 207.393 209.624 207.976 209.556L209.142 209.419C209.605 209.367 209.948 209.247 210.153 209.059V209.864C210.153 210.567 209.931 211.099 209.519 211.476C209.091 211.853 208.542 212.024 207.873 212.024ZM218.064 204.516H216.315V201.944H214.172V204.516H212.801V206.162H214.172V211.167C214.172 211.956 214.378 212.539 214.824 212.899C215.27 213.259 215.972 213.43 216.932 213.43C217.207 213.43 217.584 213.413 218.064 213.362V211.716H217.327C216.95 211.716 216.692 211.664 216.538 211.544C216.384 211.442 216.315 211.236 216.315 210.944V206.162H218.064V204.516ZM221.3 203.367V201.344H219.174V203.367H221.3ZM221.317 213.362V204.516H219.157V213.362H221.317ZM230.258 212.299C231.081 211.459 231.492 210.344 231.492 208.939C231.492 207.533 231.081 206.402 230.258 205.562C229.435 204.739 228.338 204.31 227.001 204.31C225.646 204.31 224.566 204.739 223.743 205.579C222.903 206.419 222.492 207.533 222.492 208.939C222.492 210.344 222.903 211.476 223.743 212.299C224.566 213.156 225.646 213.567 227.001 213.567C228.338 213.567 229.435 213.156 230.258 212.299ZM227.001 211.784C226.281 211.784 225.715 211.544 225.303 211.047C224.892 210.567 224.703 209.864 224.703 208.939C224.703 208.03 224.892 207.327 225.303 206.83C225.715 206.35 226.281 206.093 227.001 206.093C227.721 206.093 228.269 206.35 228.681 206.847C229.092 207.344 229.298 208.047 229.298 208.939C229.298 209.847 229.092 210.55 228.681 211.047C228.269 211.544 227.721 211.784 227.001 211.784ZM237.527 204.31C236.362 204.31 235.436 204.807 234.767 205.784V204.516H232.676V213.362H234.836V208.407C234.836 207.722 235.024 207.173 235.402 206.779C235.779 206.384 236.259 206.179 236.807 206.179C237.904 206.179 238.47 206.744 238.47 207.859V213.362H240.63V207.499C240.63 206.487 240.339 205.699 239.79 205.15C239.242 204.602 238.487 204.31 237.527 204.31Z" fill="black"/>
<rect x="353" y="185.004" width="93" height="28" rx="8" fill="#F1F2F2"/>
<path d="M361.835 197.796C361.835 196.732 362.143 195.908 362.759 195.324C363.375 194.732 364.219 194.436 365.291 194.436C365.987 194.436 366.583 194.56 367.079 194.808C367.583 195.056 367.967 195.408 368.231 195.864C368.495 196.32 368.627 196.852 368.627 197.46V197.676H367.043V197.436C367.043 196.988 366.887 196.612 366.575 196.308C366.271 196.004 365.843 195.852 365.291 195.852C364.715 195.852 364.259 196.024 363.923 196.368C363.587 196.712 363.419 197.18 363.419 197.772V199.836C363.419 200.428 363.587 200.896 363.923 201.24C364.259 201.584 364.715 201.756 365.291 201.756C365.843 201.756 366.271 201.604 366.575 201.3C366.887 200.996 367.043 200.62 367.043 200.172V199.836H368.627V200.148C368.627 200.756 368.495 201.288 368.231 201.744C367.967 202.2 367.583 202.552 367.079 202.8C366.583 203.048 365.987 203.172 365.291 203.172C364.219 203.172 363.375 202.88 362.759 202.296C362.143 201.704 361.835 200.876 361.835 199.812V197.796ZM376.5 197.244C376.5 197.876 376.332 198.416 375.996 198.864C375.668 199.304 375.228 199.604 374.676 199.764L376.404 203.004H374.616L373.08 199.884H371.7V203.004H370.116V194.604H373.812C374.34 194.604 374.804 194.716 375.204 194.94C375.612 195.156 375.928 195.464 376.152 195.864C376.384 196.256 376.5 196.716 376.5 197.244ZM371.7 198.456H373.656C374.032 198.456 374.336 198.348 374.568 198.132C374.8 197.908 374.916 197.612 374.916 197.244C374.916 196.876 374.8 196.584 374.568 196.368C374.336 196.152 374.032 196.044 373.656 196.044H371.7V198.456ZM383.51 194.604V196.044H379.574V198.048H383.174V199.488H379.574V201.564H383.582V203.004H377.99V194.604H383.51ZM387.971 194.604C389.099 194.604 389.955 194.892 390.539 195.468C391.131 196.036 391.427 196.884 391.427 198.012V199.596C391.427 200.724 391.131 201.576 390.539 202.152C389.955 202.72 389.099 203.004 387.971 203.004H385.091V194.604H387.971ZM387.995 201.564C389.227 201.564 389.843 200.924 389.843 199.644V197.964C389.843 196.684 389.227 196.044 387.995 196.044H386.675V201.564H387.995ZM394.55 194.604V203.004H392.966V194.604H394.55ZM402.495 194.604V196.044H399.951V203.004H398.367V196.044H395.823V194.604H402.495ZM407.148 197.796C407.148 196.732 407.456 195.908 408.072 195.324C408.688 194.732 409.532 194.436 410.604 194.436C411.3 194.436 411.896 194.56 412.392 194.808C412.896 195.056 413.28 195.408 413.544 195.864C413.808 196.32 413.94 196.852 413.94 197.46V197.676H412.356V197.436C412.356 196.988 412.2 196.612 411.888 196.308C411.584 196.004 411.156 195.852 410.604 195.852C410.028 195.852 409.572 196.024 409.236 196.368C408.9 196.712 408.732 197.18 408.732 197.772V199.836C408.732 200.428 408.9 200.896 409.236 201.24C409.572 201.584 410.028 201.756 410.604 201.756C411.156 201.756 411.584 201.604 411.888 201.3C412.2 200.996 412.356 200.62 412.356 200.172V199.836H413.94V200.148C413.94 200.756 413.808 201.288 413.544 201.744C413.28 202.2 412.896 202.552 412.392 202.8C411.896 203.048 411.3 203.172 410.604 203.172C409.532 203.172 408.688 202.88 408.072 202.296C407.456 201.704 407.148 200.876 407.148 199.812V197.796ZM419.405 194.604L421.757 203.004H420.137L419.633 201.132H416.705L416.201 203.004H414.581L416.933 194.604H419.405ZM419.249 199.692L418.229 195.9H418.109L417.089 199.692H419.249ZM429.336 197.244C429.336 197.876 429.168 198.416 428.832 198.864C428.504 199.304 428.064 199.604 427.512 199.764L429.24 203.004H427.452L425.916 199.884H424.536V203.004H422.952V194.604H426.648C427.176 194.604 427.64 194.716 428.04 194.94C428.448 195.156 428.764 195.464 428.988 195.864C429.22 196.256 429.336 196.716 429.336 197.244ZM424.536 198.456H426.492C426.868 198.456 427.172 198.348 427.404 198.132C427.636 197.908 427.752 197.612 427.752 197.244C427.752 196.876 427.636 196.584 427.404 196.368C427.172 196.152 426.868 196.044 426.492 196.044H424.536V198.456ZM433.706 194.604C434.834 194.604 435.69 194.892 436.274 195.468C436.866 196.036 437.162 196.884 437.162 198.012V199.596C437.162 200.724 436.866 201.576 436.274 202.152C435.69 202.72 434.834 203.004 433.706 203.004H430.826V194.604H433.706ZM433.73 201.564C434.962 201.564 435.578 200.924 435.578 199.644V197.964C435.578 196.684 434.962 196.044 433.73 196.044H432.41V201.564H433.73Z" fill="#46494D"/>
<path d="M101.965 268.703C102.835 268.903 103.497 269.204 103.949 269.604C104.41 269.995 104.641 270.539 104.641 271.235V271.339C104.641 272.07 104.388 272.67 103.884 273.14C103.379 273.601 102.718 273.871 101.9 273.949V275.306H100.922V273.949C99.9472 273.871 99.1903 273.545 98.651 272.97C98.1203 272.388 97.855 271.6 97.855 270.608V270.282H98.925V270.556C98.925 271.278 99.0946 271.844 99.4339 272.253C99.7819 272.653 100.278 272.892 100.922 272.97V269.473C100.025 269.264 99.3556 268.977 98.912 268.612C98.4683 268.238 98.2465 267.694 98.2465 266.981V266.903C98.2465 266.241 98.4944 265.693 98.9903 265.258C99.4948 264.815 100.139 264.558 100.922 264.488V263.144H101.9V264.515C102.709 264.61 103.362 264.897 103.858 265.376C104.353 265.846 104.601 266.468 104.601 267.242V267.764H103.544V267.307C103.544 266.802 103.392 266.398 103.088 266.093C102.792 265.78 102.396 265.585 101.9 265.506V268.69L101.965 268.703ZM99.3165 266.955C99.3165 267.372 99.447 267.69 99.708 267.907C99.9689 268.116 100.373 268.294 100.922 268.442V265.48C100.452 265.541 100.065 265.702 99.7602 265.963C99.4644 266.224 99.3165 266.555 99.3165 266.955ZM101.9 272.97C102.431 272.892 102.84 272.705 103.127 272.409C103.423 272.105 103.571 271.739 103.571 271.313C103.571 270.896 103.427 270.569 103.14 270.334C102.862 270.091 102.448 269.891 101.9 269.734V272.97ZM115.824 265.611H110.904V268.873H111.061C111.487 268.055 112.227 267.646 113.279 267.646C113.793 267.646 114.258 267.772 114.676 268.025C115.102 268.268 115.437 268.621 115.68 269.082C115.933 269.534 116.059 270.065 116.059 270.674C116.059 271.317 115.924 271.892 115.654 272.396C115.393 272.892 115.015 273.279 114.519 273.558C114.032 273.836 113.466 273.975 112.823 273.975C112.179 273.975 111.609 273.849 111.113 273.597C110.617 273.336 110.23 272.975 109.952 272.514C109.682 272.044 109.547 271.505 109.547 270.896V270.569H110.591V270.817C110.591 271.522 110.787 272.066 111.178 272.448C111.579 272.831 112.118 273.023 112.797 273.023C113.484 273.023 114.019 272.818 114.402 272.409C114.784 272 114.976 271.431 114.976 270.7C114.976 270.039 114.797 269.517 114.441 269.134C114.093 268.742 113.619 268.547 113.018 268.547C112.253 268.547 111.696 268.886 111.348 269.565H109.847V264.658H115.824V265.611ZM117.092 268.194C117.092 267.003 117.383 266.085 117.966 265.441C118.558 264.797 119.376 264.475 120.419 264.475C121.463 264.475 122.277 264.797 122.86 265.441C123.451 266.085 123.747 267.003 123.747 268.194V270.256C123.747 271.465 123.456 272.388 122.873 273.023C122.29 273.658 121.472 273.975 120.419 273.975C119.367 273.975 118.549 273.658 117.966 273.023C117.383 272.388 117.092 271.465 117.092 270.256V268.194ZM118.149 270.321C118.149 271.183 118.34 271.848 118.723 272.318C119.106 272.788 119.671 273.023 120.419 273.023C121.176 273.023 121.742 272.788 122.116 272.318C122.499 271.839 122.69 271.174 122.69 270.321V268.129C122.69 267.277 122.494 266.611 122.103 266.133C121.711 265.654 121.15 265.415 120.419 265.415C119.689 265.415 119.128 265.654 118.736 266.133C118.345 266.611 118.149 267.277 118.149 268.129V270.321ZM124.99 273.075C124.99 272.814 125.073 272.601 125.238 272.435C125.412 272.261 125.629 272.174 125.89 272.174C126.143 272.174 126.356 272.261 126.53 272.435C126.704 272.601 126.791 272.814 126.791 273.075C126.791 273.336 126.704 273.553 126.53 273.727C126.356 273.893 126.143 273.975 125.89 273.975C125.629 273.975 125.412 273.893 125.238 273.727C125.073 273.553 124.99 273.336 124.99 273.075ZM128.02 268.194C128.02 267.003 128.311 266.085 128.894 265.441C129.485 264.797 130.303 264.475 131.347 264.475C132.391 264.475 133.205 264.797 133.787 265.441C134.379 266.085 134.675 267.003 134.675 268.194V270.256C134.675 271.465 134.383 272.388 133.8 273.023C133.218 273.658 132.4 273.975 131.347 273.975C130.295 273.975 129.477 273.658 128.894 273.023C128.311 272.388 128.02 271.465 128.02 270.256V268.194ZM129.077 270.321C129.077 271.183 129.268 271.848 129.651 272.318C130.034 272.788 130.599 273.023 131.347 273.023C132.104 273.023 132.669 272.788 133.044 272.318C133.426 271.839 133.618 271.174 133.618 270.321V268.129C133.618 267.277 133.422 266.611 133.031 266.133C132.639 265.654 132.078 265.415 131.347 265.415C130.616 265.415 130.055 265.654 129.664 266.133C129.272 266.611 129.077 267.277 129.077 268.129V270.321ZM135.905 268.194C135.905 267.003 136.196 266.085 136.779 265.441C137.371 264.797 138.188 264.475 139.232 264.475C140.276 264.475 141.09 264.797 141.672 265.441C142.264 266.085 142.56 267.003 142.56 268.194V270.256C142.56 271.465 142.268 272.388 141.685 273.023C141.103 273.658 140.285 273.975 139.232 273.975C138.18 273.975 137.362 273.658 136.779 273.023C136.196 272.388 135.905 271.465 135.905 270.256V268.194ZM136.962 270.321C136.962 271.183 137.153 271.848 137.536 272.318C137.919 272.788 138.484 273.023 139.232 273.023C139.989 273.023 140.555 272.788 140.929 272.318C141.311 271.839 141.503 271.174 141.503 270.321V268.129C141.503 267.277 141.307 266.611 140.916 266.133C140.524 265.654 139.963 265.415 139.232 265.415C138.501 265.415 137.94 265.654 137.549 266.133C137.157 266.611 136.962 267.277 136.962 268.129V270.321Z" fill="#17181A"/>
<rect x="84.4078" y="252.581" width="361.184" height="36.3273" rx="9.11602" stroke="#EDEEF0" stroke-width="0.815575"/>
<path d="M89.8575 236.607V237.44H85.7698V240.169H89.5378V241.003H85.7698V243.766H89.9145V244.6H84.8449V236.607H89.8575ZM91.9537 239.964H92.0679C92.2202 239.659 92.4561 239.408 92.7758 239.21C93.0955 239.012 93.518 238.913 94.0432 238.913C94.4543 238.913 94.8273 239.005 95.1622 239.187C95.4971 239.363 95.7598 239.625 95.9501 239.975C96.148 240.318 96.2469 240.733 96.2469 241.22V244.6H95.3792V241.277C95.3792 240.737 95.2421 240.333 94.9681 240.067C94.6941 239.8 94.3097 239.667 93.8149 239.667C93.2592 239.667 92.8139 239.85 92.479 240.215C92.144 240.58 91.9766 241.102 91.9766 241.779V244.6H91.0974V239.028H91.9537V239.964ZM98.6339 239.028V237.029H99.5017V239.028H101.34V239.758H99.5017V243.526C99.5017 243.755 99.6083 243.869 99.8214 243.869H101.089V244.6H99.5474C99.2657 244.6 99.0412 244.516 98.8737 244.348C98.7138 244.181 98.6339 243.953 98.6339 243.663V239.758H96.9098V239.028H98.6339ZM101.955 241.768C101.955 241.212 102.073 240.717 102.309 240.284C102.553 239.842 102.888 239.496 103.314 239.245C103.74 238.993 104.22 238.868 104.753 238.868C105.278 238.868 105.742 238.982 106.146 239.21C106.549 239.431 106.865 239.751 107.093 240.169C107.322 240.58 107.436 241.064 107.436 241.619V242.088H102.857C102.895 242.659 103.093 243.119 103.451 243.469C103.816 243.812 104.277 243.983 104.832 243.983C105.282 243.983 105.643 243.884 105.917 243.686C106.199 243.481 106.423 243.203 106.591 242.853L107.344 243.241C107.108 243.675 106.8 244.036 106.42 244.326C106.039 244.615 105.51 244.759 104.832 244.759C104.262 244.759 103.759 244.63 103.325 244.371C102.891 244.112 102.553 243.758 102.309 243.309C102.073 242.853 101.955 242.339 101.955 241.768ZM106.534 241.357C106.503 240.809 106.328 240.386 106.009 240.089C105.696 239.793 105.278 239.644 104.753 239.644C104.227 239.644 103.797 239.8 103.462 240.112C103.127 240.417 102.929 240.832 102.869 241.357H106.534ZM109.544 239.758C109.65 239.492 109.814 239.302 110.035 239.187C110.263 239.066 110.564 239.005 110.937 239.005H111.702V239.77H110.8C110.373 239.77 110.042 239.888 109.806 240.124C109.57 240.36 109.452 240.71 109.452 241.174V244.6H108.573V239.028H109.43V239.758H109.544ZM115.867 240.569C116.012 240.059 116.286 239.648 116.69 239.336C117.093 239.024 117.626 238.868 118.288 238.868C118.996 238.868 119.548 239.054 119.944 239.427C120.347 239.793 120.549 240.303 120.549 240.957V244.6H119.704V243.8H119.578C119.221 244.44 118.612 244.759 117.751 244.759C117.15 244.759 116.655 244.607 116.267 244.303C115.886 243.991 115.696 243.561 115.696 243.013C115.696 242.464 115.886 242.046 116.267 241.757C116.655 241.467 117.158 241.323 117.774 241.323H119.681V240.912C119.681 240.501 119.563 240.181 119.327 239.952C119.091 239.724 118.745 239.61 118.288 239.61C117.847 239.61 117.493 239.72 117.226 239.941C116.96 240.154 116.781 240.447 116.69 240.82L115.867 240.569ZM116.564 243.001C116.564 243.313 116.682 243.564 116.918 243.755C117.161 243.937 117.481 244.029 117.877 244.029C118.417 244.029 118.851 243.865 119.179 243.538C119.514 243.203 119.681 242.75 119.681 242.179V242.042H117.808C117.435 242.042 117.135 242.126 116.906 242.293C116.678 242.461 116.564 242.697 116.564 243.001ZM122.891 239.758H123.005C123.142 239.5 123.344 239.294 123.611 239.142C123.877 238.99 124.208 238.913 124.604 238.913C125.015 238.913 125.358 239.009 125.632 239.199C125.913 239.382 126.119 239.625 126.248 239.93H126.362C126.713 239.252 127.295 238.913 128.109 238.913C128.665 238.913 129.118 239.088 129.468 239.439C129.818 239.781 129.993 240.242 129.993 240.82V244.6H129.126V240.889C129.126 240.516 129.011 240.219 128.783 239.998C128.562 239.777 128.258 239.667 127.87 239.667C127.443 239.667 127.101 239.804 126.842 240.078C126.583 240.352 126.454 240.737 126.454 241.231V244.6H125.575V240.889C125.575 240.516 125.464 240.219 125.243 239.998C125.023 239.777 124.714 239.667 124.319 239.667C123.9 239.667 123.561 239.804 123.302 240.078C123.044 240.352 122.914 240.737 122.914 241.231V244.6H122.035V239.028H122.891V239.758ZM131.123 241.814C131.123 241.235 131.241 240.725 131.477 240.284C131.72 239.834 132.055 239.488 132.481 239.245C132.915 238.993 133.41 238.868 133.966 238.868C134.521 238.868 135.016 238.993 135.45 239.245C135.884 239.488 136.219 239.834 136.455 240.284C136.699 240.725 136.82 241.235 136.82 241.814C136.82 242.392 136.699 242.906 136.455 243.355C136.219 243.797 135.884 244.143 135.45 244.394C135.016 244.638 134.521 244.759 133.966 244.759C133.41 244.759 132.915 244.638 132.481 244.394C132.055 244.143 131.72 243.797 131.477 243.355C131.241 242.906 131.123 242.392 131.123 241.814ZM131.99 241.814C131.99 242.476 132.169 243.005 132.527 243.401C132.893 243.789 133.372 243.983 133.966 243.983C134.56 243.983 135.035 243.785 135.393 243.389C135.758 242.986 135.941 242.461 135.941 241.814C135.941 241.159 135.758 240.634 135.393 240.238C135.035 239.842 134.56 239.644 133.966 239.644C133.38 239.644 132.904 239.846 132.539 240.249C132.173 240.653 131.99 241.174 131.99 241.814ZM142.279 243.663H142.164C141.807 244.356 141.144 244.702 140.178 244.702C139.767 244.702 139.394 244.615 139.059 244.44C138.724 244.257 138.457 243.994 138.259 243.652C138.069 243.309 137.974 242.895 137.974 242.407V239.028H138.842V242.35C138.842 242.891 138.979 243.294 139.253 243.561C139.527 243.827 139.915 243.96 140.417 243.96C140.965 243.96 141.407 243.778 141.742 243.412C142.084 243.047 142.256 242.525 142.256 241.848V239.028H143.123V244.6H142.279V243.663ZM145.53 239.964H145.644C145.796 239.659 146.032 239.408 146.352 239.21C146.672 239.012 147.094 238.913 147.619 238.913C148.03 238.913 148.403 239.005 148.738 239.187C149.073 239.363 149.336 239.625 149.526 239.975C149.724 240.318 149.823 240.733 149.823 241.22V244.6H148.955V241.277C148.955 240.737 148.818 240.333 148.544 240.067C148.27 239.8 147.886 239.667 147.391 239.667C146.835 239.667 146.39 239.85 146.055 240.215C145.72 240.58 145.553 241.102 145.553 241.779V244.6H144.673V239.028H145.53V239.964ZM152.21 239.028V237.029H153.078V239.028H154.916V239.758H153.078V243.526C153.078 243.755 153.184 243.869 153.397 243.869H154.665V244.6H153.123C152.842 244.6 152.617 244.516 152.45 244.348C152.29 244.181 152.21 243.953 152.21 243.663V239.758H150.486V239.028H152.21ZM160.467 239.028V237.029H161.335V239.028H163.173V239.758H161.335V243.526C161.335 243.755 161.441 243.869 161.655 243.869H162.922V244.6H161.381C161.099 244.6 160.874 244.516 160.707 244.348C160.547 244.181 160.467 243.953 160.467 243.663V239.758H158.743V239.028H160.467ZM163.8 241.814C163.8 241.235 163.918 240.725 164.154 240.284C164.397 239.834 164.732 239.488 165.158 239.245C165.592 238.993 166.087 238.868 166.643 238.868C167.199 238.868 167.693 238.993 168.127 239.245C168.561 239.488 168.896 239.834 169.132 240.284C169.376 240.725 169.497 241.235 169.497 241.814C169.497 242.392 169.376 242.906 169.132 243.355C168.896 243.797 168.561 244.143 168.127 244.394C167.693 244.638 167.199 244.759 166.643 244.759C166.087 244.759 165.592 244.638 165.158 244.394C164.732 244.143 164.397 243.797 164.154 243.355C163.918 242.906 163.8 242.392 163.8 241.814ZM164.668 241.814C164.668 242.476 164.846 243.005 165.204 243.401C165.57 243.789 166.049 243.983 166.643 243.983C167.237 243.983 167.712 243.785 168.07 243.389C168.435 242.986 168.618 242.461 168.618 241.814C168.618 241.159 168.435 240.634 168.07 240.238C167.712 239.842 167.237 239.644 166.643 239.644C166.057 239.644 165.581 239.846 165.216 240.249C164.85 240.653 164.668 241.174 164.668 241.814ZM174.951 239.028V239.987H175.065C175.514 239.241 176.214 238.868 177.166 238.868C177.653 238.868 178.098 238.99 178.502 239.233C178.905 239.477 179.221 239.823 179.45 240.272C179.686 240.714 179.804 241.227 179.804 241.814C179.804 242.4 179.686 242.917 179.45 243.366C179.221 243.808 178.905 244.15 178.502 244.394C178.098 244.638 177.653 244.759 177.166 244.759C176.207 244.759 175.514 244.394 175.088 243.663H174.974V246.883H174.095V239.028H174.951ZM176.949 243.983C177.535 243.983 178.007 243.789 178.365 243.401C178.73 243.013 178.913 242.483 178.913 241.814C178.913 241.144 178.73 240.615 178.365 240.226C178.007 239.831 177.535 239.633 176.949 239.633C176.568 239.633 176.226 239.724 175.921 239.907C175.625 240.082 175.389 240.337 175.214 240.672C175.046 240.999 174.962 241.38 174.962 241.814C174.962 242.476 175.145 243.005 175.51 243.401C175.883 243.789 176.363 243.983 176.949 243.983ZM180.789 240.569C180.934 240.059 181.208 239.648 181.611 239.336C182.015 239.024 182.548 238.868 183.21 238.868C183.918 238.868 184.47 239.054 184.866 239.427C185.269 239.793 185.471 240.303 185.471 240.957V244.6H184.626V243.8H184.5C184.142 244.44 183.533 244.759 182.673 244.759C182.072 244.759 181.577 244.607 181.189 244.303C180.808 243.991 180.618 243.561 180.618 243.013C180.618 242.464 180.808 242.046 181.189 241.757C181.577 241.467 182.08 241.323 182.696 241.323H184.603V240.912C184.603 240.501 184.485 240.181 184.249 239.952C184.013 239.724 183.667 239.61 183.21 239.61C182.768 239.61 182.414 239.72 182.148 239.941C181.882 240.154 181.703 240.447 181.611 240.82L180.789 240.569ZM181.486 243.001C181.486 243.313 181.604 243.564 181.84 243.755C182.083 243.937 182.403 244.029 182.799 244.029C183.339 244.029 183.773 243.865 184.101 243.538C184.435 243.203 184.603 242.75 184.603 242.179V242.042H182.73C182.357 242.042 182.057 242.126 181.828 242.293C181.6 242.461 181.486 242.697 181.486 243.001ZM190.858 239.028H191.828L188.483 246.883H187.524L188.471 244.748L186.062 239.028H187.021L188.883 243.572H188.997L190.858 239.028Z" fill="#757A80"/>
<path d="M87.4597 304.019C88.297 304.019 88.9783 304.232 89.5035 304.658C90.0363 305.084 90.3028 305.693 90.3028 306.485V306.862H89.3779V306.485C89.3779 305.929 89.2028 305.518 88.8527 305.252C88.5101 304.978 88.0458 304.841 87.4597 304.841C86.9116 304.841 86.4739 304.959 86.1466 305.195C85.8269 305.431 85.667 305.758 85.667 306.177C85.667 306.588 85.7964 306.896 86.0552 307.101C86.3217 307.299 86.7479 307.467 87.3341 307.604L87.9506 307.752C88.7347 307.935 89.3322 308.194 89.7433 308.529C90.1619 308.856 90.3713 309.347 90.3713 310.002C90.3713 310.458 90.2495 310.866 90.0059 311.223C89.7699 311.573 89.435 311.848 89.0011 312.045C88.5672 312.236 88.061 312.331 87.4825 312.331C86.5767 312.331 85.8459 312.087 85.2902 311.6C84.7346 311.113 84.4567 310.409 84.4567 309.488V309.408H85.3816V309.488C85.3816 310.158 85.5681 310.664 85.9411 311.006C86.3217 311.341 86.8355 311.509 87.4825 311.509C88.0991 311.509 88.5824 311.372 88.9326 311.098C89.2828 310.824 89.4578 310.462 89.4578 310.013C89.4578 309.602 89.3094 309.294 89.0125 309.088C88.7233 308.875 88.278 308.7 87.6766 308.563L87.0715 308.414C86.3026 308.232 85.7203 307.973 85.3245 307.638C84.9363 307.303 84.7422 306.82 84.7422 306.188C84.7422 305.746 84.8564 305.362 85.0847 305.035C85.3131 304.707 85.6328 304.456 86.0438 304.281C86.4549 304.106 86.9268 304.019 87.4597 304.019ZM95.8807 311.235H95.7665C95.4087 311.927 94.7465 312.274 93.7797 312.274C93.3687 312.274 92.9957 312.186 92.6608 312.011C92.3258 311.828 92.0594 311.566 91.8615 311.223C91.6712 310.881 91.5761 310.466 91.5761 309.979V306.599H92.4438V309.922C92.4438 310.462 92.5808 310.866 92.8549 311.132C93.1289 311.398 93.5171 311.532 94.0195 311.532C94.5676 311.532 95.0091 311.349 95.344 310.984C95.6866 310.618 95.8578 310.097 95.8578 309.419V306.599H96.7256V312.171H95.8807V311.235ZM99.2461 307.33C99.3527 307.063 99.5164 306.873 99.7371 306.759C99.9655 306.637 100.266 306.576 100.639 306.576H101.404V307.341H100.502C100.076 307.341 99.7447 307.459 99.5087 307.695C99.2728 307.931 99.1548 308.281 99.1548 308.746V312.171H98.2756V306.599H99.1319V307.33H99.2461ZM101.688 309.385C101.688 308.822 101.813 308.316 102.065 307.866C102.323 307.417 102.67 307.067 103.104 306.816C103.545 306.565 104.032 306.439 104.565 306.439C105.052 306.439 105.482 306.534 105.855 306.725C106.236 306.907 106.54 307.162 106.769 307.49C106.997 307.809 107.146 308.167 107.214 308.563L106.358 308.746C106.297 308.289 106.11 307.92 105.798 307.638C105.486 307.356 105.079 307.216 104.577 307.216C104.196 307.216 103.853 307.307 103.549 307.49C103.252 307.672 103.016 307.931 102.841 308.266C102.666 308.593 102.578 308.966 102.578 309.385C102.578 309.804 102.666 310.18 102.841 310.515C103.016 310.843 103.256 311.098 103.56 311.28C103.865 311.463 104.207 311.554 104.588 311.554C105.106 311.554 105.517 311.414 105.821 311.132C106.126 310.85 106.316 310.477 106.392 310.013L107.248 310.207C107.119 310.831 106.822 311.341 106.358 311.737C105.901 312.133 105.307 312.331 104.577 312.331C104.044 312.331 103.557 312.205 103.115 311.954C102.674 311.703 102.323 311.353 102.065 310.904C101.813 310.455 101.688 309.948 101.688 309.385ZM109.285 307.49H109.399C109.772 306.82 110.423 306.485 111.352 306.485C111.763 306.485 112.136 306.576 112.471 306.759C112.806 306.934 113.068 307.197 113.259 307.547C113.457 307.889 113.556 308.304 113.556 308.791V312.171H112.688V308.848C112.688 308.308 112.551 307.904 112.277 307.638C112.003 307.372 111.618 307.238 111.123 307.238C110.568 307.238 110.123 307.421 109.788 307.786C109.453 308.152 109.285 308.673 109.285 309.351V312.171H108.406V304.178H109.285V307.49ZM114.867 308.14C115.011 307.63 115.285 307.219 115.689 306.907C116.092 306.595 116.625 306.439 117.287 306.439C117.995 306.439 118.547 306.626 118.943 306.999C119.346 307.364 119.548 307.874 119.548 308.529V312.171H118.703V311.372H118.577C118.22 312.011 117.611 312.331 116.751 312.331C116.149 312.331 115.654 312.179 115.266 311.874C114.886 311.562 114.695 311.132 114.695 310.584C114.695 310.036 114.886 309.617 115.266 309.328C115.654 309.039 116.157 308.894 116.773 308.894H118.68V308.483C118.68 308.072 118.562 307.752 118.326 307.524C118.09 307.296 117.744 307.181 117.287 307.181C116.846 307.181 116.492 307.292 116.225 307.512C115.959 307.726 115.78 308.019 115.689 308.392L114.867 308.14ZM115.563 310.572C115.563 310.885 115.681 311.136 115.917 311.326C116.161 311.509 116.48 311.6 116.876 311.6C117.417 311.6 117.85 311.436 118.178 311.109C118.513 310.774 118.68 310.321 118.68 309.75V309.613H116.808C116.435 309.613 116.134 309.697 115.906 309.865C115.677 310.032 115.563 310.268 115.563 310.572ZM122.005 307.33C122.111 307.063 122.275 306.873 122.496 306.759C122.724 306.637 123.025 306.576 123.398 306.576H124.163V307.341H123.261C122.834 307.341 122.503 307.459 122.267 307.695C122.031 307.931 121.913 308.281 121.913 308.746V312.171H121.034V306.599H121.89V307.33H122.005ZM130.155 306.599V311.886C130.155 312.738 129.897 313.404 129.379 313.884C128.869 314.371 128.188 314.614 127.335 314.614C126.574 314.614 125.961 314.432 125.497 314.066C125.04 313.709 124.732 313.286 124.572 312.799L125.371 312.491C125.485 312.879 125.702 313.202 126.022 313.461C126.349 313.72 126.783 313.849 127.324 313.849C127.925 313.849 128.401 313.674 128.751 313.324C129.101 312.982 129.276 312.487 129.276 311.84V311.121H129.162C128.972 311.433 128.705 311.691 128.363 311.897C128.028 312.103 127.598 312.205 127.072 312.205C126.585 312.205 126.14 312.087 125.737 311.851C125.341 311.608 125.025 311.269 124.789 310.835C124.56 310.394 124.446 309.887 124.446 309.317C124.446 308.746 124.56 308.243 124.789 307.809C125.025 307.375 125.341 307.041 125.737 306.805C126.14 306.561 126.585 306.439 127.072 306.439C128.032 306.439 128.736 306.812 129.185 307.558H129.299V306.599H130.155ZM127.289 311.429C127.876 311.429 128.355 311.239 128.728 310.858C129.101 310.47 129.288 309.956 129.288 309.317C129.288 308.898 129.2 308.529 129.025 308.209C128.857 307.889 128.621 307.642 128.317 307.467C128.02 307.292 127.678 307.204 127.289 307.204C126.703 307.204 126.231 307.394 125.874 307.775C125.516 308.156 125.337 308.669 125.337 309.317C125.337 309.964 125.516 310.477 125.874 310.858C126.231 311.239 126.703 311.429 127.289 311.429ZM131.334 309.339C131.334 308.784 131.452 308.289 131.688 307.855C131.932 307.413 132.267 307.067 132.693 306.816C133.119 306.565 133.599 306.439 134.132 306.439C134.657 306.439 135.121 306.553 135.525 306.782C135.928 307.002 136.244 307.322 136.472 307.741C136.701 308.152 136.815 308.635 136.815 309.191V309.659H132.236C132.274 310.23 132.472 310.69 132.83 311.041C133.195 311.383 133.656 311.554 134.212 311.554C134.661 311.554 135.022 311.455 135.296 311.258C135.578 311.052 135.803 310.774 135.97 310.424L136.724 310.812C136.488 311.246 136.179 311.608 135.799 311.897C135.418 312.186 134.889 312.331 134.212 312.331C133.641 312.331 133.138 312.201 132.704 311.943C132.271 311.684 131.932 311.33 131.688 310.881C131.452 310.424 131.334 309.91 131.334 309.339ZM135.913 308.928C135.883 308.38 135.707 307.958 135.388 307.661C135.076 307.364 134.657 307.216 134.132 307.216C133.607 307.216 133.176 307.372 132.842 307.684C132.507 307.988 132.309 308.403 132.248 308.928H135.913Z" fill="#757A80"/>
<path d="M94.5771 333.501C94.5771 332.506 94.2514 331.735 93.6171 331.169C92.9829 330.603 91.9543 330.175 90.5314 329.883L90.1371 329.815V326.421C91.2857 326.626 91.9029 327.278 91.9714 328.409H94.2171C94.1657 327.295 93.8057 326.403 93.1371 325.735C92.4514 325.083 91.4571 324.672 90.1371 324.535V322.786H88.9029V324.501C87.5829 324.569 86.5543 324.895 85.8171 325.512C85.08 326.129 84.72 326.952 84.72 327.946C84.72 329.935 86.0229 331.169 88.6457 331.649L88.9029 331.701V335.335C87.4629 335.163 86.7257 334.375 86.6914 332.952H84.4114C84.4114 334.221 84.8057 335.232 85.5943 335.969C86.3829 336.706 87.48 337.118 88.9029 337.221V338.969H90.1371V337.238C91.5429 337.169 92.6229 336.809 93.4114 336.158C94.1829 335.506 94.5771 334.632 94.5771 333.501ZM87.0857 327.878C87.0857 326.986 87.6857 326.489 88.9029 326.386V329.541C88.2171 329.369 87.7543 329.163 87.48 328.923C87.2057 328.683 87.0857 328.323 87.0857 327.878ZM90.1371 331.958C90.8914 332.146 91.4057 332.369 91.7143 332.609C92.0229 332.849 92.1771 333.192 92.1771 333.621C92.1771 334.683 91.4914 335.266 90.1371 335.369V331.958ZM98.4678 324.775C98.2963 325.581 97.9706 326.163 97.4906 326.506C97.0106 326.849 96.3421 327.055 95.4506 327.106L95.1763 327.123V328.752H97.9878V336.981H100.302V324.775H98.4678ZM104.206 336.981V334.529H101.686V336.981H104.206ZM103.933 326.729H109.916C107.276 329.626 105.939 333.038 105.87 336.981H108.27C108.304 334.786 108.63 332.866 109.282 331.221C109.899 329.626 110.893 328.101 112.282 326.626V324.775H103.933V326.729ZM117.045 328.958C116.222 328.958 115.467 329.232 114.816 329.763L115.347 326.729H120.593V324.775H113.53L112.399 331.889H114.525C114.919 331.066 115.639 330.655 116.667 330.655C117.353 330.655 117.919 330.878 118.347 331.323C118.776 331.769 118.999 332.335 118.999 333.021C118.999 333.723 118.776 334.289 118.347 334.735C117.919 335.181 117.353 335.386 116.667 335.386C116.05 335.386 115.519 335.232 115.107 334.889C114.696 334.546 114.439 334.083 114.37 333.501H112.159C112.245 334.666 112.707 335.592 113.53 336.243C114.37 336.929 115.416 337.255 116.667 337.255C118.005 337.255 119.102 336.878 119.959 336.089C120.799 335.318 121.227 334.289 121.227 333.021C121.227 331.872 120.867 330.912 120.147 330.123C119.393 329.352 118.365 328.958 117.045 328.958Z" fill="black"/>
<path d="M223.34 304.178V305.012H220.679V312.171H219.755V305.012H217.083V304.178H223.34ZM222.762 309.385C222.762 308.807 222.88 308.296 223.116 307.855C223.36 307.406 223.695 307.06 224.121 306.816C224.555 306.565 225.05 306.439 225.605 306.439C226.161 306.439 226.656 306.565 227.09 306.816C227.524 307.06 227.859 307.406 228.095 307.855C228.338 308.296 228.46 308.807 228.46 309.385C228.46 309.964 228.338 310.477 228.095 310.926C227.859 311.368 227.524 311.714 227.09 311.965C226.656 312.209 226.161 312.331 225.605 312.331C225.05 312.331 224.555 312.209 224.121 311.965C223.695 311.714 223.36 311.368 223.116 310.926C222.88 310.477 222.762 309.964 222.762 309.385ZM223.63 309.385C223.63 310.047 223.809 310.576 224.167 310.972C224.532 311.36 225.012 311.554 225.605 311.554C226.199 311.554 226.675 311.357 227.033 310.961C227.398 310.557 227.581 310.032 227.581 309.385C227.581 308.73 227.398 308.205 227.033 307.809C226.675 307.413 226.199 307.216 225.605 307.216C225.019 307.216 224.544 307.417 224.178 307.821C223.813 308.224 223.63 308.746 223.63 309.385ZM230.608 306.599V304.601H231.476V306.599H233.314V307.33H231.476V311.098C231.476 311.326 231.583 311.44 231.796 311.44H233.063V312.171H231.522C231.24 312.171 231.016 312.087 230.848 311.92C230.688 311.752 230.608 311.524 230.608 311.235V307.33H228.884V306.599H230.608ZM234.269 308.14C234.413 307.63 234.687 307.219 235.091 306.907C235.494 306.595 236.027 306.439 236.689 306.439C237.397 306.439 237.949 306.626 238.345 306.999C238.748 307.364 238.95 307.874 238.95 308.529V312.171H238.105V311.372H237.979C237.622 312.011 237.013 312.331 236.153 312.331C235.551 312.331 235.056 312.179 234.668 311.874C234.288 311.562 234.097 311.132 234.097 310.584C234.097 310.036 234.288 309.617 234.668 309.328C235.056 309.039 235.559 308.894 236.175 308.894H238.082V308.483C238.082 308.072 237.964 307.752 237.728 307.524C237.492 307.296 237.146 307.181 236.689 307.181C236.248 307.181 235.894 307.292 235.627 307.512C235.361 307.726 235.182 308.019 235.091 308.392L234.269 308.14ZM234.965 310.572C234.965 310.885 235.083 311.136 235.319 311.326C235.563 311.509 235.882 311.6 236.278 311.6C236.819 311.6 237.252 311.436 237.58 311.109C237.915 310.774 238.082 310.321 238.082 309.75V309.613H236.21C235.837 309.613 235.536 309.697 235.308 309.865C235.079 310.032 234.965 310.268 234.965 310.572ZM241.315 312.171H240.436V304.178H241.315V312.171Z" fill="#757A80"/>
<path d="M227.466 333.501C227.466 332.506 227.14 331.735 226.506 331.169C225.872 330.603 224.843 330.175 223.42 329.883L223.026 329.815V326.421C224.174 326.626 224.792 327.278 224.86 328.409H227.106C227.054 327.295 226.694 326.403 226.026 325.735C225.34 325.083 224.346 324.672 223.026 324.535V322.786H221.792V324.501C220.472 324.569 219.443 324.895 218.706 325.512C217.969 326.129 217.609 326.952 217.609 327.946C217.609 329.935 218.912 331.169 221.534 331.649L221.792 331.701V335.335C220.352 335.163 219.614 334.375 219.58 332.952H217.3C217.3 334.221 217.694 335.232 218.483 335.969C219.272 336.706 220.369 337.118 221.792 337.221V338.969H223.026V337.238C224.432 337.169 225.512 336.809 226.3 336.158C227.072 335.506 227.466 334.632 227.466 333.501ZM219.974 327.878C219.974 326.986 220.574 326.489 221.792 326.386V329.541C221.106 329.369 220.643 329.163 220.369 328.923C220.094 328.683 219.974 328.323 219.974 327.878ZM223.026 331.958C223.78 332.146 224.294 332.369 224.603 332.609C224.912 332.849 225.066 333.192 225.066 333.621C225.066 334.683 224.38 335.266 223.026 335.369V331.958ZM233.221 328.958C232.398 328.958 231.644 329.232 230.992 329.763L231.524 326.729H236.77V324.775H229.707L228.575 331.889H230.701C231.095 331.066 231.815 330.655 232.844 330.655C233.53 330.655 234.095 330.878 234.524 331.323C234.952 331.769 235.175 332.335 235.175 333.021C235.175 333.723 234.952 334.289 234.524 334.735C234.095 335.181 233.53 335.386 232.844 335.386C232.227 335.386 231.695 335.232 231.284 334.889C230.872 334.546 230.615 334.083 230.547 333.501H228.335C228.421 334.666 228.884 335.592 229.707 336.243C230.547 336.929 231.592 337.255 232.844 337.255C234.181 337.255 235.278 336.878 236.135 336.089C236.975 335.318 237.404 334.289 237.404 333.021C237.404 331.872 237.044 330.912 236.324 330.123C235.57 329.352 234.541 328.958 233.221 328.958ZM240.895 324.775C240.723 325.581 240.398 326.163 239.918 326.506C239.438 326.849 238.769 327.055 237.878 327.106L237.603 327.123V328.752H240.415V336.981H242.729V324.775H240.895ZM246.633 336.981V334.529H244.113V336.981H246.633ZM246.36 326.729H252.343C249.703 329.626 248.366 333.038 248.297 336.981H250.697C250.731 334.786 251.057 332.866 251.709 331.221C252.326 329.626 253.32 328.101 254.709 326.626V324.775H246.36V326.729ZM259.472 328.958C258.649 328.958 257.895 329.232 257.243 329.763L257.775 326.729H263.02V324.775H255.957L254.826 331.889H256.952C257.346 331.066 258.066 330.655 259.095 330.655C259.78 330.655 260.346 330.878 260.775 331.323C261.203 331.769 261.426 332.335 261.426 333.021C261.426 333.723 261.203 334.289 260.775 334.735C260.346 335.181 259.78 335.386 259.095 335.386C258.477 335.386 257.946 335.232 257.535 334.889C257.123 334.546 256.866 334.083 256.797 333.501H254.586C254.672 334.666 255.135 335.592 255.957 336.243C256.797 336.929 257.843 337.255 259.095 337.255C260.432 337.255 261.529 336.878 262.386 336.089C263.226 335.318 263.655 334.289 263.655 333.021C263.655 331.872 263.295 330.912 262.575 330.123C261.82 329.352 260.792 328.958 259.472 328.958Z" fill="black"/>
</g>
<defs>
<filter id="filter0_d_623_16457" x="0.238091" y="0.285709" width="529.524" height="737.524" filterUnits="userSpaceOnUse" color-interpolation-filters="sRGB">
<feFlood flood-opacity="0" result="BackgroundImageFix"/>
<feColorMatrix in="SourceAlpha" type="matrix" values="0 0 0 0 0 0 0 0 0 0 0 0 0 0 0 0 0 0 127 0" result="hardAlpha"/>
<feOffset dy="19.0476"/>
<feGaussianBlur stdDeviation="32.381"/>
<feComposite in2="hardAlpha" operator="out"/>
<feColorMatrix type="matrix" values="0 0 0 0 0 0 0 0 0 0 0 0 0 0 0 0 0 0 0.05 0"/>
<feBlend mode="normal" in2="BackgroundImageFix" result="effect1_dropShadow_623_16457"/>
<feBlend mode="normal" in="SourceGraphic" in2="effect1_dropShadow_623_16457" result="shape"/>
</filter>
<filter id="filter1_di_623_16457" x="65" y="46" width="400" height="50.9523" filterUnits="userSpaceOnUse" color-interpolation-filters="sRGB">
<feFlood flood-opacity="0" result="BackgroundImageFix"/>
<feColorMatrix in="SourceAlpha" type="matrix" values="0 0 0 0 0 0 0 0 0 0 0 0 0 0 0 0 0 0 127 0" result="hardAlpha"/>
<feOffset dy="0.476191"/>
<feColorMatrix type="matrix" values="0 0 0 0 0 0 0 0 0 0 0 0 0 0 0 0 0 0 0.15 0"/>
<feBlend mode="normal" in2="BackgroundImageFix" result="effect1_dropShadow_623_16457"/>
<feBlend mode="normal" in="SourceGraphic" in2="effect1_dropShadow_623_16457" result="shape"/>
<feColorMatrix in="SourceAlpha" type="matrix" values="0 0 0 0 0 0 0 0 0 0 0 0 0 0 0 0 0 0 127 0" result="hardAlpha"/>
<feOffset dy="-0.476191"/>
<feComposite in2="hardAlpha" operator="arithmetic" k2="-1" k3="1"/>
<feColorMatrix type="matrix" values="0 0 0 0 0 0 0 0 0 0 0 0 0 0 0 0 0 0 0.05 0"/>
<feBlend mode="normal" in2="shape" result="effect2_innerShadow_623_16457"/>
</filter>
<filter id="filter2_i_623_16457" x="85" y="65.0483" width="11.4287" height="11.4285" filterUnits="userSpaceOnUse" color-interpolation-filters="sRGB">
<feFlood flood-opacity="0" result="BackgroundImageFix"/>
<feBlend mode="normal" in="SourceGraphic" in2="BackgroundImageFix" result="shape"/>
<feColorMatrix in="SourceAlpha" type="matrix" values="0 0 0 0 0 0 0 0 0 0 0 0 0 0 0 0 0 0 127 0" result="hardAlpha"/>
<feOffset/>
<feGaussianBlur stdDeviation="2.85714"/>
<feComposite in2="hardAlpha" operator="arithmetic" k2="-1" k3="1"/>
<feColorMatrix type="matrix" values="0 0 0 0 0.92549 0 0 0 0 0.427451 0 0 0 0 0.384314 0 0 0 1 0"/>
<feBlend mode="normal" in2="shape" result="effect1_innerShadow_623_16457"/>
</filter>
<filter id="filter3_i_623_16457" x="104.048" y="65.0483" width="11.4287" height="11.4285" filterUnits="userSpaceOnUse" color-interpolation-filters="sRGB">
<feFlood flood-opacity="0" result="BackgroundImageFix"/>
<feBlend mode="normal" in="SourceGraphic" in2="BackgroundImageFix" result="shape"/>
<feColorMatrix in="SourceAlpha" type="matrix" values="0 0 0 0 0 0 0 0 0 0 0 0 0 0 0 0 0 0 127 0" result="hardAlpha"/>
<feOffset/>
<feGaussianBlur stdDeviation="2.85714"/>
<feComposite in2="hardAlpha" operator="arithmetic" k2="-1" k3="1"/>
<feColorMatrix type="matrix" values="0 0 0 0 0.960784 0 0 0 0 0.768627 0 0 0 0 0.317647 0 0 0 1 0"/>
<feBlend mode="normal" in2="shape" result="effect1_innerShadow_623_16457"/>
</filter>
<filter id="filter4_i_623_16457" x="123.096" y="65.0483" width="11.4287" height="11.4285" filterUnits="userSpaceOnUse" color-interpolation-filters="sRGB">
<feFlood flood-opacity="0" result="BackgroundImageFix"/>
<feBlend mode="normal" in="SourceGraphic" in2="BackgroundImageFix" result="shape"/>
<feColorMatrix in="SourceAlpha" type="matrix" values="0 0 0 0 0 0 0 0 0 0 0 0 0 0 0 0 0 0 127 0" result="hardAlpha"/>
<feOffset/>
<feGaussianBlur stdDeviation="2.85714"/>
<feComposite in2="hardAlpha" operator="arithmetic" k2="-1" k3="1"/>
<feColorMatrix type="matrix" values="0 0 0 0 0.407843 0 0 0 0 0.8 0 0 0 0 0.345098 0 0 0 1 0"/>
<feBlend mode="normal" in2="shape" result="effect1_innerShadow_623_16457"/>
</filter>
<clipPath id="clip0_623_16457">
<rect width="70.4762" height="26.6667" fill="white" transform="translate(383.096 57.4285)"/>
</clipPath>
<clipPath id="clip1_623_16457">
<rect width="62.8571" height="26.6667" fill="white" transform="translate(192.619 57.4285)"/>
</clipPath>
</defs>
</svg>
